<?xml version="1.0" encoding="UTF-8"?> <svg xmlns="http://www.w3.org/2000/svg" id="design" viewBox="0 0 500 500"><title>3d-icons-color-</title><polygon points="187.91 229.73 187.91 287.51 136.67 317.11 136.67 200.13 237.95 141.65 237.95 201.03 187.91 229.73" fill="#3023bd"></polygon><polygon points="237.95 431.9 87.87 345.25 87.87 171.95 136.67 200.13 136.67 317.11 237.95 375.03 237.95 431.9" fill="#00adff"></polygon><polygon points="237.95 316.35 187.91 287.51 187.91 229.73 237.95 258.67 237.95 316.35" fill="#ffb404"></polygon><polygon points="339.07 317.11 287.83 287.51 237.95 316.35 187.91 287.51 136.67 317.11 237.95 375.03 339.07 317.11" fill="#4a5fff"></polygon><polygon points="237.95 201.05 287.83 229.73 287.83 287.51 339.07 317.11 339.07 200.13 237.95 141.65 237.95 201.05" fill="#3c33ff"></polygon><polygon points="237.95 431.9 387.87 345.25 387.87 171.95 339.07 200.13 339.07 317.11 237.95 375.03 237.95 431.9" fill="#0089fa"></polygon><polygon points="237.95 316.35 287.83 287.51 287.83 229.73 237.95 258.67 237.95 316.35" fill="#f28e00"></polygon><polygon points="339.07 200.13 387.87 171.95 237.93 85.31 87.87 171.95 136.67 200.13 237.95 141.65 339.07 200.13" fill="#00e9fe"></polygon><polygon points="237.95 201.03 187.91 229.73 237.95 258.67 287.82 229.84 237.95 201.03" fill="#ffd104"></polygon></svg> 