<?xml version="1.0" encoding="UTF-8"?> <svg xmlns="http://www.w3.org/2000/svg" id="design" viewBox="0 0 500 500"><title>3d-icons-color-</title><polygon points="351.53 297.84 351.56 297.8 384.66 316.91 384.66 316.99 268.71 383.9 268.71 383.88 152.8 316.95 185.9 297.8 185.9 297.84 268.71 345.64 268.75 345.64 351.53 297.84" fill="#4a5fff"></polygon><polygon points="384.66 183.09 384.66 316.91 351.56 297.8 351.53 297.8 351.53 202.17 317.1 182.32 268.75 210.25 268.71 210.25 268.71 116.14 384.66 183.06 384.66 183.09" fill="#3c33ff"></polygon><polygon points="185.9 202.2 185.9 297.8 152.8 316.95 152.76 316.95 152.76 316.91 152.76 183.09 152.8 183.09 268.71 116.14 268.71 210.25 220.35 182.32 185.9 202.2" fill="#3023bd"></polygon><polygon points="384.72 316.95 384.66 316.91 384.66 183.09 384.69 183.09 418.71 163.41 418.71 336.61 268.71 423.19 268.71 383.9 384.66 316.99 384.72 316.95" fill="#3023bd"></polygon><polygon points="351.53 297.8 351.53 297.84 268.75 345.64 268.71 345.64 268.71 250 351.53 202.17 351.53 297.8" fill="#0089fa"></polygon><polygon points="268.71 383.9 268.71 423.19 118.71 336.61 118.71 163.41 152.76 183.06 152.76 183.09 152.76 316.91 152.76 316.95 152.8 316.95 268.71 383.88 268.71 383.9" fill="#3c33ff"></polygon><polygon points="268.71 250 268.71 345.64 185.9 297.84 185.9 297.8 185.9 202.2 268.71 250" fill="#00adff"></polygon><polygon points="268.71 210.25 268.75 210.25 317.1 182.32 351.53 202.17 268.71 250 185.9 202.2 220.35 182.32 268.71 210.25" fill="#00e9fe"></polygon><polygon points="384.66 183.06 268.71 116.14 152.8 183.09 152.76 183.06 118.71 163.41 268.71 76.81 418.71 163.41 384.69 183.09 384.66 183.06" fill="#4a5fff"></polygon></svg> 