<?xml version="1.0" encoding="UTF-8"?> <svg xmlns="http://www.w3.org/2000/svg" id="design" viewBox="0 0 500 500"><title>3d-icons-color-</title><polygon points="300.28 119.38 300.28 119.35 300.28 119.32 237.85 83.31 175.46 119.32 175.46 119.38 237.85 155.43 300.28 119.38" fill="#ffd104"></polygon><polygon points="325.41 307.02 325.41 307.05 325.41 379.12 325.43 379.15 387.87 343.13 387.87 271.04 387.81 271.01 325.41 307.02" fill="#80cc27"></polygon><polygon points="87.87 271.04 87.87 343.13 150.26 379.15 150.33 379.12 150.33 307.05 87.93 271.01 87.87 271.04" fill="#cc226f"></polygon><polygon points="87.87 169.9 87.87 241.98 175.48 292.56 175.46 292.56 175.46 393.71 237.85 429.72 237.85 256.51 87.87 169.9" fill="#9b37ff"></polygon><polygon points="387.87 169.9 237.85 256.51 237.85 429.72 300.28 393.68 300.28 292.54 387.87 241.95 387.87 169.9" fill="#7226ba"></polygon><polygon points="325.43 133.85 237.85 184.44 237.85 184.43 150.26 133.88 87.87 169.9 237.85 256.51 387.87 169.9 325.43 133.85" fill="#b770ff"></polygon><polygon points="300.28 292.52 300.28 292.56 325.37 307.05 325.41 307.05 325.41 307.02 387.81 271.01 362.71 256.51 300.28 292.52" fill="#b2ff59"></polygon><polygon points="113.03 256.51 87.93 271.01 150.33 307.05 175.46 292.56 113.03 256.51" fill="#ff2d8b"></polygon><polygon points="237.85 155.46 237.85 184.43 300.28 148.37 300.28 119.38 237.85 155.43 237.85 155.46" fill="#f28e00"></polygon><polygon points="175.46 148.37 175.46 148.41 237.85 184.43 237.85 155.46 237.85 155.43 175.46 119.38 175.46 148.37" fill="#ffb404"></polygon><polygon points="150.33 307.05 150.33 379.12 175.46 364.62 175.46 292.56 150.33 307.05" fill="#b01d5f"></polygon><polygon points="300.28 292.56 300.28 364.62 325.41 379.12 325.41 307.05 325.37 307.05 300.28 292.56" fill="#94f029"></polygon></svg> 