<?xml version="1.0" encoding="UTF-8"?> <svg xmlns="http://www.w3.org/2000/svg" id="design" viewBox="0 0 500 500"><title>3d-icons-color-</title><polygon points="250 249.98 250 250.02 128.69 320.05 128.69 218.22 183.75 249.98 183.75 249.98 216.87 230.87 216.87 192.64 161.81 160.87 250 109.92 250 249.98" fill="#3c33ff"></polygon><polygon points="250 326.57 216.87 307.39 216.87 307.36 250 288.25 283.13 307.39 250 326.57" fill="#e169ff"></polygon><polygon points="183.68 211.72 216.87 192.64 216.87 230.87 183.75 249.98 183.68 211.72" fill="#da42ff"></polygon><polygon points="316.32 211.72 316.25 250.02 371.31 218.22 371.31 320.01 371.31 320.05 283.13 370.93 283.13 307.39 250 326.57 250 423.2 400 336.62 400 163.39 316.32 211.72" fill="#c736eb"></polygon><polygon points="316.32 211.72 316.25 250.02 283.13 230.87 283.13 192.64 316.32 211.72" fill="#da42ff"></polygon><polygon points="316.25 250.02 371.31 218.22 371.31 320.01 371.31 320.05 250 250.02 250 249.98 250 109.92 338.19 160.84 283.13 192.6 283.13 192.64 283.13 230.87 316.25 250.02" fill="#3023bd"></polygon><polygon points="216.87 307.39 216.87 370.93 128.69 320.05 128.69 218.22 183.75 249.98 183.68 211.72 100 163.39 100 336.62 250 423.2 250 326.57 216.87 307.39" fill="#b130d1"></polygon><polygon points="283.13 307.39 250 288.25 216.87 307.36 216.87 307.39 216.87 370.93 128.69 320.05 250 250.02 371.31 320.05 283.13 370.93 283.13 307.39" fill="#4a5fff"></polygon><polygon points="316.32 211.72 283.13 192.64 283.13 192.6 338.19 160.84 250 109.92 161.81 160.87 216.87 192.64 183.68 211.72 100 163.39 250 76.8 400 163.39 316.32 211.72" fill="#e169ff"></polygon></svg> 