<?xml version="1.0" encoding="UTF-8"?> <svg xmlns="http://www.w3.org/2000/svg" id="Layer_1" data-name="Layer 1" viewBox="0 0 500 500"><title>babylon-js-for-light-bg</title><path d="M152.77,224.9h8.5v19c1.51-2.54,4.52-5,10.48-5,9.32,0,14.39,7.67,14.39,17.75,0,10.34-5.27,19.11-15.35,19.11-5.34,0-7.88-1.78-9.59-4.59a26.54,26.54,0,0,1-.34,3.77h-8.15c.06-3.84.06-7.74.06-11.65Zm16.52,21c-6.17,0-8.43,4.11-8.43,11.65,0,6.44,2,11.44,8.29,11.44,5.34,0,8.29-4.8,8.29-12.06C177.44,250.46,174.84,245.87,169.29,245.87Z" fill="#bb464b"></path><path d="M220.81,266.36a69.71,69.71,0,0,0,.48,8.63h-8.15a17.43,17.43,0,0,1-.55-3.84c-1.23,2.12-3.77,4.66-10.21,4.66-8.43,0-12-5.55-12-11,0-8,6.37-11.65,16.72-11.65h5.33v-2.4c0-2.73-.89-5.62-6.17-5.62-4.66,0-5.62,2.13-6.1,4.73H192c.48-5.75,4.11-11,14.6-11,9.18.07,14.18,3.7,14.18,11.92Zm-8.29-7.82h-4.59c-6.26,0-9,1.85-9,5.82,0,2.88,1.92,5.21,5.69,5.21,7,0,7.87-4.8,7.87-10Z" fill="#bb464b"></path><path d="M228.48,224.9H237v19c1.51-2.54,4.52-5,10.48-5,9.32,0,14.39,7.67,14.39,17.75,0,10.34-5.27,19.11-15.35,19.11-5.34,0-7.88-1.78-9.59-4.59a26.54,26.54,0,0,1-.34,3.77h-8.15c.06-3.84.06-7.74.06-11.65Zm16.52,21c-6.17,0-8.43,4.11-8.43,11.65,0,6.44,2,11.44,8.29,11.44,5.35,0,8.29-4.8,8.29-12.06C253.15,250.46,250.55,245.87,245,245.87Z" fill="#bb464b"></path><path d="M272.54,239.77c4.39,13.77,7.54,24,8.21,27.48h.09c.89-3.7,3.08-11.65,7.81-27.48h8.5L285,276.22c-3.44,10.21-6.19,13.11-14.2,13.11a36.24,36.24,0,0,1-4.3-.28v-7c.75.07,1.78.13,2.67.13,3.83,0,5.62-1.44,7.19-6l-12.95-36.39Z" fill="#bb464b"></path><path d="M300.91,275V224.9h8.49V275Z" fill="#bb464b"></path><path d="M349.62,257.31c0,10.49-6.16,18.5-17.19,18.5-10.69,0-16.93-7.82-16.93-18.37s6.38-18.5,17.34-18.5C343.05,239,349.62,246.28,349.62,257.31Zm-25.49.07c0,7.12,3.22,11.65,8.5,11.65s8.29-4.46,8.29-11.58c0-7.61-2.95-11.73-8.43-11.73C327.29,245.73,324.13,249.71,324.13,257.38Z" fill="#bb464b"></path><path d="M355.79,248.61c0-3,0-6.17-.07-8.84h8.21a37,37,0,0,1,.34,4.93c1.24-2.46,4.11-5.75,10.48-5.75,6.93,0,11.73,4.52,11.73,13.56V275H378v-21.5c0-4.38-1.57-7.54-6.26-7.54-5,0-7.47,3.23-7.47,9.74V275h-8.47Z" fill="#bb464b"></path><path d="M394.57,275V263.61h9.11V275Z" fill="#bb464b"></path><path d="M417.73,240.53v36.31c0,9.38-2.26,12.54-9,12.54-.27,0-1.64-.07-2.12-.14v-4.11a9.72,9.72,0,0,0,1.43.07c4.6,0,5.09-2.47,5.09-7.68v-37Zm-4.59-8.92v-7.05h4.59v7.05Z" fill="#bb464b"></path><path d="M428.14,265.33c1.1,4.11,4.11,6.64,9.18,6.64,5.62,0,7.88-2.53,7.88-6.09s-1.56-5.35-8.77-7.06c-9.38-2.26-11.51-5.14-11.51-9.73,0-4.8,3.63-9.38,11.85-9.38s12,4.93,12.54,9.8h-4.52c-.55-2.61-2.6-6-8.15-6s-7.06,2.67-7.06,5.2c0,2.88,1.51,4.32,8.08,5.9C447.74,257,450,260.4,450,265.54c0,6.17-4.93,10.28-12.81,10.28-8.36,0-12.75-4.32-13.64-10.48Z" fill="#bb464b"></path><path d="M93.32,200,50,225v50l43.32,25,43.33-25V225Z" fill="#fff"></path><polygon points="136.65 224.99 123.09 217.16 110.05 224.69 123.6 232.52 136.65 224.99" fill="#e0684b"></polygon><polygon points="63.05 232.52 106.37 207.5 93.33 199.97 50 224.99 63.05 232.52" fill="#e0684b"></polygon><polygon points="79.77 257.83 93.33 265.66 106.89 257.83 93.33 250 79.77 257.83" fill="#e0684b"></polygon><polygon points="123.6 232.52 123.6 267.48 93.33 284.96 63.05 267.48 63.05 232.52 50 224.99 50 275.01 93.33 300.02 136.65 275.01 136.65 224.99 123.6 232.52" fill="#bb464b"></polygon><polygon points="93.33 234.34 79.77 242.17 79.77 257.83 93.33 250 106.89 257.83 106.89 242.17 93.33 234.34" fill="#bb464b"></polygon><polygon points="123.6 232.52 106.89 242.17 106.89 257.83 93.33 265.66 93.33 284.96 123.6 267.48 123.6 232.52" fill="#e0ded8"></polygon><polygon points="63.05 232.52 79.77 242.17 79.77 257.83 93.33 265.66 93.33 284.96 63.05 267.48 63.05 232.52" fill="#d5d2ca"></polygon><polygon points="106.37 207.5 123.09 217.16 110.05 224.69 123.6 232.52 106.89 242.17 93.33 234.34 79.77 242.17 63.05 232.52 106.37 207.5" fill="#fff"></polygon></svg> 