<?xml version="1.0" encoding="UTF-8"?> <svg xmlns="http://www.w3.org/2000/svg" id="Layer_1" data-name="Layer 1" viewBox="0 0 500 500"><title>CasAndChary_black</title><path d="M269.7,39.41c4.49,1.64,9.28,1.44,13.92,2.17,33.08,5.18,61.68,19.44,86,42.31s37.93,51.34,43.25,84c7.57,46.34-5.4,87.48-32.16,125a53.87,53.87,0,0,1-7.15,8.86c-.52.48-.92,1.26-2.1,1A30,30,0,0,1,374.7,294c8-15.9,16.37-31.74,19.46-49.44,2.74-15.74,2.84-31.78,2.81-47.76,0-26.61-7.26-51.59-19.27-74.9a190.46,190.46,0,0,0-35.46-48.15c-14-13.85-31.63-21.44-50.6-25.94a155.47,155.47,0,0,0-47.9-3.48c-.17,0-.35-.23-.73-.5,4.17-2.23,9-2.2,13-4.46Z" fill="#0c0d0d"></path><path d="M50.36,433.93c2.75-3.66,5.25-7.47,9-10.36,6-4.69,13-7.61,19.47-11.45,2.13-1.27,8.35,2.38,9.54,5.18s-.85,6.61-4.59,7.56c-5.47,1.39-10.26,4-14.94,6.93-3.42,2.12-6.74,4.46-8.35,8.44-1.12,2.77-.39,4.54,2.56,5.38,5.78,1.64,11.76,1.58,17.68,1.82,3.67.14,5.1,2.38,6.1,5.17.53,1.49-3.36,5.19-5.6,5.34-5.16.35-10.27.46-15.42-.79-7.45-1.81-12.87-5.49-14.7-13.33-.06-.29-.46-.5-.71-.75Z" fill="#0c0d0d"></path><path d="M409.83,460.59c-2.21-1.73-5-2-7.51-3.11a26.48,26.48,0,0,1-8.49-5.28c-1,.35-.79,1.1-1,1.62-1,2.42-1.7,5.29-5.12,5-2.13-.18-4.26-4.61-3.67-7.55,1.28-6.42,2.69-12.81,4.13-19.2.34-1.5.36-3.44,3.09-2.3,1.57.66,2.29-1.27,3.07-2.29,1.71-2.19,3.15-4.61,5.28-6.44s4.38-2.3,7.07-.3A21.33,21.33,0,0,1,415,434.22c.75,3.76-1.53,6.35-4.65,7.89s-6.73,2.75-10.31,4.17c3.83,3.62,8.58,4.27,13.2,5.21,2,.39,4.16.3,4.81,2.87a5.65,5.65,0,0,1-2.13,6.23Zm-12.74-22.94c3,.06,5.38-1.54,7.94-2.47,1.82-.66.63-1.93.13-2.76-.65-1.1-1.65-2.87-3-1.7C400,432.52,397.62,434.36,397.09,437.65Z" fill="#0c0d0d"></path><path d="M422.78,460.59c-4.3-4.78-4.42-4.85-1-11.11,2.35-4.28,4.3-8,1-13.09-2.57-4-2.07-9.23-2.57-13.95-.29-2.68,1.35-3.44,3.89-2.4,3,1.24,5,3.18,5.33,6.61.2,1.92.77,3.81,1.27,6.23,3.53-3.63,5.48-7.8,8.79-10.89,3.8-3.56,5.62-3.73,9.13,0a3,3,0,0,1-.27,4.68c-9.28,8.38-14.11,19.71-20.19,30.21-.73,1.27-1.58,2.47-2.37,3.7Z" fill="#0c0d0d"></path><path d="M199.2,188.43c-3.71,8.3-6.79,16-4.95,24.7,1.6,7.53,5.88,12.52,13.39,14.35s13.31,5.91,16.45,12.84c6.45,14.24,15.69,26.8,23.47,40.24a94.64,94.64,0,0,0,8.72,12.86c3.74,4.54,4,9.12,1.6,14.42-6.29,13.67-14.25,26.45-21,39.85-1.47,2.9-3,5.76-4.83,9.16,4.78,0,9.11,0,13.44,0,1.54,0,1.81-1.43,1.9-2.47,1.2-13.87,8.36-25.32,15.25-36.78,6.35-10.58,5.23-20.69-.66-30.8a68.11,68.11,0,0,0-5.63-8.1c-4.47-5.64-7.22-12.11-9.53-18.92-2.85,1-3.32,4.18-5.78,5.8-5.05-7.68-7.82-16.25-10.1-25-2.15-8.28-2.56-16.74-2.46-25.26a8.43,8.43,0,0,1,1.84-5.23,32.45,32.45,0,0,1,17-11.47,10.27,10.27,0,0,1,7,.29,13.32,13.32,0,0,0,9.27.58c7.89-2.44,10.38-11.33,4.54-17.11-1.84-1.82-2.54-3.27-1-5.51,1.69-2.49.44-4.19-1.64-5.7-3.2-2.31-3.18-2.34-3.55-5.95-2.17,2.72-3.87,5-.59,7.81,1.51,1.31,1,3.07.2,4.56-1.52,2.95-.62,5.28,1.4,7.58,3.13,3.57,3.17,5.3.44,8.18-4.53,4.78-8.06,5.87-11.37,3-1.65-1.45-2.25-1.28-3.74.1-3.59,3.32-7.16,2-9-2.54-1.17-2.85-3-5.54-6.94-5.22a27.78,27.78,0,0,1-4.18,0c-5-.33-7.46-2.59-8.74-7.45-1.35-5.13-.62-10.1,1.09-14.93.81-2.31-.18-4.24-.24-6.25-.1-3.08-1.75-3.56-3.66-4.69-8.09-4.78-9.09-20.34-1.68-27.57a16.48,16.48,0,0,0,3.78-5.36c.63-1.43.85-2.1-.47-3.05-4.1-2.95-4.09-7-2.7-11.23,3.37-10.28,11.85-15.43,22.77-13.56,2.6.45,3.52,0,4.55-2.54,3.73-9.4,14.38-11.5,21.37-4.47,1.11,1.11,6.06.88,7.27-.38,1-1,1.78-2.16,2.81-3.09,3.75-3.34,7.2-2.7,9.61,1.69,2.11,3.85,4.92,4,7.51.47,5.34-7.32,12.55-7.32,18.11-.26,1.88,2.38,4.55,3.81,7.75,2a5.58,5.58,0,0,1,6.95.82c5.49,4.69,6.25,8.5,3.91,14.88a5.84,5.84,0,0,0,2.3,6.52c5.18,3.31,7,8.22,5.82,14.23-.53,2.86-1.18,6.35,2,8.95a8.24,8.24,0,0,1,2.62,9c-1,3.52-2.35,6.93-3.43,10.43-.93,3-1.87,5.82,1.46,8.39a5.87,5.87,0,0,1,0,9c-3.29,3-6.81,5.68-10.36,8.34-1.46,1.09-2.21,1.77-1.47,3.9,2,5.87-4.58,12.84-10.59,11.28-2-.5-3.75-1.27-5.68.13a2.62,2.62,0,0,1-2.17-.15c-4-1.89-5.91-9-3.48-12.68a35,35,0,0,1,3.89-5.61c5.66-5.71,7.13-12.65,6.37-20.3a4.19,4.19,0,0,1,2.47-4.76,8.67,8.67,0,0,0,4.52-8.22c-.1-4.4-2.17-6.63-6.58-6.45-12.91.5-25.85.53-38.71,2-3.48.39-7.35.85-8.18,5.36-.91,4.89,2,8.07,7.39,8.18,6.6.14,13.2.1,19.8.13h6.09c9.09,0,9.13,0,8.6,9.28a20.52,20.52,0,0,1-2.84,9.73,111.07,111.07,0,0,0-6,10.55c-1.64,3.53-4,4.73-7.6,3.57s-4.42.12-4.15,3.55c.45,5.73,2.32,8.49,7.83,10.35,4.18,1.41,8.4,2.71,12.61,4,7.18,2.27,10.1,6.17,10.16,13.65,0,1.91,0,3.81-.11,5.71A15.77,15.77,0,0,0,325,234c2.64,2.91,5.14,5.94,7.74,8.9,7.21,8.2,8.76,17.76,3.23,27.24-4.62,7.91-5,16.51-5.92,25.08-1.19,11.26,3,21.34,7.54,31.3,2.72,5.93,2.17,7.36-3.17,10.95a184.17,184.17,0,0,1-82.18,30.78c-37.45,4.44-73-1.68-106.1-20.48-5.66-3.22-6.29-5-3.85-11.05a6.42,6.42,0,0,1,.53-1.41c7.43-9.88,3.86-20.2,1.26-30.49,0-.12-.07-.24-.09-.36a35.59,35.59,0,0,0-9.09-19.56c-5.35-5.89-3.57-16.4,1.9-22.36,2.24-2.44,4.74-4.95,5.56-8.06,1.73-6.63,5.88-8.33,12.14-7.84,5.65.44,9.61-2.88,10.89-8.47a30.34,30.34,0,0,0,.32-12.83c-.36-1.76-.37-3.44.81-4.66,3.62-3.76,3.71-8.09,2.5-12.79-1.48-.12-2.52.95-3.74,1.48-2.36,1-4.76,1.23-6.92-.11-7.9-4.91-15.16-10.38-15.7-20.83-.08-1.63-.61-2-2.21-2.16-3.1-.3-6.33-.23-9.13-2.09-3.51-2.33-5.94-5.35-5.35-9.72s3.84-6.17,7.82-7.17c1.45-.37,3.65.2,4.19-1.76a24.34,24.34,0,0,0,.65-9c-.09-.79-1.05-.47-1.62-.56-1.31-.2-1.29-.44-.1-.93.29-.12.7-.64.64-.81-3.13-8.07,1.84-9.91,8.2-11.45,2.5-.61,4.67-3,6.78-4.76,7.92-6.77,17.22-7.43,26.89-6.08,17.19,2.41,25,13.85,28.64,29.6,1.86,8.17,1.92,16.38,1.43,24.58a35.08,35.08,0,0,0,7.61,24.36c4.54,5.93,8.35,12.39,9.65,19.94.49,2.8,1,5.66.47,8.73-1.73-.77-2.34-2.22-3.13-3.4a27.57,27.57,0,0,0-13.21-10.38c-8.5-3.42-12.79-9.9-12.86-19.08,0-4.44-.09-8.87,1.5-13.14A6.31,6.31,0,0,0,199.2,188.43Zm-12-25.34-1-.93c-.46.69-.15,1.14.46,1.5.38,1.07.71,2.15,1.14,3.19,3.24,7.79,3.36,15.42-1,22.9-1.78,3.05-3.34,6.22-5,9.33-5.42,10-4.3,21,3,29.95,1.94,2.35,3.87,4.71,5.73,7.11,5.25,6.79,5.2,14.12-.11,20.88a65.31,65.31,0,0,0-7.78,12.08c-3.53,7.39-3,14.51,1.91,22.25-.15-3.25-.45-5.57-.33-7.87.42-8.44,5.49-14.74,10.06-21.24a17.13,17.13,0,0,0,3.18-5.94c2.08-8.87-.27-16.3-6.22-23.13-9.71-11.13-11-24.76-4.17-37.7,1.06-2,1.86-4.14,2.94-6.12C195.09,179.93,192.73,171.35,187.15,163.09Zm30.64,119c-4,10.22-8.34,19.3-11.2,28.93-2.38,8-1.16,15.73,3,23,3.55,6.26,3.52,6.3,10.23,3.65,1.83-.72,3.88-1.12,4.21-3.74a88.77,88.77,0,0,1,6.51-24.38c.76-1.75,1.84-3.82.68-5.83C227.08,296.66,223.07,289.52,217.79,282.08Zm-76.59-98c4.63-.51,9.54-1,14.42-1.59,6.63-.87,13.3-1.55,19.68-3.71,3.41-1.16,4.48-3.89,4.22-7.18-.26-3.51-2.66-4.69-5.8-4.58-11.25.38-22.5.71-33.74,1.32-5.13.29-8.41,4.13-8.1,8.67S135.38,184.16,141.2,184.11ZM260,158.46c2.84-6.23,1.53-12.07-2.88-14.55-3.53-2-7.55-.77-10.13,3.05-2.89,4.3-2,11.08,1.85,14.13,3,2.34,5.91,2.21,8.43-.41-2.25-.7-5.46-1.05-4.15-4.4a41.4,41.4,0,0,0,2.62-10.68A27.17,27.17,0,0,1,260,158.46Zm-77.75,19.43c2.59-1.55,4.38-3.39,4.06-5.89s-1.95-4.53-5.5-5.35C182.87,170.37,181.86,173.92,182.25,177.89ZM266.51,149c-1.08-3.66.14-7,1-11.16-2.91,1.71-4.49,3.49-4.76,6.16S264.09,148,266.51,149Z" fill="#141313"></path><path d="M107.24,315.87C90.43,296.17,78.8,273.94,74,248.47c-10.75-57.22,6.18-106.36,44.42-149,15-16.78,33.11-29.7,53.22-39.78,1.07-.53,2-1.62,3.88-.89-10.06,6.42-18.94,13.91-28,21.24-16.31,13.25-31,27.92-42.91,45.39-10.82,15.84-16.6,33.3-19.28,52.06-1.74,12.17-3.21,24.36-3,36.69.36,19.39,4.77,38.07,10.11,56.57,4.2,14.53,8.75,29,14.73,42.87C107.52,314.29,108,315,107.24,315.87Z" fill="#0c0d0d"></path><path d="M291.25,458.37c-6.13-.78-12.29-1.62-17.52-5.81-4.66-3.73-7.3-14.94-4.21-20.23a33.11,33.11,0,0,1,13-12.3c4.28-2.39,8.65-4.64,12.84-7.18a5.23,5.23,0,0,1,6.79.66c1.83,1.62,4.84,2.65,4.23,6.06a6.76,6.76,0,0,1-5.49,5.62c-7,1.65-12.91,5.48-18.49,9.8a11.21,11.21,0,0,0-4.13,5.26c-1,2.8-.32,4.55,2.63,5.37,5.8,1.62,11.78,1.57,17.7,1.81,3.68.15,5.09,2.41,6.06,5.21.52,1.5-3.43,5-5.66,5.32-.25,0-.51,0-.76,0Z" fill="#0c0d0d"></path><path d="M329.91,450.61c1.36-3-.66-2.73-2.51-2-3.83,1.46-7.76,2.7-9.52,7.21a5.15,5.15,0,0,1-6.82,3.17c-2.62-.88-4.12-5-3.19-7.9,2.44-7.67,4.53-15.42,5.14-23.49a16.16,16.16,0,0,1,.95-4c.42-1.19,1-2.5,2.42-2.72,1.6-.24,1.21,1.62,2,2.33,4.73,4.19,4,9.36,2.55,14.65-.66,2.44-.44,4.12,2.78,3,.23-.08.51,0,.75-.09,10.62-2.84,8.48-.55,10.07-11.24.44-3,0-6.37,1.93-9.08,1.13-1.59,1.87-2.19,3.47.11,6.3,9.06,4.49,18.13.65,27.31a6.94,6.94,0,0,0-.82,3.23c.26,4.49-1.95,7.56-5.32,7.52C332,458.51,329.55,454.43,329.91,450.61Z" fill="#0c0d0d"></path><path d="M110.81,453.37l2.51-1a1.85,1.85,0,0,0,1.16-2.44c-.38-1.13-1.46-.73-2.29-.55-1.48.33-2.92.83-4.41,1.09-3.67.64-4.36.21-6-3.48-2.45,1.95-3.19,4.82-3.88,7.58-.78,3.07-2.63,4.62-5.6,4.17-2.48-.37-4.25-4.42-3-7.08,3.49-7.82,7.2-15.53,10.85-23.27.21-.45.52-1.14.86-1.19,4.4-.67,6.71-3.9,9.34-7,1.36-1.6,7.13,2,7.61,4.57.71,3.84,1.28,7.72,2.07,11.55.3,1.45.31,3.1,3,2.86a4.83,4.83,0,0,1,4.34,3c.42,1.35-1.22,2.74-2.58,3.41-1.86.93-1.57,2.33-1.3,3.85.7,3.88-1.13,6.61-4.17,8.63-2.86,1.91-4.89,1.2-6.54-1.93A28.74,28.74,0,0,0,110.81,453.37Zm-6.76-11.28c8.9-.63,8.9-.63,5.69-8.26A31.67,31.67,0,0,0,104.05,442.09Z" fill="#0c0d0d"></path><path d="M366.58,453.33c1-.35,1.69-.64,2.41-.85a1.92,1.92,0,0,0,1.46-2.32c-.3-1.44-1.55-1-2.49-.75-1.48.32-2.93.83-4.41,1.08-2.76.47-5.15.13-5.65-3.53-2.64,1.91-3.19,4.74-4,7.37-1,3.22-3.54,5.24-5.78,4.44-2.42-.88-4.1-4.53-2.89-7.24,3.45-7.7,7.1-15.3,10.71-22.92.48-1,1.12-2.22,2.39-2.21,3.14,0,4.57-2.3,6.35-4.24.8-.88.89-2.89,2.92-2,2.37,1,5.75.48,6.25,4.37s1.21,7.73,2,11.56c.32,1.58.39,3.36,3.18,3.14,1.36-.11,3.55,1.45,4.14,2.79.67,1.51-1.19,2.94-2.61,3.67-1.93,1-1.41,2.47-1.17,3.9.63,3.75-1.15,6.38-4,8.39s-5,1.37-6.8-1.93A22.63,22.63,0,0,0,366.58,453.33Zm-.66-19.85a28.27,28.27,0,0,0-5.82,8.6C368.07,441.53,368.07,441.53,365.92,433.48Z" fill="#0c0d0d"></path><path d="M141.67,431.14a16.23,16.23,0,0,1,10,8.12c2.13,3.88,2.72,7.38-.05,10.88a23.09,23.09,0,0,1-18,9.08c-3.84.13-3.66-2.59-4-5.11s.63-3.38,3.35-3.55c4.89-.31,9.1-2.64,12.79-5.9,1.81-1.6,1.45-2.51-.61-3.54-3.74-1.86-7.84-1.75-11.78-2.5-2.73-.52-5.39-1.27-5.95-4.34-.63-3.44.08-6.83,3.69-8.31,7.46-3.07,14.9-6.42,23.19-6.62,4.88-.12,8.08,2.06,9.12,6.71.64,2.82-1.45,3.06-3.78,3C154,428.94,148.19,428.25,141.67,431.14Z" fill="#0c0d0d"></path><path d="M163.12,230c.15,8-4.64,13.05-12.56,12.77a12.45,12.45,0,0,0-7.43,2.25c-4.55,2.88-8.34,1.34-9.84-3.89a12,12,0,0,1,6.33-14.56c.67-.34,1.66-.71,1.83-1.27,1.77-5.85,7.73-6,11.79-8.62,2.85-1.84,5.75-.73,7.33,2.33A23.88,23.88,0,0,1,163.12,230Z" fill="#141313"></path><path d="M216.35,432.89c-1.23,1.74-2.3,3.24-2.63,5.13a3.06,3.06,0,0,1-2.6,2.83c-1.82.27-2.32-1.28-3-2.44a7.48,7.48,0,0,1-.25-7.81c2.4-4.44,4.34-9.13,6.73-13.56.73-1.34.27-4.34,3.24-3.5,3.34.95,5.23,4,4.26,6.9a23.67,23.67,0,0,0-1,8.59c0,.7-.27,1.69.7,1.91s1.37-.57,1.8-1.19a16.34,16.34,0,0,0,2.7-6.61,50.37,50.37,0,0,1,2.07-8.41c.65-1.84.95-2.28,2.71-1.1,3,2,4.67,3.88,2.38,7.71-1.16,1.93-1.17,4.61-1.44,7a16.37,16.37,0,0,1-4.11,9.15c-3.06,3.5-5,3.66-8,.29A56.17,56.17,0,0,1,216.35,432.89Z" fill="#0c0d0d"></path><path d="M196.12,434.6c-2.31.08-5,2-7-1.3-.34-.57-1.07.35-1.29.88a34.29,34.29,0,0,0-1.44,3.89c-.61,2.12-1.95,3.44-4.11,2.85a3.3,3.3,0,0,1-2.29-4.53c2.44-5.8,4.79-11.72,8.09-17,1.52-2.45,5.27-3.34,7.44-5.9.54-.64,4.29-.28,5,2.53a46.69,46.69,0,0,1,1.16,5.93c.31,2.85.84,5.22,4.28,5.92,2.09.43,2.1,2,.47,3.17a3.56,3.56,0,0,0-1.66,4c.47,3.25-1.7,5.17-4.49,6.2-2,.76-2.65-1-3.6-2.37s-.82-1.83.63-2.35a1.17,1.17,0,0,0,.83-1.49C197.77,433.94,197,434.4,196.12,434.6ZM195,422.78c-1.73,2.34-3.31,3.91-3.9,6.25a14.55,14.55,0,0,0,5.34-.81Z" fill="#0c0d0d"></path><path d="M256.26,427.34c.08,3.42-1.58,5.14-3.47,6.68-4.18,3.41-9.31,4.92-14.14,7-1.83.8-2.63-.34-3.23-1.59a7.65,7.65,0,0,1-.26-5.86c1.36-4.3,2.53-8.62,1.27-13.3-.5-1.87.16-4.07.39-6.1.07-.64.06-1.66,1.31-1.17,6.45,2.52,13.2,4.59,17,11.1A15.27,15.27,0,0,1,256.26,427.34Zm-14.9,5.31c3.36-.67,5.87-2.34,8.41-3.89,1.87-1.15,2.08-2.43.3-4.18-2.45-2.4-5.39-3.47-8.81-4.37A40.55,40.55,0,0,1,241.36,432.65Z" fill="#0c0d0d"></path><path d="M276.35,139.9l39.07-1.46c1,0,2.39-.3,2.62.9.3,1.53-1.37,1.81-2.32,1.88q-6.63.48-13.28.56A135.84,135.84,0,0,1,276.35,139.9Z" fill="#141313"></path><path d="M186.57,163.66c-.61-.36-.92-.81-.46-1.5l1,.93Z" fill="#fdfdfd"></path><path d="M172.63,170.46c-9.6,1.41-19.89,3.32-30.41,3.11-1.24,0-2.55.2-3.68-.57-.61-.42-1.41-.86-1.29-1.72.14-1.06,1.13-.8,1.81-.8C150.54,170.45,162,170.46,172.63,170.46Z" fill="#141313"></path></svg> 