<?xml version="1.0" encoding="UTF-8"?> <svg xmlns="http://www.w3.org/2000/svg" id="Capa_1" data-name="Capa 1" viewBox="0 0 500 500"><title>code</title><path d="M201.72,229.11,162,268.8a12.24,12.24,0,0,0,0,17.32l38.38,38.39a12.25,12.25,0,1,0,17.33-17.33L188,277.46l31.05-31a12.25,12.25,0,0,0-17.34-17.32Z"></path><path d="M280.94,246.45l31.06,31-29.73,29.72a12.26,12.26,0,0,0,17.34,17.33L338,286.13a12.26,12.26,0,0,0,0-17.34l-39.7-39.68a12.26,12.26,0,0,0-17.35,17.34Z"></path><path d="M225.14,358a8.94,8.94,0,0,0,2.4.36,8.18,8.18,0,0,0,7.8-5.79l44.91-146.7a8.16,8.16,0,1,0-15.61-4.79L219.71,347.76A8.21,8.21,0,0,0,225.14,358Z"></path><path d="M205.1,95.37,125,179.92V404.63H375V95.37ZM198,130.93V168.4H162.55ZM355.65,385.31H144.33V187.73h73v-73H355.65Z"></path></svg> 