<?xml version="1.0" encoding="UTF-8"?> <svg xmlns="http://www.w3.org/2000/svg" xmlns:xlink="http://www.w3.org/1999/xlink" id="Layer_1" data-name="Layer 1" viewBox="0 0 413.83 459.91"><defs><clipPath id="clip-path" transform="translate(-43.68 -20.18)"><rect x="43.68" y="20.18" width="413.83" height="459.91" fill="none"></rect></clipPath></defs><title>firefox-reality</title><polygon points="189.4 133.34 203.63 126.59 219.53 131.82 189.4 133.34" fill="#5e7fbf"></polygon><polygon points="173.79 131.46 189.4 133.34 203.63 126.59 173.79 131.46" fill="#607fbf"></polygon><polygon points="160.22 141.18 173.79 131.46 143.74 143.8 160.22 141.18" fill="#5c72b7"></polygon><polygon points="251.03 137.41 236.51 129.21 219.53 131.82 251.03 137.41" fill="#5678bb"></polygon><polygon points="267.72 140.21 251.03 137.41 236.51 129.21 267.72 140.21" fill="#597ebf"></polygon><polygon points="236.51 129.21 203.63 126.59 219.53 131.82 236.51 129.21" fill="#6084c3"></polygon><polygon points="160.22 141.18 189.4 133.34 173.79 131.46 160.22 141.18" fill="#5971b6"></polygon><polygon points="262.56 151.08 251.03 137.41 235.05 144.57 262.56 151.08" fill="#506eb4"></polygon><polygon points="206.14 143.47 219.53 131.82 235.05 144.57 206.14 143.47" fill="#5573b8"></polygon><polygon points="189.4 133.34 206.14 143.47 176.82 147.93 189.4 133.34" fill="#5670b6"></polygon><polygon points="160.22 141.18 176.82 147.93 189.4 133.34 160.22 141.18" fill="#576cb3"></polygon><polygon points="149.67 158 160.22 141.18 176.82 147.93 149.67 158" fill="#5668b1"></polygon><polygon points="280.74 152.49 262.56 151.08 251.03 137.41 280.74 152.49" fill="#5171b7"></polygon><polygon points="224.83 161 235.05 144.57 206.14 143.47 224.83 161" fill="#546fb5"></polygon><polygon points="194.21 163.01 206.14 143.47 224.83 161 194.21 163.01" fill="#556eb4"></polygon><polygon points="176.82 147.93 194.21 163.01 206.14 143.47 176.82 147.93" fill="#566db4"></polygon><polygon points="164.6 170.37 176.82 147.93 194.21 163.01 164.6 170.37" fill="#5667b0"></polygon><polygon points="149.67 158 164.6 170.37 176.82 147.93 149.67 158" fill="#5565af"></polygon><polygon points="255.84 164.66 235.05 144.57 262.56 151.08 255.84 164.66" fill="#506eb4"></polygon><polygon points="284.15 169.67 262.56 151.08 255.84 164.66 284.15 169.67" fill="#5375ba"></polygon><polygon points="224.83 161 255.84 164.66 235.05 144.57 224.83 161" fill="#566db4"></polygon><polygon points="246.42 183.2 255.84 164.66 224.83 161 246.42 183.2" fill="#5471b7"></polygon><polygon points="277.14 187.76 246.42 183.2 255.84 164.66 277.14 187.76" fill="#506eb5"></polygon><polygon points="213.35 181.85 224.83 161 246.42 183.2 213.35 181.85" fill="#526db4"></polygon><polygon points="194.21 163.01 213.35 181.85 224.83 161 194.21 163.01" fill="#546cb3"></polygon><polygon points="181.94 186.66 194.21 163.01 213.35 181.85 181.94 186.66" fill="#5267b0"></polygon><polygon points="235.05 205.15 246.42 183.2 213.35 181.85 235.05 205.15" fill="#5166af"></polygon><polygon points="201.03 206.55 213.35 181.85 235.05 205.15 201.03 206.55" fill="#5163ad"></polygon><polygon points="181.94 186.66 201.03 206.55 213.35 181.85 181.94 186.66" fill="#5362ad"></polygon><polygon points="168.71 215.87 181.94 186.66 201.03 206.55 168.71 215.87" fill="#535eaa"></polygon><polygon points="150.92 198.23 181.94 186.66 168.71 215.87 150.92 198.23" fill="#525ca9"></polygon><polygon points="139.29 229.1 168.71 215.87 159.49 248.59 139.29 229.1" fill="#504ca0"></polygon><polygon points="182.84 269.63 159.49 248.59 158.08 282.46 182.84 269.63" fill="#4c3c97"></polygon><polygon points="139.29 229.1 159.49 248.59 134.48 260.76 139.29 229.1" fill="#4e3f99"></polygon><polygon points="115.64 241.62 134.48 260.76 139.29 229.1 115.64 241.62" fill="#513996"></polygon><polygon points="134.48 260.76 158.08 282.46 159.49 248.59 134.48 260.76" fill="#4c3896"></polygon><polygon points="187.9 235.66 159.49 248.59 168.71 215.87 187.9 235.66" fill="#4e51a2"></polygon><polygon points="182.84 269.63 187.9 235.66 159.49 248.59 182.84 269.63" fill="#4e4b9f"></polygon><polygon points="213.7 285.47 182.84 269.63 186.34 301.1 213.7 285.47" fill="#4b3f99"></polygon><polygon points="158.08 282.46 186.34 301.1 182.84 269.63 158.08 282.46" fill="#4a3594"></polygon><polygon points="213.7 285.47 217.96 313.03 244.92 292.03 213.7 285.47" fill="#4a459c"></polygon><polygon points="209.09 256.46 213.7 285.47 182.84 269.63 209.09 256.46" fill="#4d4a9e"></polygon><polygon points="238.1 260.96 209.09 256.46 213.7 285.47 238.1 260.96" fill="#4e52a3"></polygon><polygon points="187.9 235.66 209.09 256.46 182.84 269.63 187.9 235.66" fill="#4f4ea1"></polygon><polygon points="244.92 292.03 238.1 260.96 213.7 285.47 244.92 292.03" fill="#4c50a2"></polygon><polygon points="190.1 328.86 217.96 313.03 186.34 301.1 190.1 328.86" fill="#452e88"></polygon><polygon points="213.7 285.47 217.96 313.03 186.34 301.1 213.7 285.47" fill="#483996"></polygon><polygon points="161.84 314.43 186.34 301.1 190.1 328.86 161.84 314.43" fill="#462d82"></polygon><polygon points="158.08 282.46 161.84 314.43 186.34 301.1 158.08 282.46" fill="#482e8b"></polygon><polygon points="134.98 294.19 158.08 282.46 161.84 314.43 134.98 294.19" fill="#452d80"></polygon><polygon points="117.65 303 134.98 294.19 113.94 272.24 117.65 303" fill="#472976"></polygon><polyline points="117.65 303 140.25 324.38 161.84 314.43" fill="none" stroke="#000" stroke-width="0.5"></polyline><polygon points="166.1 340.76 161.84 314.43 140.25 324.38 166.1 340.76" fill="#44266d"></polygon><polygon points="140.25 324.38 166.1 340.76 145.36 349.55 140.25 324.38" fill="#3e2467"></polygon><polygon points="123.49 332.49 140.25 324.38 145.36 349.55 123.49 332.49" fill="#3c2364"></polygon><polygon points="117.65 303 140.25 324.38 123.49 332.49 117.65 303" fill="#3e256a"></polygon><g clip-path="url(#clip-path)"><path d="M233.78,349c-.25,0-24,11.9-24,11.9l-4.26-26.33Z" transform="translate(-43.68 -20.18)" fill="#462870"></path><polygon points="194.36 352.11 190.1 328.86 166.1 340.76 194.36 352.11" fill="#41276c"></polygon><polygon points="171.81 363.08 194.36 352.11 166.1 340.76 171.81 363.08" fill="#3d2161"></polygon><polygon points="145.36 349.55 171.81 363.08 166.1 340.76 145.36 349.55" fill="#3d2162"></polygon><polygon points="224.72 357.97 194.36 352.11 199.62 370.97 224.72 357.97" fill="#3f2263"></polygon><polygon points="171.81 363.08 199.62 370.97 194.36 352.11 171.81 363.08" fill="#3d2060"></polygon><polygon points="226.75 373 224.72 357.97 199.62 370.97 226.75 373" fill="#3d205f"></polygon><polygon points="253.89 362.4 224.72 357.97 226.75 373 253.89 362.4" fill="#3e2669"></polygon><polygon points="252.76 342.71 253.89 362.4 224.72 357.97 252.76 342.71" fill="#3f2c7a"></polygon><polygon points="221.79 337.45 194.36 352.11 224.72 357.97 221.79 337.45" fill="#412970"></polygon><polygon points="190.1 328.86 221.79 337.45 194.36 352.11 190.1 328.86" fill="#442a76"></polygon><polygon points="217.96 313.03 221.79 337.45 190.1 328.86 217.96 313.03" fill="#452e88"></polygon><polygon points="249.45 319.26 217.96 313.03 221.79 337.45 249.45 319.26" fill="#462f90"></polygon><polygon points="252.76 342.71 221.79 337.45 224.72 357.97 252.76 342.71" fill="#422d7f"></polygon><polygon points="134.98 294.19 140.25 324.38 161.84 314.43 134.98 294.19" fill="#442872"></polygon><polygon points="117.65 303 134.98 294.19 140.25 324.38 117.65 303" fill="#452974"></polygon><polygon points="249.45 319.26 244.92 292.03 217.96 313.03 249.45 319.26" fill="#4a409a"></polygon><polygon points="252.76 342.71 249.45 319.26 221.79 337.45 252.76 342.71" fill="#432f8a"></polygon><polygon points="275.93 323.19 249.45 319.26 252.76 342.71 275.93 323.19" fill="#493896"></polygon><polygon points="278.34 345.99 252.76 342.71 253.89 362.4 278.34 345.99" fill="#3f2e82"></polygon><polygon points="296.8 344.87 278.34 345.99 253.89 362.4 296.8 344.87" fill="#3b2f85"></polygon><polygon points="275.93 323.19 278.34 345.99 252.76 342.71 275.93 323.19" fill="#413392"></polygon><polygon points="272.07 296.78 275.93 323.19 249.45 319.26 272.07 296.78" fill="#49499e"></polygon><polygon points="244.92 292.03 272.07 296.78 249.45 319.26 244.92 292.03" fill="#4b4b9f"></polygon><polygon points="265.81 265.55 238.1 260.96 244.92 292.03 265.81 265.55" fill="#4e55a5"></polygon><polygon points="272.07 296.78 265.81 265.55 244.92 292.03 272.07 296.78" fill="#4b54a5"></polygon><polygon points="290.38 269.32 265.81 265.55 272.07 296.78 290.38 269.32" fill="#4c59a7"></polygon><polygon points="295.28 299.83 272.07 296.78 275.93 323.19 295.28 299.83" fill="#4952a3"></polygon><polygon points="290.38 269.32 295.28 299.83 272.07 296.78 290.38 269.32" fill="#4b57a6"></polygon><polygon points="298.49 325.36 295.28 299.83 275.93 323.19 298.49 325.36" fill="#474a9e"></polygon><polygon points="310.93 273.42 290.38 269.32 295.28 299.83 310.93 273.42" fill="#4c5daa"></polygon><polygon points="314.3 302.4 310.93 273.42 295.28 299.83 314.3 302.4" fill="#495aa8"></polygon><polygon points="298.49 325.36 314.3 302.4 295.28 299.83 298.49 325.36" fill="#4950a2"></polygon><polygon points="275.93 323.19 298.49 325.36 278.34 345.99 275.93 323.19" fill="#443d98"></polygon><polygon points="296.8 344.87 298.49 325.36 278.34 345.99 296.8 344.87" fill="#3b3693"></polygon><polygon points="314.3 302.4 315.91 321.43 298.49 325.36 314.3 302.4" fill="#40499e"></polygon><polygon points="296.8 344.87 298.49 325.36 315.91 321.43 296.8 344.87" fill="#3f3e99"></polygon><polygon points="277.14 187.76 284.15 169.67 255.84 164.66 277.14 187.76" fill="#5273b8"></polygon><polygon points="302.34 192.82 284.15 169.67 277.14 187.76 302.34 192.82" fill="#5272b7"></polygon><polygon points="266.86 209.44 277.14 187.76 246.42 183.2 266.86 209.44" fill="#526eb5"></polygon><polygon points="235.05 205.15 266.86 209.44 246.42 183.2 235.05 205.15" fill="#516bb3"></polygon><polygon points="293.59 213.77 277.14 187.76 266.86 209.44 293.59 213.77" fill="#506eb5"></polygon><polygon points="302.34 192.82 293.59 213.77 277.14 187.76 302.34 192.82" fill="#506fb5"></polygon><polygon points="304.67 242.35 315.43 218.75 293.59 213.77 304.67 242.35" fill="#4e6bb3"></polygon><polygon points="302.34 192.82 315.43 218.75 293.59 213.77 302.34 192.82" fill="#4f6cb4"></polygon><polygon points="304.67 242.35 322.81 245.64 315.43 218.75 304.67 242.35" fill="#4f69b2"></polygon><polygon points="310.93 273.42 322.81 245.64 304.67 242.35 310.93 273.42" fill="#4f67b0"></polygon><polygon points="325.86 277.19 310.93 273.42 322.81 245.64 325.86 277.19" fill="#4d65af"></polygon><polygon points="314.3 302.4 325.86 277.19 310.93 273.42 314.3 302.4" fill="#4b5fab"></polygon><polygon points="281.47 237.45 304.67 242.35 293.59 213.77 281.47 237.45" fill="#4f69b1"></polygon><polygon points="290.38 269.32 304.67 242.35 310.93 273.42 290.38 269.32" fill="#4e64ae"></polygon><polygon points="281.47 237.45 304.67 242.35 290.38 269.32 281.47 237.45" fill="#4f66b0"></polygon><polygon points="265.81 265.55 281.47 237.45 290.38 269.32 265.81 265.55" fill="#4f61ac"></polygon><polygon points="254.09 233.68 281.47 237.45 265.81 265.55 254.09 233.68" fill="#4f62ad"></polygon><polygon points="266.86 209.44 281.47 237.45 293.59 213.77 266.86 209.44" fill="#506ab2"></polygon><polygon points="254.09 233.68 266.86 209.44 281.47 237.45 254.09 233.68" fill="#5066b0"></polygon><polygon points="238.1 260.96 254.09 233.68 265.81 265.55 238.1 260.96" fill="#505eaa"></polygon><polygon points="235.05 205.15 254.09 233.68 266.86 209.44 235.05 205.15" fill="#5068b0"></polygon><polygon points="222.94 229.91 235.05 205.15 254.09 233.68 222.94 229.91" fill="#5162ad"></polygon><polygon points="238.1 260.96 222.94 229.91 254.09 233.68 238.1 260.96" fill="#505eaa"></polygon><polygon points="209.09 256.46 222.94 229.91 238.1 260.96 209.09 256.46" fill="#4f58a6"></polygon><polygon points="187.9 235.66 222.94 229.91 209.09 256.46 187.9 235.66" fill="#5259a7"></polygon><polygon points="201.03 206.55 187.9 235.66 168.71 215.87 201.03 206.55" fill="#525ca9"></polygon><polygon points="222.94 229.91 201.03 206.55 187.9 235.66 222.94 229.91" fill="#535da9"></polygon><polygon points="235.05 205.15 201.03 206.55 222.94 229.91 235.05 205.15" fill="#5160ac"></polygon><polygon points="189.4 133.34 219.53 131.82 206.14 143.47 189.4 133.34" fill="#5573b8"></polygon><polygon points="219.53 131.82 251.03 137.41 235.05 144.57 219.53 131.82" fill="#5070b6"></polygon><polygon points="189.66 74.83 150.99 77.39 170.68 96.9 189.66 74.83" fill="#fdb916"></polygon><polygon points="170.68 96.9 161.49 118.74 112.79 90.39 170.68 96.9" fill="#f8971d"></polygon><polygon points="150.99 77.39 170.68 96.9 112.79 90.39 150.99 77.39" fill="#fba822"></polygon><polygon points="112.79 90.39 97.91 127.03 161.49 118.74 112.79 90.39" fill="#f68c1f"></polygon><polygon points="56.72 121.72 112.79 90.39 97.91 127.03 56.72 121.72" fill="#f8971d"></polygon><polygon points="161.49 118.74 166.75 162.11 97.91 127.03 161.49 118.74" fill="#f47421"></polygon><polygon points="112.49 187.81 166.75 162.11 97.91 127.03 112.49 187.81" fill="#f37121"></polygon><polygon points="61.23 184.75 97.91 127.03 112.49 187.81 61.23 184.75" fill="#f26122"></polygon><polygon points="49.05 166.62 61.23 184.75 97.91 127.03 49.05 166.62" fill="#f15e22"></polygon><polygon points="49.05 166.62 56.72 121.72 97.91 127.03 49.05 166.62" fill="#f37221"></polygon><polygon points="39.09 146.76 49.05 166.62 56.72 121.72 39.09 146.76" fill="#f26622"></polygon><polygon points="148.57 201.71 166.75 162.11 112.49 187.81 148.57 201.71" fill="#f26122"></polygon><polygon points="185.79 224.24 148.57 201.71 166.75 162.11 185.79 224.24" fill="#f37121"></polygon><polygon points="130.3 236.19 185.79 224.24 148.57 201.71 130.3 236.19" fill="#f26122"></polygon><polygon points="93.07 228.36 148.57 201.71 130.3 236.19 93.07 228.36" fill="#f15922"></polygon><polygon points="93.07 228.36 112.49 187.81 148.57 201.71 93.07 228.36" fill="#f26a21"></polygon><polygon points="61.23 184.75 93.07 228.36 112.49 187.81 61.23 184.75" fill="#ee4f23"></polygon><polygon points="49.05 166.62 49 231.25 61.23 184.75 49.05 166.62" fill="#ee4f23"></polygon><polygon points="71.85 250.64 93.07 228.36 49 231.25 71.85 250.64" fill="#ed5123"></polygon><polygon points="106.58 245.98 71.85 250.64 93.07 228.36 106.58 245.98" fill="#e94724"></polygon><polygon points="106.58 245.98 93.07 228.36 130.3 236.19 106.58 245.98" fill="#e94724"></polygon><polygon points="55.32 276.5 71.85 250.64 49 231.25 55.32 276.5" fill="#eb4724"></polygon><polygon points="96.6 261.82 55.32 276.5 71.85 250.64 96.6 261.82" fill="#e54425"></polygon><polygon points="96.6 261.82 106.58 245.98 71.85 250.64 96.6 261.82" fill="#f04e23"></polygon><polygon points="140.9 250.09 96.6 261.82 106.58 245.98 140.9 250.09" fill="#e54425"></polygon><polygon points="140.9 250.09 130.3 236.19 106.58 245.98 140.9 250.09" fill="#de3d26"></polygon><polygon points="12.53 193.17 49.05 166.62 39.09 146.76 12.53 193.17" fill="#ef4f23"></polygon><polygon points="20.54 207.4 12.53 193.17 49.05 166.62 20.54 207.4" fill="#eb4724"></polygon><polygon points="49 231.25 20.54 207.4 49.05 166.62 49 231.25" fill="#f04a23"></polygon><polygon points="49 231.25 61.23 184.75 93.07 228.36 49 231.25" fill="#e94724"></polygon><polygon points="0 251.4 49 231.25 20.54 207.4 0 251.4" fill="#eb4724"></polygon><polygon points="12.53 193.17 0 251.4 20.54 207.4 12.53 193.17" fill="#f05023"></polygon><polygon points="221.84 157.38 198.83 153.31 214.78 187.46 221.84 157.38" fill="#f26a2a"></polygon><polygon points="175.81 149.5 198.83 153.31 214.78 187.46 175.81 149.5" fill="#f04a23"></polygon><polygon points="179.89 180.31 175.81 149.5 214.78 187.46 179.89 180.31" fill="#f15b22"></polygon><polygon points="185.78 200.78 179.89 180.31 214.78 187.46 185.78 200.78" fill="#f6891f"></polygon><polygon points="177.84 198.31 179.55 203.88 185.78 200.78 177.84 198.31" fill="#e02826"></polygon><polygon points="179.89 180.31 177.84 198.31 185.78 200.78 179.89 180.31" fill="#f26522"></polygon><polygon points="171.85 178.65 179.89 180.31 177.84 198.31 171.85 178.65" fill="#f15c22"></polygon><polygon points="163.03 131.44 175.81 149.5 166.75 162.11 163.03 131.44" fill="#f05126"></polygon><polygon points="178.33 168.62 166.75 162.11 175.81 149.5 178.33 168.62" fill="#f05323"></polygon><polygon points="178.33 168.62 171.85 178.65 166.75 162.11 178.33 168.62" fill="#f15722"></polygon><polygon points="178.33 168.62 179.89 180.31 171.85 178.65 178.33 168.62" fill="#f15822"></polygon><polygon points="0 251.4 55.32 276.5 49 231.25 0 251.4" fill="#f04a23"></polygon><polygon points="55.32 276.5 6.61 311.15 0 251.4 55.32 276.5" fill="#dd3726"></polygon><polygon points="56.81 310.15 55.32 276.5 6.61 311.15 56.81 310.15" fill="#d73927"></polygon><polygon points="107.02 285.58 56.81 310.15 55.32 276.5 107.02 285.58" fill="#e14725"></polygon><polygon points="96.6 261.82 107.02 285.58 55.32 276.5 96.6 261.82" fill="#f04e23"></polygon><polygon points="140.9 250.09 107.02 285.58 96.6 261.82 140.9 250.09" fill="#e94624"></polygon><polygon points="129.97 292.97 107.02 285.58 140.9 250.09 129.97 292.97" fill="#de3d26"></polygon><polygon points="145.83 290.59 140.9 250.09 129.97 292.97 145.83 290.59" fill="#e94624"></polygon><polygon points="163.54 269.49 145.83 290.59 145.21 251.24 163.54 269.49" fill="#f04e23"></polygon><polygon points="140.9 250.09 145.21 251.24 145.83 290.59 140.9 250.09" fill="#e94624"></polygon><polygon points="130.3 236.19 145.21 251.24 140.9 250.09 130.3 236.19" fill="#e54425"></polygon><polygon points="177.02 281.04 163.54 269.49 162 304.22 177.02 281.04" fill="#ef4723"></polygon><polygon points="173.01 318.38 177.02 281.04 162 304.22 173.01 318.38" fill="#ee3d23"></polygon><polygon points="165 319.69 173.01 318.38 162 304.22 165 319.69" fill="#d63127"></polygon><polygon points="154.22 315.69 162 304.22 165 319.69 154.22 315.69" fill="#d63127"></polygon><polygon points="143.13 312.38 154.22 315.69 162 304.22 143.13 312.38" fill="#c42426"></polygon><polygon points="145.83 290.59 162 304.22 163.54 269.49 145.83 290.59" fill="#f05223"></polygon><polygon points="143.13 312.38 145.83 290.59 162 304.22 143.13 312.38" fill="#d63127"></polygon><polygon points="129.97 292.97 143.13 312.38 145.83 290.59 129.97 292.97" fill="#d03b27"></polygon><polygon points="124.73 306.83 129.97 292.97 143.13 312.38 124.73 306.83" fill="#dd3726"></polygon><polygon points="115.34 309.14 129.97 292.97 124.73 306.83 115.34 309.14" fill="#d03b27"></polygon><polygon points="132.82 318.23 124.73 306.83 115.34 309.14 132.82 318.23" fill="#ef4823"></polygon><polygon points="154.92 341.33 132.82 318.23 152.61 354.5 154.92 341.33" fill="#f15a22"></polygon><polygon points="103.09 349.11 132.82 318.23 152.61 354.5 103.09 349.11" fill="#f04a23"></polygon><polygon points="115.34 309.14 103.09 349.11 132.82 318.23 115.34 309.14" fill="#dd3726"></polygon><polygon points="107.02 285.58 115.34 309.14 129.97 292.97 107.02 285.58" fill="#e94624"></polygon><polygon points="56.81 310.15 115.34 309.14 107.02 285.58 56.81 310.15" fill="#dd3726"></polygon><polygon points="56.81 310.15 103.09 349.11 115.34 309.14 56.81 310.15" fill="#de3d26"></polygon><polygon points="91.16 372.44 103.09 349.11 56.81 310.15 91.16 372.44" fill="#ea3b24"></polygon><polygon points="127.43 396.54 103.09 349.11 91.16 372.44 127.43 396.54" fill="#e93b24"></polygon><polygon points="152.61 354.5 127.43 396.54 103.09 349.11 152.61 354.5" fill="#e13f26"></polygon><polygon points="6.61 311.15 91.16 372.44 56.81 310.15 6.61 311.15" fill="#cb2827"></polygon><polygon points="68.98 388.07 91.16 372.44 6.61 311.15 68.98 388.07" fill="#ad1f24"></polygon><polygon points="111.87 415.72 68.98 388.07 91.16 372.44 111.87 415.72" fill="#a51e22"></polygon><polygon points="167.16 426.19 127.43 396.54 111.87 415.72 167.16 426.19" fill="#ac1f24"></polygon><polygon points="133.82 449.6 111.87 415.72 96.01 423.03 133.82 449.6" fill="#841619"></polygon><polygon points="68.98 388.07 96.01 423.03 111.87 415.72 68.98 388.07" fill="#89181a"></polygon><polygon points="56.74 390.15 68.98 388.07 96.01 423.03 56.74 390.15" fill="#841619"></polygon><polygon points="6.61 311.15 56.74 390.15 68.98 388.07 6.61 311.15" fill="#89181a"></polygon><polygon points="177.68 412.54 152.61 354.5 127.43 396.54 177.68 412.54" fill="#f04a23"></polygon><polygon points="232.39 384.88 152.61 354.5 177.68 412.54 232.39 384.88" fill="#f05023"></polygon><polygon points="189.93 357.37 152.61 354.5 154.92 341.33 189.93 357.37" fill="#f05023"></polygon><polygon points="224.47 360.02 232.39 384.88 152.61 354.5 224.47 360.02" fill="#f15b22"></polygon><polygon points="167.16 426.19 177.68 412.54 127.43 396.54 167.16 426.19" fill="#ca2127"></polygon><polygon points="133.82 449.6 167.16 426.19 111.87 415.72 133.82 449.6" fill="#a51e22"></polygon><polygon points="227.67 459.91 167.16 426.19 133.82 449.6 227.67 459.91" fill="#b12024"></polygon><polygon points="303.44 435.75 233.59 426.83 227.67 459.91 303.44 435.75" fill="#e32b26"></polygon><polygon points="293.21 410.7 330.09 420.02 303.44 435.75 293.21 410.7" fill="#ef3e23"></polygon><polygon points="232.39 384.88 233.59 426.83 177.68 412.54 232.39 384.88" fill="#f04a23"></polygon><polygon points="293.21 410.7 233.59 426.83 303.44 435.75 293.21 410.7" fill="#e93b24"></polygon><polygon points="232.39 384.88 293.21 410.7 233.59 426.83 232.39 384.88" fill="#f05023"></polygon><polygon points="274.17 373.02 232.39 384.88 224.47 360.02 274.17 373.02" fill="#f05023"></polygon><polygon points="208.8 299.82 177.02 281.04 173.01 318.38 208.8 299.82" fill="#f15a22"></polygon><polygon points="215.04 302.14 208.8 299.82 181.26 314.1 215.04 302.14" fill="#cf3527"></polygon><polygon points="247.03 299.17 208.8 299.82 215.04 302.14 247.03 299.17" fill="#d33827"></polygon><polygon points="214.75 276.25 247.03 299.17 208.8 299.82 214.75 276.25" fill="#f37021"></polygon><polygon points="177.02 281.04 214.75 276.25 208.8 299.82 177.02 281.04" fill="#ef4723"></polygon><polygon points="293.21 410.7 274.17 373.02 232.39 384.88 293.21 410.7" fill="#f15a22"></polygon><polygon points="340.02 387.28 293.21 410.7 274.17 373.02 340.02 387.28" fill="#f26622"></polygon><polygon points="330.09 420.02 340.02 387.28 293.21 410.7 330.09 420.02" fill="#f05023"></polygon><polygon points="385.57 365.94 340.02 387.28 330.09 420.02 385.57 365.94" fill="#f47a20"></polygon><polygon points="378.8 351.81 385.57 365.94 340.02 387.28 378.8 351.81" fill="#f07822"></polygon><polygon points="348.89 342.94 378.8 351.81 340.02 387.28 348.89 342.94" fill="#f47a20"></polygon><polygon points="274.17 373.02 348.89 342.94 340.02 387.28 274.17 373.02" fill="#f15a22"></polygon><polygon points="224.47 360.02 265.16 347.75 274.17 373.02 224.47 360.02" fill="#f16122"></polygon><polygon points="298.23 333.32 265.16 347.75 274.17 373.02 298.23 333.32" fill="#f37021"></polygon><polygon points="348.89 342.94 298.23 333.32 274.17 373.02 348.89 342.94" fill="#f26622"></polygon><polygon points="352.95 309.72 348.89 342.94 298.23 333.32 352.95 309.72" fill="#f16122"></polygon><polygon points="317.62 290.48 352.95 309.72 298.23 333.32 317.62 290.48" fill="#f26522"></polygon><polygon points="370.98 318.89 352.95 309.72 348.89 342.94 370.98 318.89" fill="#f99b1c"></polygon><polygon points="378.8 351.81 370.98 318.89 348.89 342.94 378.8 351.81" fill="#f07822"></polygon><polygon points="405.41 304.46 385.57 365.94 378.8 351.81 405.41 304.46" fill="#ea7324"></polygon><polygon points="413.83 236.97 378.8 351.81 405.41 304.46 413.83 236.97" fill="#f07822"></polygon><polygon points="370.98 318.89 413.83 236.97 378.8 351.81 370.98 318.89" fill="#ea8b23"></polygon><polygon points="352.95 309.72 389.32 247.19 370.98 318.89 352.95 309.72" fill="#f5991e"></polygon><polygon points="413.83 236.97 389.32 247.19 370.98 318.89 413.83 236.97" fill="#f29120"></polygon><polygon points="335.06 255.91 389.32 247.19 352.95 309.72 335.06 255.91" fill="#f9a01b"></polygon><polygon points="317.62 290.48 335.06 255.91 352.95 309.72 317.62 290.48" fill="#f57f20"></polygon><polygon points="307.38 221.59 317.62 290.48 335.06 255.91 307.38 221.59" fill="#f15c22"></polygon><polygon points="323.83 180.27 335.06 255.91 307.38 221.59 323.83 180.27" fill="#e77925"></polygon><polygon points="389.32 247.19 323.83 180.27 335.06 255.91 389.32 247.19" fill="#f58120"></polygon><polygon points="267.67 186.3 323.83 180.27 307.38 221.59 267.67 186.3" fill="#e87d24"></polygon><polygon points="398.9 157.56 389.32 247.19 413.83 236.97 398.9 157.56" fill="#f3bd19"></polygon><polygon points="323.83 180.27 398.9 157.56 389.32 247.19 323.83 180.27" fill="#ffc514"></polygon><polygon points="269.96 135.75 267.67 186.3 323.83 180.27 269.96 135.75" fill="#f7931e"></polygon><polygon points="241.86 125.63 269.96 135.75 267.67 186.3 241.86 125.63" fill="#f18c21"></polygon><polygon points="293.34 110.8 323.83 180.27 398.9 157.56 293.34 110.8" fill="#ffc90e"></polygon><polygon points="269.96 135.75 293.34 110.8 323.83 180.27 269.96 135.75" fill="#fcb415"></polygon><polygon points="302.06 47.63 293.34 110.8 398.9 157.56 302.06 47.63" fill="#feda04"></polygon><polygon points="286.71 0 302.06 47.63 293.34 110.8 286.71 0" fill="#ffc90e"></polygon><polygon points="250.59 46.59 293.34 110.8 286.71 0 250.59 46.59" fill="#feda04"></polygon><polygon points="269.96 135.75 250.59 46.59 293.34 110.8 269.96 135.75" fill="#ffc90e"></polygon><polygon points="241.86 125.63 250.59 46.59 269.96 135.75 241.86 125.63" fill="#f99d1c"></polygon><polygon points="145.21 251.24 136.48 234.91 130.3 236.19 145.21 251.24" fill="#e02826"></polygon><polygon points="333.71 41.85 377.31 133.05 318.1 65.79 333.71 41.85" fill="#f89a1c"></polygon><polygon points="398.91 157.59 373.88 125.91 377.32 133.08 398.91 157.59" fill="#f89a1c"></polygon><polygon points="73.48 89.17 84.83 106.05 78.63 109.51 57.84 108.11 73.48 89.17" fill="#ef4123"></polygon><polygon points="56.72 121.72 57.84 108.11 78.63 109.51 56.72 121.72" fill="#f04e2a"></polygon><polygon points="66.69 66.15 73.48 89.17 58.82 80.63 66.69 66.15" fill="#ef4123"></polygon><polygon points="57.84 108.11 58.82 80.63 73.48 89.17 57.84 108.11" fill="#ef4123"></polygon><polygon points="42.44 111.35 57.84 108.11 58.82 80.63 42.44 111.35" fill="#ee232e"></polygon><polygon points="30.01 131.59 39.09 146.76 12.53 193.17 30.01 131.59" fill="#ee213a"></polygon><polygon points="56.72 121.72 30.01 131.59 39.09 146.76 56.72 121.72" fill="#ee3539"></polygon><polygon points="57.84 108.11 30.01 131.59 56.72 121.72 57.84 108.11" fill="#f04e2a"></polygon><polygon points="42.44 111.35 30.01 131.59 57.84 108.11 42.44 111.35" fill="#ee232e"></polygon><polygon points="111.87 415.72 91.16 372.44 127.43 396.54 111.87 415.72" fill="#b32025"></polygon><polygon points="233.59 426.83 227.67 459.91 167.16 426.19 233.59 426.83" fill="#cb2127"></polygon><polygon points="177.68 412.54 233.59 426.83 167.16 426.19 177.68 412.54" fill="#e32b26"></polygon></g></svg> 