<?xml version="1.0" encoding="UTF-8"?> <svg xmlns="http://www.w3.org/2000/svg" id="glTF" viewBox="0 0 500 500"><title>gltf</title><path d="M214.31,321.5c6.86-7.7,10.49-18.94,10.49-34.1V202.73H210.3V216h-.18a27.08,27.08,0,0,0-11.45-11.54,34.15,34.15,0,0,0-16.11-3.85q-12,0-20.23,4.56a39,39,0,0,0-13.25,11.73,47.11,47.11,0,0,0-7.16,15.75,69.37,69.37,0,0,0-2.15,16.83,61.23,61.23,0,0,0,2.6,18,44.08,44.08,0,0,0,7.78,14.95A37.25,37.25,0,0,0,163,292.59a40.76,40.76,0,0,0,18.09,3.76,36.24,36.24,0,0,0,8.68-1.07,35.35,35.35,0,0,0,8.24-3.13,28.16,28.16,0,0,0,6.89-5.19,26.24,26.24,0,0,0,5-7.43h.35v6.08a62.6,62.6,0,0,1-1.52,14.32,29.55,29.55,0,0,1-4.92,11,23.81,23.81,0,0,1-8.59,7.16,28.25,28.25,0,0,1-12.71,2.6,40.79,40.79,0,0,1-7.88-.81,29,29,0,0,1-2.89-.71c-1-.36-2-.72-3-1.09l-.28-.12h0c-39.31-14.68-65.19-39.65-65.19-68,0-45.19,65.83-81.82,147-81.82,45.24,0,85.8,10.31,112.77,28.19-29.44-30-82.23-51-142.58-51-92.43,0-167.37,46.83-167.38,104.63,0,39.45,34.91,73.82,86.47,91.66C181,343.05,202,335.37,214.31,321.5ZM208.07,260a37.71,37.71,0,0,1-4.75,11.55A23.93,23.93,0,0,1,182,282.93a23.22,23.22,0,0,1-12.53-3.14,24.14,24.14,0,0,1-8.06-8.23,35.46,35.46,0,0,1-4.29-11.37,63.4,63.4,0,0,1-1.26-12.53A52.48,52.48,0,0,1,157.4,235a31.53,31.53,0,0,1,4.84-10.74,24.42,24.42,0,0,1,8.5-7.43A26.26,26.26,0,0,1,183.27,214a24.2,24.2,0,0,1,12.18,2.87,23.76,23.76,0,0,1,8.14,7.61,33.5,33.5,0,0,1,4.57,10.65,51,51,0,0,1,1.43,12A56.1,56.1,0,0,1,208.07,260Z" fill="#86c540"></path><path d="M221.37,330.23c-8.77,8-24.44,17-45.77,20.61a262.73,262.73,0,0,0,44.88,3.82c60.12,0,112.76-21,142.28-50.73-27,17.77-67.37,27.89-112.44,27.89A225.56,225.56,0,0,1,221.37,330.23Z" fill="#86c540"></path><path d="M313.93,295.54H292.08V222h-27.4V203.24h76.66V222H313.93v73.59Z" fill="#86c540"></path><path d="M374.55,295.54H352.71v-92.3h67.44V222h-45.6v17.27h39.91v18.72H374.55v37.6Z" fill="#86c540"></path><path d="M237.51,180.24h15.22v115H237.51Z" fill="#86c540"></path><polygon points="439.02 205.95 435.61 205.95 435.61 214.84 432.62 214.84 432.62 205.95 429.2 205.95 429.2 203.38 439.02 203.38 439.02 205.95 439.02 205.95" fill="#86c540"></polygon><polygon points="440.36 203.38 444.75 203.38 446.73 211.02 446.76 211.02 448.73 203.38 453.13 203.38 453.13 214.84 450.32 214.84 450.32 206.14 450.29 206.14 447.88 214.84 445.61 214.84 443.2 206.14 443.17 206.14 443.17 214.84 440.36 214.84 440.36 203.38" fill="#86c540"></polygon></svg> 