<svg id="Layer_1" data-name="Layer 1" xmlns="http://www.w3.org/2000/svg" viewBox="0 0 500 500"><title>Mozilla-Viewer</title><rect width="500" height="500" fill="#020102"/><path d="M50,249.83q0-98.08-.08-196.16c0-3,.41-3.85,3.7-3.84q196.17.16,392.36,0c3.45,0,3.94.87,3.94,4.06q-.14,195.93,0,391.86c0,3.14-.42,4.08-3.93,4.08q-196.17-.18-392.35,0c-3.25,0-3.72-.78-3.72-3.82Q50.09,347.91,50,249.83Zm130.79-46.76c0-6.28-.18-11.33.07-16.36.14-2.89-.8-3.63-3.61-3.61q-25.56.18-51.11,0c-2.56,0-3.47.63-3.41,3.31.17,7.82.19,15.66,0,23.48-.07,2.84,1.08,3.28,3.5,3.17,3.83-.17,7.67.07,11.5-.09,2.48-.1,3.52.51,3.51,3.27q-.15,35.69,0,71.37c0,2.78-1.13,3.38-3.56,3.29-3.83-.13-7.68.1-11.51-.08-2.51-.11-3.49.57-3.42,3.29.18,7.83.13,15.66,0,23.49,0,2.24.37,3.22,3,3.21q39.13-.13,78.28,0c2.41,0,3.19-.7,3.15-3.11-.12-7.82-.14-15.65,0-23.48,0-2.6-.74-3.47-3.38-3.4-6.45.17-12.9-.06-19.34.11-2.74.07-3.73-.63-3.7-3.57.16-15.8,0-31.62.17-47.42.09-6.95,1.46-13.74,5.52-19.61,5.93-8.56,14.62-10.59,24.3-9.74,9.93.87,15.65,6.58,18.26,16.06,1.66,6,1.79,12.09,1.79,18.21q.06,35.92,0,71.83c0,2.15-.49,4.18,3,4.14,17.35-.15,34.69-.12,52,0,2.58,0,3-1,3-3.22-.14-4.29,0-8.59-.06-12.89s1.46-10.22-.75-12.93-8.36-.58-12.76-.9h-.46c-3.37.52-4.5-.77-4.45-4.29.19-14.27,0-28.55.12-42.82.07-6.59.73-13.15,3.41-19.32,4.2-9.67,13.73-15,25.09-14.08s17.54,6.32,20.13,17.91a81.35,81.35,0,0,1,1.69,17.81V317c0,1.95-.53,3.87,2.78,3.84,17.5-.14,35-.1,52.5,0,2.28,0,2.83-.83,2.8-2.95-.1-8-.13-16,0-23.95,0-2.53-1-3.14-3.23-3.07-3.68.13-7.39-.21-11,.11s-4.32-1-4.29-4.38c.16-19.19.09-38.37.06-57.56a62.5,62.5,0,0,0-2.24-17.26c-10.33-35.9-56.07-38-76-21.43-6.15,5.11-10.53,11.47-14.31,18.77-12.66-35-67.38-38.88-87-6.05Z" fill="#020102"/><path d="M180.78,203.07c19.67-32.83,74.39-28.92,87,6,3.78-7.3,8.16-13.66,14.31-18.77,20-16.6,65.69-14.47,76,21.43A62.21,62.21,0,0,1,360.35,229c0,19.19.1,38.37-.06,57.56,0,3.37.73,4.69,4.29,4.38s7.36,0,11-.11c2.28-.07,3.28.54,3.23,3.07-.14,8-.11,16,0,24,0,2.12-.52,3-2.8,2.95-17.5-.08-35-.12-52.5,0-3.31,0-2.78-1.89-2.78-3.84v-70.9A81.35,81.35,0,0,0,319,228.25c-2.59-11.59-8.63-16.95-20.13-17.91s-20.89,4.41-25.09,14.08c-2.68,6.17-3.34,12.73-3.41,19.32-.13,14.27.07,28.55-.12,42.82-.05,3.52,1.08,4.81,4.45,4.29a3.53,3.53,0,0,1,.46,0c4.4.32,10.42-2,12.76.9s.7,8.5.75,12.93-.08,8.6.06,12.89c.07,2.25-.39,3.24-3,3.22-17.35-.11-34.69-.14-52,0-3.53,0-3-2-3-4.14V244.82c0-6.12-.13-12.19-1.79-18.21-2.61-9.48-8.33-15.19-18.26-16.06-9.68-.85-18.37,1.18-24.3,9.74-4.06,5.87-5.43,12.66-5.52,19.61-.2,15.8,0,31.62-.17,47.42,0,2.94,1,3.64,3.7,3.57,6.44-.17,12.89.06,19.34-.11,2.64-.07,3.43.8,3.38,3.4-.14,7.83-.12,15.66,0,23.48,0,2.41-.74,3.12-3.15,3.11q-39.13-.12-78.28,0c-2.59,0-3-1-3-3.21.11-7.83.16-15.66,0-23.49-.07-2.72.91-3.4,3.42-3.29,3.83.18,7.68,0,11.51.08,2.43.09,3.57-.51,3.56-3.29q-.14-35.69,0-71.37c0-2.76-1-3.37-3.51-3.27-3.83.16-7.67-.08-11.5.09-2.42.11-3.57-.33-3.5-3.17.2-7.82.18-15.66,0-23.48-.06-2.68.85-3.33,3.41-3.31q25.54.15,51.11,0c2.81,0,3.75.72,3.61,3.61C180.6,191.74,180.78,196.79,180.78,203.07Z" fill="#da9ec6"/></svg>