<?xml version="1.0" encoding="UTF-8"?> <svg xmlns="http://www.w3.org/2000/svg" id="Layer_1" data-name="Layer 1" viewBox="0 0 500 500"><title>threejs</title><polygon points="96.31 340.49 51.17 157.77 232.1 209.86 96.31 340.49" fill="#010101" fill-rule="evenodd" opacity="0"></polygon><polygon points="96.31 340.49 51.17 157.77 232.1 209.86 96.31 340.49" fill="none" stroke="#010101" stroke-linejoin="round" stroke-width="3"></polygon><polygon points="141.6 183.83 164.15 275.21 73.74 249.16 141.6 183.83" fill="#010101" fill-rule="evenodd" opacity="0"></polygon><polygon points="141.6 183.83 164.15 275.21 73.74 249.16 141.6 183.83" fill="none" stroke="#010101" stroke-linejoin="round" stroke-width="3"></polygon><polygon points="119.17 261.55 107.97 216.16 152.88 229.05 119.17 261.55" fill="#010101" fill-rule="evenodd" opacity="0"></polygon><polygon points="119.17 261.55 107.97 216.16 152.88 229.05 119.17 261.55" fill="none" stroke="#010101" stroke-linejoin="round" stroke-width="3"></polygon><polygon points="96.76 170.82 107.96 216.21 63.05 203.32 96.76 170.82" fill="#010101" fill-rule="evenodd" opacity="0"></polygon><polygon points="96.76 170.82 107.96 216.21 63.05 203.32 96.76 170.82" fill="none" stroke="#010101" stroke-linejoin="round" stroke-width="3"></polygon><polygon points="186.6 196.7 197.8 242.09 152.88 229.2 186.6 196.7" fill="#010101" fill-rule="evenodd" opacity="0"></polygon><polygon points="186.6 196.7 197.8 242.09 152.88 229.2 186.6 196.7" fill="none" stroke="#010101" stroke-linejoin="round" stroke-width="3"></polygon><polygon points="119.17 261.58 130.37 306.98 85.46 294.08 119.17 261.58" fill="#010101" fill-rule="evenodd" opacity="0"></polygon><polygon points="119.17 261.58 130.37 306.98 85.46 294.08 119.17 261.58" fill="none" stroke="#010101" stroke-linejoin="round" stroke-width="3"></polygon><rect x="208.87" y="237.59" width="242.3" height="91.91" fill="#010101" opacity="0"></rect><path d="M224.65,296V277.87h-4.16a1.06,1.06,0,0,1-.79-.32,1.09,1.09,0,0,1-.32-.79,1.22,1.22,0,0,1,.53-1l8-7.78a1.5,1.5,0,0,1,1-.53,1.05,1.05,0,0,1,.79.35,1.21,1.21,0,0,1,.32.82v4.68h6.61a2.3,2.3,0,0,1,1.64,3.89,2.17,2.17,0,0,1-1.64.67H230v17.67c0,1.52.36,2.48,1.08,2.89a5.45,5.45,0,0,0,2.72.61,7.91,7.91,0,0,0,2.34-.35l.5-.11a3.07,3.07,0,0,1,.67-.06,2,2,0,0,1,1.46.61,2,2,0,0,1,.65,1.49,2.21,2.21,0,0,1-1.35,2.05,11.47,11.47,0,0,1-4.85,1.05Q224.64,303.72,224.65,296Z" fill="#010101"></path><path d="M246,302.67a2.57,2.57,0,0,1-.76-1.87v-38a2.68,2.68,0,0,1,.76-1.9,2.49,2.49,0,0,1,1.88-.79,2.58,2.58,0,0,1,1.9.79,2.62,2.62,0,0,1,.79,1.9v15.27a19.33,19.33,0,0,1,4.79-3.92,12.06,12.06,0,0,1,6.08-1.46,10.07,10.07,0,0,1,5.59,1.52,9.84,9.84,0,0,1,3.63,4.15,13.34,13.34,0,0,1,1.25,5.79V300.8a2.49,2.49,0,0,1-.79,1.87,2.62,2.62,0,0,1-1.9.76,2.53,2.53,0,0,1-1.87-.76,2.57,2.57,0,0,1-.76-1.87v-16q0-7.12-6.43-7.13a9.35,9.35,0,0,0-5.24,1.52,18.85,18.85,0,0,0-4.35,4.09V300.8a2.52,2.52,0,0,1-.79,1.87,2.63,2.63,0,0,1-1.9.76A2.54,2.54,0,0,1,246,302.67Z" fill="#010101"></path><path d="M281.61,302.67a2.53,2.53,0,0,1-.76-1.87V275.71a2.62,2.62,0,0,1,.76-1.9,2.49,2.49,0,0,1,1.87-.79,2.7,2.7,0,0,1,2.69,2.69v2.51q4.09-5.49,9.19-5.49h.29a2.44,2.44,0,0,1,1.84.76,2.57,2.57,0,0,1,.73,1.87,2.34,2.34,0,0,1-.76,1.81,2.73,2.73,0,0,1-1.93.7h-.29a10,10,0,0,0-5.15,1.38,11.84,11.84,0,0,0-3.92,3.77V300.8a2.49,2.49,0,0,1-.79,1.87,2.62,2.62,0,0,1-1.9.76A2.53,2.53,0,0,1,281.61,302.67Z" fill="#010101"></path><path d="M304.63,299.66q-4-4.07-4-11.44a19.15,19.15,0,0,1,1.52-7.66,12.94,12.94,0,0,1,4.68-5.67,13.47,13.47,0,0,1,7.78-2.16,13.62,13.62,0,0,1,7.48,2,13.06,13.06,0,0,1,4.8,5.38,16.59,16.59,0,0,1,1.64,7.34,2.55,2.55,0,0,1-2.69,2.64H306a9.62,9.62,0,0,0,3,6.37,10.51,10.51,0,0,0,7.2,2.28,17.25,17.25,0,0,0,4.3-.47,18.15,18.15,0,0,0,3.59-1.34,2.25,2.25,0,0,1,1.05-.23,2.34,2.34,0,0,1,1.64.64,2.11,2.11,0,0,1,.7,1.64,2.51,2.51,0,0,1-1.52,2.16,18.2,18.2,0,0,1-10.23,2.57Q308.63,303.72,304.63,299.66Zm18.62-13.89a9.31,9.31,0,0,0-1.49-4.8,8,8,0,0,0-3.24-2.83,8.9,8.9,0,0,0-7.84,0,7.85,7.85,0,0,0-3.22,2.83,9.58,9.58,0,0,0-1.46,4.8Z" fill="#010101"></path><path d="M337.73,299.66q-4-4.07-4-11.44a19.15,19.15,0,0,1,1.52-7.66,13.08,13.08,0,0,1,4.68-5.67,13.47,13.47,0,0,1,7.78-2.16,13.66,13.66,0,0,1,7.49,2,13.1,13.1,0,0,1,4.79,5.38,16.59,16.59,0,0,1,1.64,7.34,2.55,2.55,0,0,1-2.69,2.64H339.1a9.62,9.62,0,0,0,3,6.37q2.57,2.28,7.19,2.28a17.19,17.19,0,0,0,4.3-.47,18.23,18.23,0,0,0,3.6-1.34,2.25,2.25,0,0,1,1.05-.23,2.36,2.36,0,0,1,1.64.64,2.15,2.15,0,0,1,.7,1.64,2.53,2.53,0,0,1-1.52,2.16,18.27,18.27,0,0,1-10.24,2.57Q341.73,303.72,337.73,299.66Zm18.63-13.89a9.5,9.5,0,0,0-1.49-4.8,8.06,8.06,0,0,0-3.25-2.83,8.9,8.9,0,0,0-7.84,0,7.83,7.83,0,0,0-3.21,2.83,9.59,9.59,0,0,0-1.47,4.8Z" fill="#010101"></path><path d="M369,302.35a3.16,3.16,0,0,1-1-2.31v-.35a3.16,3.16,0,0,1,1-2.31,3.12,3.12,0,0,1,2.31-1h.58a3.31,3.31,0,0,1,3.28,3.28V300a3.29,3.29,0,0,1-3.28,3.27h-.58A3.15,3.15,0,0,1,369,302.35Z" fill="#010101"></path><path d="M378.11,316.65a2.3,2.3,0,0,1-1.11-.79,2.24,2.24,0,0,1,.24-2.87,2.12,2.12,0,0,1,1.58-.67,5.33,5.33,0,0,1,.87.09,5.44,5.44,0,0,0,.88.09,4.56,4.56,0,0,0,2.69-.65c.59-.43.88-1.36.88-2.8V275.77a2.62,2.62,0,0,1,.76-1.9,2.47,2.47,0,0,1,1.87-.79,2.6,2.6,0,0,1,2.69,2.69v33.39a8.73,8.73,0,0,1-1.84,5.82c-1.23,1.46-3.17,2.2-5.82,2.2A11.72,11.72,0,0,1,378.11,316.65Zm6.44-50.3a2.85,2.85,0,0,1-.88-2.11V264a3,3,0,0,1,3-3H387a3,3,0,0,1,3,3v.23a3,3,0,0,1-3,3h-.35A2.83,2.83,0,0,1,384.55,266.35Z" fill="#010101"></path><path d="M397.71,301.09a2.23,2.23,0,0,1-1-1.93,2.37,2.37,0,0,1,.65-1.64,2.12,2.12,0,0,1,1.63-.7,2.55,2.55,0,0,1,1.06.24,23.62,23.62,0,0,0,3.74,1.28,17,17,0,0,0,4.21.47q6.5,0,6.49-4.15a2.22,2.22,0,0,0-1.49-2.05,30.66,30.66,0,0,0-4.88-1.58,44,44,0,0,1-5.7-1.69,10.12,10.12,0,0,1-3.87-2.67A6.73,6.73,0,0,1,397,282a8.44,8.44,0,0,1,2.95-6.67c2-1.72,4.79-2.57,8.45-2.57a24.26,24.26,0,0,1,8.48,1.46,2.18,2.18,0,0,1,1.26.87,2.38,2.38,0,0,1,.44,1.35,2.34,2.34,0,0,1-.67,1.64,2.22,2.22,0,0,1-1.67.7,3.16,3.16,0,0,1-.76-.12,22.5,22.5,0,0,0-6.67-1.05,9.14,9.14,0,0,0-4.94,1.14,3.41,3.41,0,0,0-1.79,2.95,2.72,2.72,0,0,0,1.64,2.58,23.88,23.88,0,0,0,5.09,1.58,49.64,49.64,0,0,1,5.62,1.72,9.39,9.39,0,0,1,3.71,2.66,7.25,7.25,0,0,1,1.55,4.86,7.76,7.76,0,0,1-2.95,6.2q-3,2.44-8.34,2.45A21.66,21.66,0,0,1,397.71,301.09Z" fill="#010101"></path></svg> 