<svg id="Layer_1" data-name="Layer 1" xmlns="http://www.w3.org/2000/svg" viewBox="0 0 500 500"><title>W3C</title><g id="Foreground"><rect x="50" y="116.67" width="400" height="266.67" fill="#fff"/><path d="M150.65,161.14l32,108.78,32-108.78h86.74V172l-32.66,56.26q17.2,5.53,26,20.09t8.82,34.19q0,24.28-12.91,40.82t-33.43,16.55a40.09,40.09,0,0,1-26.91-9.82q-11.47-9.81-17-26.59l18.09-7.5q4,10.16,10.48,16a22.18,22.18,0,0,0,15.33,5.84q9.27,0,15.67-10.37t6.4-24.94q0-16.1-6.84-24.93-8-10.37-24.94-10.37h-8.82V236.6l30.89-53.4H232.31l-2.12,3.61L184.84,339.86h-2.21l-33.1-110.77L116.44,339.86h-2.21L61.29,161.14H84.46l32,108.78,21.62-73.25-10.59-35.53Z" fill="#005a9c"/><path d="M421.78,161.14a16.08,16.08,0,0,0-11.73,4.79,17.26,17.26,0,0,0-5.11,12.1,17.07,17.07,0,0,0,16.84,16.89,17.26,17.26,0,0,0,12-5A16.2,16.2,0,0,0,438.72,178a16.88,16.88,0,0,0-4.88-11.86A16.69,16.69,0,0,0,421.78,161.14Zm14.68,17a14,14,0,0,1-4.27,10.18,14.82,14.82,0,0,1-10.51,4.32,14.41,14.41,0,0,1-10.22-4.36A14.59,14.59,0,0,1,407.14,178a15,15,0,0,1,4.46-10.5,14.11,14.11,0,0,1,10.22-4.17,14.58,14.58,0,0,1,14.64,14.81Zm-14.22-10H415v19.14h3.61v-8.16h3.57l3.89,8.16h4l-4.27-8.72a5,5,0,0,0,4.36-5.16C430.22,169.92,427.59,168.13,422.24,168.13Zm-.65,2.35c3.38,0,4.92.94,4.92,3.28s-1.54,3.05-4.83,3.05h-3.05v-6.33Z" fill-rule="evenodd"/></g><g id="Calque_1" data-name="Calque 1"><path d="M393.37,160.14,397.13,183l-13.29,25.41s-5.1-10.78-13.57-16.75c-7.14-5-11.79-6.12-19.06-4.62-9.34,1.93-19.93,13.09-24.55,26.86-5.53,16.47-5.58,24.45-5.78,31.77-.31,11.74,1.54,18.68,1.54,18.68s-8.06-14.93-8-36.78c.05-15.6,2.51-29.75,9.73-43.71,6.35-12.27,15.78-19.64,24.16-20.5,8.66-.9,15.51,3.27,20.8,7.79,5.55,4.75,11.16,15.12,11.16,15.12Z"/><path d="M395,289.24s-5.87,10.49-9.53,14.54-10.2,11.16-18.29,14.73-12.32,4.23-20.31,3.46-15.4-5.39-18-7.31-9.24-7.61-13-12.9-9.62-15.89-9.62-15.89,3.27,10.61,5.32,15.12a98.46,98.46,0,0,0,9.94,17.42c4.79,6.44,14.1,17.52,28.25,20A36,36,0,0,0,376.05,333a71.38,71.38,0,0,0,10.69-9.22,81.24,81.24,0,0,0,8.28-10.9c1.28-2,3.37-6.06,3.37-6.06Z"/></g></svg>