<?xml version="1.0" encoding="UTF-8"?> <svg xmlns="http://www.w3.org/2000/svg" id="Layer_1" data-name="Layer 1" viewBox="0 0 500 486.4"><title>webrtc</title><path d="M272,347.2a90,90,0,1,1-90-90,90,90,0,0,1,90,90" fill="#f60"></path><path d="M450,221.2a90,90,0,1,1-90-90,90,90,0,0,1,90,90" fill="#fc0"></path><path d="M230,219.2a90,90,0,1,1-90-90,90,90,0,0,1,90,90" fill="#0089cc"></path><path d="M410,347.2a90,90,0,1,1-90-90,90,90,0,0,1,90,90" fill="#009939"></path><path d="M340,139.2a90,90,0,1,1-90-90,90,90,0,0,1,90,90" fill="#bf0000"></path><path d="M270,221.2c0,1.89.17,3.75.28,5.62A90,90,0,0,0,340,139.2c0-1.9-.17-3.76-.28-5.63A90,90,0,0,0,270,221.2" fill="#fc0007"></path><path d="M281.88,265.77a89.69,89.69,0,0,0,116.25,36.87,89.66,89.66,0,0,0-116.25-36.87" fill="#1cd306"></path><path d="M230,347.2a89.56,89.56,0,0,0,21,57.74,89.88,89.88,0,0,0,0-115.48,89.56,89.56,0,0,0-21,57.74" fill="#0f7504"></path><path d="M104.36,301.84a89.88,89.88,0,0,0,113.28-37.27,89.84,89.84,0,0,0-113.28,37.27" fill="#0c5e87"></path><path d="M160.38,131.61c-.21,2.5-.39,5-.39,7.59a90,90,0,0,0,69.63,87.59c.2-2.5.38-5,.38-7.59a90,90,0,0,0-69.62-87.59" fill="#6b0001"></path><path d="M168.78,336.07H154.71a22.53,22.53,0,0,1-22.54-22.47V186.16a22.53,22.53,0,0,1,22.54-22.48H331.25a22.52,22.52,0,0,1,22.53,22.48V313.6a22.52,22.52,0,0,1-22.53,22.47H271.11L150.44,395.22l18.34-59.15Z" fill="#fff"></path></svg> 