<?xml version="1.0" encoding="UTF-8"?> <svg xmlns="http://www.w3.org/2000/svg" id="Layer_1" data-name="Layer 1" viewBox="0 0 500 500"><title>XR.Social</title><path d="M325.75,175.93q-22.68,0-45.36,0a3.51,3.51,0,0,0-2.92,1.33q-20.69,23.63-41.42,47.19-23.43,26.64-46.88,53.27c-1.45,1.64-1.44,1.64-2.93-.05L121,203.52,68.6,143.88c-2.7-3.07-5.42-6.12-8.11-9.19-.31-.36-.89-.71-.69-1.24s1-.38,1.46-.39q28.82,0,57.62,0a2.86,2.86,0,0,1,2.37,1q23.63,26.92,47.3,53.8,9,10.29,18.1,20.54c1.12,1.27,1.16,1.28,2.27,0q14.66-16.66,29.29-33.36,18-20.46,36-40.91a3,3,0,0,1,2.47-1.11c38.55,0,77.1-.07,115.64.1a56.58,56.58,0,0,1,18.5,3.67c22.28,7.9,37.49,23.13,45.21,45.31,9,25.83,6.52,51-7.14,74.69a67.14,67.14,0,0,1-36.78,30.64,70.09,70.09,0,0,1-8.92,2.47c-1.31.28-1.41.55-.52,1.53l41.13,45.62q12.81,14.22,25.61,28.45c.28.31.82.6.54,1.12s-.81.31-1.24.31H420.75c-9.76,0-19.52,0-29.28,0a3.81,3.81,0,0,1-3.17-1.4q-26.57-29.5-53.19-59c-16.88-18.77-34-37.31-51-56-.47-.51-1.4-1-1.11-1.71s1.3-.36,2-.36c27.92,0,55.85-.11,83.77,0,10.13.06,17.11-4.57,21.73-13.22,4.49-8.42,5.79-17.53,5.2-26.93-.46-7.34-2.13-14.38-6-20.75-3.29-5.5-7.75-9.58-14.14-11.18a22.83,22.83,0,0,0-5.53-.62Z" fill="#010101"></path><path d="M295.06,367c-9.53,0-19.07,0-28.6,0a3.37,3.37,0,0,1-2.82-1.26q-26.44-30.13-52.93-60.23c-4.68-5.32-9.33-10.66-14.06-15.92-1-1.09-.92-1.77,0-2.83q14.29-16.16,28.49-32.41c.84-1,1.33-.86,2.12,0q17,19.36,34,38.68l44.21,50.32,19.49,22.2c.28.32.84.6.53,1.12s-.83.26-1.26.26Z" fill="#010101"></path><path d="M80.35,367H51.89c-.32,0-.63,0-1,0s-.67.05-.86-.27.11-.68.34-.94q2.91-3.33,5.84-6.65l59.61-67.79Q132,272.87,148.2,254.45c.76-.87,1.24-1.09,2.11-.09q14.16,16.18,28.39,32.32c1.3,1.48,1.29,1.49,0,3l-56.35,64.13c-3.45,3.92-6.94,7.8-10.33,11.77a3.68,3.68,0,0,1-3.16,1.39C99.33,366.93,89.84,367,80.35,367Z" fill="#010101"></path></svg> 