<?xml version="1.0" encoding="UTF-8"?> <svg xmlns="http://www.w3.org/2000/svg" id="design" viewBox="0 0 500 500"><title>3d-icons-color-</title><polygon points="312.42 112.87 312.42 112.83 312.42 112.81 249.98 76.79 187.59 112.81 187.59 112.87 249.98 148.92 312.42 112.87" fill="#b770ff"></polygon><polygon points="162.49 199.46 224.89 163.45 224.89 163.41 162.4 127.37 100 163.38 162.47 199.46 162.49 199.46" fill="#ff2d8b"></polygon><polygon points="249.98 177.91 187.59 213.95 249.98 250 312.42 213.95 249.98 177.91" fill="#ffd104"></polygon><polygon points="275.11 163.41 275.11 163.45 337.54 199.46 400 163.38 337.57 127.34 275.11 163.41" fill="#b2ff59"></polygon><polygon points="249.98 148.95 249.98 177.91 275.11 192.4 275.11 163.45 275.11 163.41 312.42 141.86 312.42 112.87 249.98 148.92 249.98 148.95" fill="#7226ba"></polygon><polygon points="162.47 199.49 162.47 372.6 187.59 358.11 187.59 213.95 224.89 192.4 224.89 163.45 162.49 199.46 162.47 199.49" fill="#b01d5f"></polygon><polygon points="337.54 199.46 337.54 372.7 400 336.62 400 163.38 337.54 199.46" fill="#80cc27"></polygon><polygon points="250.02 423.21 312.42 387.19 312.42 213.95 249.98 250 250.02 423.21" fill="#f28e00"></polygon><polygon points="187.59 141.86 187.59 141.9 224.89 163.41 224.89 163.45 224.89 192.4 249.98 177.91 249.98 148.95 249.98 148.92 187.59 112.87 187.59 141.86" fill="#9b37ff"></polygon><polygon points="275.11 163.45 275.11 192.4 312.42 213.95 312.42 358.11 337.51 372.6 337.54 271.51 337.54 199.46 275.11 163.45" fill="#94f029"></polygon><polygon points="187.59 387.19 249.98 423.21 249.98 250 187.59 213.95 187.59 387.19" fill="#ffb404"></polygon><polygon points="100 336.61 162.47 372.69 162.47 199.49 162.47 199.46 100 163.38 100 336.61" fill="#cc226f"></polygon></svg> 