<?xml version="1.0" encoding="UTF-8"?> <svg xmlns="http://www.w3.org/2000/svg" id="design" viewBox="0 0 500 500"><title>3d-icons-color-</title><polygon points="352.46 287.63 352.46 356.47 321.73 338.75 321.73 305.39 321.7 305.39 290.98 287.67 321.73 269.88 352.46 287.63" fill="#00adff"></polygon><polygon points="352.46 183.29 352.46 252.16 321.73 234.43 321.73 201.05 321.73 201.01 292.85 184.34 292.85 148.87 352.46 183.29" fill="#3c33ff"></polygon><polygon points="262.1 131.15 262.1 166.62 231.4 184.34 231.4 148.87 231.36 148.87 202.48 132.18 202.48 97.22 202.71 96.84 262.1 131.11 262.1 131.15" fill="#cc226f"></polygon><polygon points="262.1 235.47 262.1 304.31 233.25 287.63 202.48 269.88 202.48 269.85 202.48 234.51 202.48 201.05 262.1 235.47" fill="#ffb404"></polygon><polygon points="262.1 339.84 262.1 408.65 202.48 374.23 202.48 338.75 202.48 305.39 202.51 305.36 262.1 339.77 262.1 339.84" fill="#94f029"></polygon><polygon points="171.73 287.63 171.73 356.47 112.1 322.05 112.1 253.22 171.73 287.63" fill="#9b37ff"></polygon><polygon points="171.73 183.29 171.73 252.16 142.85 235.47 112.1 217.74 112.1 148.87 171.73 183.29" fill="#c736eb"></polygon><polygon points="202.48 269.88 233.25 287.63 202.51 305.36 202.48 305.36 202.48 305.39 202.48 338.75 171.73 356.47 171.73 287.63 202.48 269.88" fill="#7226ba"></polygon><polygon points="292.85 148.87 292.85 184.34 262.1 166.62 262.1 131.15 262.13 131.11 321.73 96.69 321.73 132.18 292.85 148.87" fill="#b01d5f"></polygon><polygon points="231.36 148.87 171.73 183.29 171.73 252.16 171.83 252.19 202.48 234.51 202.48 201.05 231.4 184.34 231.4 148.87 231.36 148.87" fill="#b130d1"></polygon><polygon points="321.73 234.43 321.73 269.88 290.98 287.67 262.13 304.34 262.1 304.34 262.1 304.31 262.1 235.47 321.73 201.05 321.73 234.43" fill="#f28e00"></polygon><polygon points="352.46 183.29 412.1 148.87 412.1 217.74 381.35 235.47 352.46 252.16 352.46 183.29" fill="#3023bd"></polygon><polygon points="352.46 287.63 412.1 253.22 412.1 322.05 352.46 356.47 352.46 287.63" fill="#0089fa"></polygon><polygon points="321.73 338.75 321.73 374.23 262.1 408.65 262.1 339.84 262.13 339.81 321.7 305.39 321.73 305.39 321.73 338.75" fill="#80cc27"></polygon><polygon points="352.46 252.16 381.35 235.47 412.1 253.22 352.46 287.63 321.73 269.88 321.73 234.43 352.46 252.16" fill="#00e9fe"></polygon><polygon points="290.98 287.67 262.13 304.34 262.1 304.34 262.1 304.31 233.25 287.63 202.51 305.36 262.1 339.77 262.13 339.81 321.7 305.39 290.98 287.67" fill="#b2ff59"></polygon><polygon points="202.48 269.85 202.48 269.88 171.73 287.63 112.1 253.22 112.1 253.18 142.85 235.47 171.73 252.16 171.73 252.25 171.83 252.19 202.48 234.51 202.48 269.85" fill="#b770ff"></polygon><polygon points="292.85 184.34 321.73 201.01 321.73 201.05 262.1 235.47 202.48 201.05 231.4 184.34 262.1 166.62 292.85 184.34" fill="#ffd104"></polygon><polygon points="321.73 132.18 352.46 114.42 412.1 148.87 352.46 183.29 292.85 148.87 321.73 132.18" fill="#4a5fff"></polygon><polygon points="262.1 131.11 202.71 96.84 202.51 96.69 262.1 62.28 321.73 96.69 262.13 131.11 262.1 131.11" fill="#ff2d8b"></polygon><polygon points="202.48 132.18 231.36 148.87 171.73 183.29 112.1 148.87 171.73 114.45 202.48 132.18" fill="#e169ff"></polygon></svg> 