<?xml version="1.0" encoding="UTF-8"?> <svg xmlns="http://www.w3.org/2000/svg" id="design" viewBox="0 0 500 500"><title>3d-icons-color-</title><polygon points="351.73 147.65 351.21 204.61 390.81 231.43 399.49 230.66 399.49 292.35 352.87 321.46 352.87 376.64 298.34 408.95 250.83 378.81 197.19 408.95 187.99 389.03 192.08 307.8 195.15 214.82 283.01 161.69 330.02 149.94 351.73 147.65" fill="#0089fa"></polygon><polygon points="351 146.53 300.89 117.76 252.36 144.84 206.9 118.27 149.82 147.83 149.81 147.9 196.17 176.64 149.81 203.84 199.74 235.77 249.42 204.99 296.94 234.11 347.89 201.92 307.28 177.02 305.75 175.87 352.11 147.9 351 146.53" fill="#00e9fe"></polygon><polygon points="203.32 292.47 249.3 319.55 295.79 286.34 252.88 259.78 203.32 292.47" fill="#00e9fe"></polygon><polygon points="352.49 205.38 352.49 258.63 400 230.66 352.49 205.38" fill="#00e9fe"></polygon><path d="M100.64,234.23l49.17,28.61Z" fill="none"></path><polygon points="149.81 203.84 100.64 234.23 149.81 262.84 149.81 203.84" fill="#00e9fe"></polygon><polygon points="150.19 148.29 195.79 176.64 149.81 203.84 150.19 148.29" fill="#00adff" fill-rule="evenodd"></polygon><polygon points="149.81 203.84 199.62 235.65 199.23 289.28 248.66 319.55 247.51 378.17 196.93 348.67 196.93 408.06 149.04 383.54 148.66 326.45 100 296.18 100 234.11 149.43 262.46 149.81 203.84" fill="#00adff" fill-rule="evenodd"></polygon><polygon points="251.34 206.52 252.11 259.78 295.79 286.6 296.94 234.49 251.34 206.52" fill="#00adff" fill-rule="evenodd"></polygon><polyline points="250.83 378.81 296.55 347.14 297.7 346.37 297.7 408.95" fill="#00adff" fill-rule="evenodd"></polyline></svg> 