<?xml version="1.0" encoding="UTF-8"?> <svg xmlns="http://www.w3.org/2000/svg" id="design" viewBox="0 0 500 500"><title>3d-icons-color-</title><polygon points="233.22 344.37 383.23 257.78 383.23 318.73 233.22 405.32 233.22 344.37" fill="#b01d5f"></polygon><polygon points="233.22 296.3 233.22 232.13 383.23 145.53 383.23 209.71 233.22 296.3" fill="#f28e00"></polygon><polygon points="177.65 200.03 177.65 264.23 136.01 288.25 136.01 176 286 89.41 286 137.49 177.65 200.03" fill="#b01d5f"></polygon><polygon points="233.22 232.13 233.22 296.3 177.65 264.23 177.65 200.03 233.22 232.13" fill="#ffb404"></polygon><polygon points="233.22 344.37 233.22 405.32 83.23 318.73 83.23 145.53 136.01 176 136.01 288.25 233.22 344.37" fill="#cc226f"></polygon><polygon points="233.22 296.3 177.65 264.23 136.01 288.25 233.22 344.37 383.23 257.78 341.6 233.72 233.22 296.3" fill="#ff2d8b"></polygon><polygon points="286 89.41 233.22 58.94 83.23 145.53 136.01 176 286 89.41" fill="#ff2d8b"></polygon><polygon points="177.65 200.03 233.22 232.13 383.23 145.53 327.62 113.43 177.65 200.03" fill="#ffd104"></polygon></svg> 