<?xml version="1.0" encoding="UTF-8"?> <svg xmlns="http://www.w3.org/2000/svg" id="design" viewBox="0 0 500 500"><title>3d-icons-color-</title><path d="M400,287.46v49.15L250,423.2V374C325,330.77,400,287.46,400,287.46Z" fill="#f28e00"></path><path d="M385.32,279C355,296.5,285.36,336.72,250,357.13V312c75-43.24,150-86.56,150-86.56v45.09Z" fill="#b01d5f"></path><path d="M385.34,217c-30.29,17.5-99.95,57.73-135.34,78.14V250l150-86.59V208.5Z" fill="#241a8c"></path><polygon points="250 159.84 216.98 178.92 187.67 161.98 250 126.03 250 159.81 250 159.84" fill="#241a8c"></polygon><polygon points="312.3 162.01 283.02 178.92 250 159.84 250 159.81 250 126.03 312.3 162.01" fill="#3023bd"></polygon><path d="M250,374V423.2L100,336.61V287.46S175,330.77,250,374Z" fill="#ffb404"></path><path d="M250,295.1C214.63,274.69,145,234.49,114.68,217L100,208.5V163.42L250,250Z" fill="#3023bd"></path><path d="M250,312v45.13C214.63,336.72,145,296.5,114.68,279L100,270.53V225.44S175,268.76,250,312Z" fill="#cc226f"></path><path d="M385.32,279,400,287.46S325,330.77,250,374c-75-43.25-150-86.56-150-86.56L114.68,279C145,296.5,214.63,336.72,250,357.13,285.36,336.72,355,296.5,385.32,279Z" fill="#ffd104"></path><path d="M385.34,217,400,225.44S325,268.76,250,312c-75-43.24-150-86.56-150-86.56L114.68,217C145,234.49,214.63,274.69,250,295.1,285.39,274.69,355.05,234.46,385.34,217Z" fill="#ff2d8b"></path><path d="M400,163.42,250,250,100,163.42,250,76.8ZM312.3,162,250,126l-62.33,36L250,198Z" fill="#4a5fff"></path></svg> 