<?xml version="1.0" encoding="UTF-8"?> <svg xmlns="http://www.w3.org/2000/svg" id="Layer_1" data-name="Layer 1" viewBox="0 0 500 500"><title>CasAndChary</title><path d="M422.51,460.58h-6.85a5.66,5.66,0,0,0,2.12-6.23c-.64-2.57-2.85-2.47-4.8-2.87-4.63-.93-9.37-1.59-13.21-5.21,3.59-1.42,7.06-2.56,10.31-4.16s5.41-4.14,4.66-7.89a21.35,21.35,0,0,0-8.32-13.5c-2.7-2-4.83-1.62-7.08.31s-3.57,4.24-5.27,6.44c-.79,1-1.51,2.94-3.08,2.29-2.72-1.15-2.75.79-3.09,2.29-1.43,6.39-2.85,12.78-4.13,19.2-.59,2.94,1.54,7.37,3.68,7.56,3.42.29,4.12-2.58,5.11-5,.22-.52,0-1.28,1-1.62a26.68,26.68,0,0,0,8.5,5.27c2.48,1.08,5.29,1.38,7.5,3.11q-178,0-356,.07c-2.85,0-3.67-.62-3.5-3.5.28-4.68.08-9.39.08-14.09.24.25.64.46.71.75,1.82,7.85,7.24,11.52,14.69,13.33,5.15,1.25,10.26,1.14,15.42.79,2.24-.15,6.13-3.85,5.6-5.34-1-2.79-2.43-5-6.1-5.17-5.91-.24-11.89-.17-17.68-1.82-3-.84-3.67-2.61-2.55-5.37,1.61-4,4.92-6.33,8.34-8.44,4.69-2.9,9.48-5.55,15-6.94,3.74-1,5.73-4.85,4.58-7.56s-7.41-6.45-9.54-5.18c-6.47,3.84-13.47,6.77-19.47,11.45-3.7,2.89-6.21,6.7-8.95,10.36q0-195.54-.08-391.09c0-2.85.65-3.5,3.5-3.5q101.1.15,202.2.08c-4,2.25-8.8,2.22-13,4.45.37.27.56.52.72.51a155.55,155.55,0,0,1,47.91,3.48c19,4.5,36.59,12.08,50.6,25.93a190.46,190.46,0,0,1,35.46,48.15c12,23.31,19.22,48.29,19.26,74.9,0,16-.07,32-2.81,47.76-3.08,17.7-11.49,33.54-19.45,49.44a30.09,30.09,0,0,0-3.24,8.72c1.18.25,1.58-.54,2.1-1a54.69,54.69,0,0,0,7.14-8.85c26.77-37.54,39.74-78.68,32.17-125-5.33-32.63-19-61.1-43.26-84s-52.92-37.13-86-42.32c-4.64-.72-9.42-.53-13.92-2.16q88.72,0,177.45-.08c2.61,0,3.12.52,3.12,3.12q-.12,207.54,0,415.08c0,2.61-.5,3.21-3.12,3.13-7.1-.23-14.21-.08-21.32-.08.79-1.23,1.63-2.43,2.36-3.7,6.08-10.5,10.91-21.83,20.2-30.2a3,3,0,0,0,.26-4.68c-3.51-3.75-5.33-3.58-9.13,0-3.31,3.1-5.25,7.26-8.78,10.89-.51-2.42-1.08-4.3-1.28-6.23-.35-3.42-2.3-5.37-5.33-6.61-2.54-1-4.18-.28-3.89,2.4.51,4.72,0,10,2.58,13.95,3.27,5.07,1.32,8.81-1,13.09C418.09,455.73,418.22,455.8,422.51,460.58ZM198.93,188.42a6.4,6.4,0,0,1,.29,4.67c-1.6,4.27-1.53,8.69-1.5,13.13.07,9.18,4.36,15.66,12.86,19.08a27.67,27.67,0,0,1,13.21,10.38c.78,1.19,1.39,2.63,3.12,3.4.57-3.06,0-5.92-.46-8.73-1.31-7.55-5.12-14-9.66-19.94a35.13,35.13,0,0,1-7.6-24.36c.48-8.2.43-16.41-1.44-24.57-3.59-15.76-11.45-27.2-28.64-29.6-9.67-1.36-19-.7-26.88,6.07-2.11,1.81-4.28,4.16-6.79,4.76-6.35,1.54-11.33,3.39-8.2,11.46.07.17-.35.69-.64.8-1.19.49-1.2.73.11.93.57.09,1.52-.22,1.61.57a24.3,24.3,0,0,1-.64,9c-.54,2-2.75,1.4-4.2,1.76-4,1-7.23,2.82-7.82,7.17s1.85,7.39,5.36,9.72c2.8,1.86,6,1.8,9.13,2.09,1.59.16,2.13.54,2.21,2.17.53,10.44,7.8,15.92,15.69,20.82,2.17,1.34,4.56,1.15,6.93.11,1.21-.53,2.25-1.6,3.73-1.48,1.22,4.71,1.12,9-2.49,12.79-1.18,1.23-1.17,2.91-.82,4.66a30,30,0,0,1-.32,12.83c-1.27,5.59-5.23,8.92-10.88,8.47-6.27-.49-10.41,1.21-12.15,7.84-.81,3.11-3.32,5.62-5.56,8.06-5.46,6-7.25,16.47-1.9,22.36a35.62,35.62,0,0,1,9.09,19.56c0,.12.07.24.1.37,2.59,10.28,6.17,20.6-1.26,30.48a6.33,6.33,0,0,0-.54,1.42c-2.44,6-1.81,7.82,3.86,11,33,18.81,68.64,24.92,106.1,20.48a184.21,184.21,0,0,0,82.18-30.78c5.34-3.59,5.88-5,3.16-10.95-4.56-10-8.73-20-7.54-31.3.91-8.57,1.3-17.17,5.92-25.07,5.54-9.49,4-19-3.23-27.25-2.59-3-5.09-6-7.74-8.9a15.72,15.72,0,0,1-4.25-12.17c.13-1.89.12-3.8.1-5.7-.05-7.49-3-11.39-10.16-13.66-4.21-1.33-8.43-2.62-12.61-4-5.5-1.86-7.38-4.62-7.83-10.36-.27-3.43.67-4.68,4.15-3.54s6,0,7.6-3.58a114.13,114.13,0,0,1,6-10.54,20.72,20.72,0,0,0,2.85-9.74c.52-9.24.49-9.24-8.61-9.28h-6.09c-6.6,0-13.2,0-19.8-.12-5.43-.12-8.29-3.3-7.39-8.19.84-4.51,4.7-5,8.18-5.36,12.86-1.43,25.8-1.47,38.72-2,4.4-.17,6.48,2.05,6.57,6.45a8.65,8.65,0,0,1-4.52,8.22,4.22,4.22,0,0,0-2.47,4.76c.76,7.66-.7,14.59-6.36,20.3a34.34,34.34,0,0,0-3.89,5.61c-2.43,3.69-.51,10.79,3.47,12.69a2.66,2.66,0,0,0,2.17.15c1.94-1.41,3.71-.64,5.68-.13,6,1.55,12.64-5.42,10.59-11.29-.74-2.13,0-2.81,1.47-3.9,3.55-2.65,7.07-5.37,10.37-8.33,2.77-2.5,2.91-6.82,0-9-3.34-2.57-2.39-5.4-1.47-8.39,1.08-3.49,2.45-6.9,3.43-10.43a8.22,8.22,0,0,0-2.61-9c-3.2-2.59-2.55-6.09-2-9,1.12-6-.65-10.91-5.82-14.23a5.83,5.83,0,0,1-2.31-6.52c2.34-6.38,1.58-10.19-3.9-14.88a5.62,5.62,0,0,0-7-.82c-3.2,1.77-5.87.34-7.74-2-5.57-7.07-12.77-7.06-18.11.26-2.59,3.55-5.4,3.37-7.51-.48-2.41-4.39-5.87-5-9.61-1.68-1,.92-1.86,2.08-2.82,3.08-1.21,1.26-6.16,1.5-7.27.38-7-7-17.64-4.93-21.37,4.47-1,2.59-1.94,3-4.54,2.55-10.92-1.88-19.41,3.28-22.77,13.55-1.4,4.27-1.4,8.29,2.69,11.23,1.33,1,1.11,1.63.48,3a16.55,16.55,0,0,1-3.79,5.36c-7.41,7.23-6.4,22.8,1.68,27.57,1.91,1.13,3.57,1.61,3.66,4.69.06,2,1.06,3.94.24,6.25-1.71,4.83-2.43,9.8-1.08,14.93,1.27,4.87,3.75,7.12,8.73,7.45a27.91,27.91,0,0,0,4.19,0c3.89-.33,5.76,2.37,6.93,5.21,1.87,4.55,5.44,5.86,9,2.55,1.49-1.38,2.09-1.55,3.74-.11,3.31,2.89,6.85,1.81,11.38-3,2.72-2.88,2.69-4.6-.44-8.17-2-2.31-2.93-4.64-1.4-7.59.77-1.49,1.31-3.25-.21-4.56-3.28-2.83-1.57-5.08.59-7.81.38,3.61.35,3.65,3.55,6,2.08,1.5,3.33,3.21,1.64,5.69-1.53,2.24-.83,3.69,1,5.51,5.84,5.79,3.35,14.67-4.54,17.12a13.4,13.4,0,0,1-9.26-.58,10.24,10.24,0,0,0-7-.3,32.58,32.58,0,0,0-17,11.47,8.33,8.33,0,0,0-1.84,5.23c-.1,8.52.3,17,2.46,25.26,2.27,8.76,5.05,17.32,10.09,25,2.46-1.62,2.94-4.76,5.79-5.79,2.3,6.8,5.06,13.28,9.53,18.91a68.58,68.58,0,0,1,5.63,8.11c5.89,10.1,7,20.22.65,30.79-6.89,11.46-14,22.91-15.24,36.79-.09,1-.36,2.44-1.9,2.46-4.33.05-8.66,0-13.45,0,1.8-3.41,3.37-6.26,4.84-9.17,6.78-13.4,14.74-26.18,21-39.85,2.44-5.3,2.14-9.88-1.59-14.42a93.8,93.8,0,0,1-8.73-12.86c-7.77-13.44-17-26-23.46-40.23-3.14-6.94-9-11-16.45-12.85s-11.8-6.82-13.39-14.35C192.14,204.4,195.23,196.72,198.93,188.42ZM107,315.86c.73-.88.28-1.58,0-2.23-6-13.92-10.54-28.34-14.74-42.87-5.34-18.49-9.74-37.18-10.1-56.57-.23-12.33,1.23-24.51,3-36.69,2.69-18.75,8.46-36.22,19.28-52.06C116.32,108,131,93.3,147.3,80.05c9-7.32,17.9-14.82,28-21.24-1.87-.73-2.82.37-3.88.9-20.12,10.08-38.18,23-53.23,39.77C79.93,142.1,63,191.24,73.75,248.46,78.54,273.94,90.17,296.17,107,315.86ZM291,458.37l6.95-.45c.25,0,.51.07.76,0,2.22-.3,6.17-3.81,5.65-5.31-1-2.8-2.37-5.07-6.06-5.22-5.92-.24-11.89-.19-17.69-1.81-2.95-.82-3.59-2.56-2.64-5.36a11.31,11.31,0,0,1,4.13-5.27c5.59-4.32,11.44-8.15,18.49-9.8a6.73,6.73,0,0,0,5.49-5.62c.61-3.41-2.4-4.44-4.22-6.05a5.22,5.22,0,0,0-6.79-.66c-4.19,2.54-8.56,4.79-12.85,7.17a33.32,33.32,0,0,0-12.95,12.3c-3.09,5.29-.45,16.5,4.22,20.24C278.69,456.74,284.85,457.58,291,458.37Zm38.67-7.77c-.36,3.83,2,7.9,4.54,7.93,3.36,0,5.57-3,5.32-7.53a7,7,0,0,1,.82-3.23c3.83-9.18,5.64-18.24-.66-27.31-1.6-2.3-2.33-1.69-3.46-.11-1.94,2.72-1.49,6.06-1.94,9.08-1.58,10.7.55,8.4-10.06,11.24a6.15,6.15,0,0,0-.75.1c-3.23,1.14-3.45-.54-2.78-3,1.44-5.29,2.18-10.45-2.55-14.65-.8-.7-.42-2.57-2-2.32-1.37.21-2,1.53-2.41,2.71a16.18,16.18,0,0,0-1,4c-.61,8.08-2.7,15.82-5.13,23.5-.94,2.94.56,7,3.18,7.89a5.14,5.14,0,0,0,6.82-3.17c1.76-4.51,5.69-5.74,9.52-7.2C329,447.88,331,447.6,329.65,450.6Zm-219.1,2.77a26.39,26.39,0,0,1,1.93,2.8c1.65,3.12,3.68,3.83,6.55,1.92,3-2,4.86-4.75,4.17-8.63-.28-1.51-.56-2.92,1.3-3.85,1.35-.67,3-2.06,2.58-3.41a4.83,4.83,0,0,0-4.35-3c-2.66.24-2.68-1.41-3-2.87-.79-3.83-1.36-7.7-2.07-11.55-.48-2.61-6.25-6.17-7.62-4.57-2.63,3.1-4.94,6.32-9.33,7-.35.05-.66.74-.87,1.19-3.64,7.75-7.36,15.46-10.85,23.27-1.19,2.67.57,6.71,3.06,7.09,3,.44,4.82-1.11,5.59-4.18.7-2.76,1.44-5.63,3.89-7.57,1.6,3.69,2.28,4.12,6,3.47,1.48-.26,2.93-.76,4.41-1.09.83-.18,1.9-.58,2.29.55a1.84,1.84,0,0,1-1.17,2.44Zm255.77-.05a26,26,0,0,1,2,2.72c1.76,3.3,3.87,4,6.8,1.93s4.6-4.64,4-8.38c-.25-1.44-.77-2.91,1.16-3.9,1.42-.73,3.28-2.17,2.62-3.68-.59-1.34-2.79-2.9-4.15-2.79-2.79.22-2.85-1.56-3.18-3.13-.79-3.83-1.5-7.69-2-11.57s-3.88-3.33-6.25-4.37c-2-.89-2.13,1.12-2.93,2-1.77,1.94-3.21,4.26-6.35,4.24-1.27,0-1.91,1.19-2.39,2.21-3.61,7.62-7.26,15.23-10.7,22.92-1.22,2.71.46,6.37,2.89,7.24,2.23.81,4.75-1.21,5.77-4.44.84-2.63,1.38-5.46,4-7.37.5,3.66,2.89,4,5.65,3.53,1.49-.25,2.93-.76,4.41-1.08.95-.2,2.2-.69,2.5.75a1.93,1.93,0,0,1-1.47,2.32C368,452.69,367.3,453,366.32,453.32ZM141.41,431.13c6.52-2.88,12.29-2.19,18-2.07,2.33.05,4.42-.18,3.79-3-1.05-4.65-4.24-6.83-9.13-6.71-8.29.21-15.72,3.55-23.19,6.63-3.6,1.48-4.31,4.86-3.69,8.3.56,3.08,3.23,3.82,6,4.34,3.94.75,8,.64,11.79,2.5,2.06,1,2.42,1.95.6,3.55-3.68,3.25-7.89,5.58-12.78,5.89-2.73.18-3.67.95-3.36,3.55s.13,5.24,4,5.11a23.08,23.08,0,0,0,18-9.08c2.78-3.5,2.19-7,.06-10.88A16.3,16.3,0,0,0,141.41,431.13ZM162.85,230a23.8,23.8,0,0,0-2.55-11c-1.58-3-4.47-4.17-7.32-2.33-4.07,2.64-10,2.77-11.79,8.63-.17.55-1.17.92-1.84,1.26A12,12,0,0,0,133,241.13c1.51,5.23,5.29,6.77,9.84,3.89a12.47,12.47,0,0,1,7.44-2.24C158.22,243.05,163,238,162.85,230Zm53.23,202.87a58.38,58.38,0,0,0,3.51,4.88c3,3.38,5,3.21,8-.28a16.27,16.27,0,0,0,4.11-9.16c.28-2.37.28-5.06,1.44-7,2.3-3.83.6-5.72-2.37-7.71-1.77-1.18-2.06-.74-2.71,1.1a49.29,49.29,0,0,0-2.07,8.42,16.61,16.61,0,0,1-2.71,6.61c-.42.62-1,1.38-1.79,1.19-1-.22-.67-1.21-.7-1.92a23.64,23.64,0,0,1,1-8.58c1-2.93-.92-5.95-4.25-6.9-3-.85-2.52,2.15-3.24,3.49-2.4,4.44-4.33,9.12-6.73,13.56a7.46,7.46,0,0,0,.24,7.81c.66,1.16,1.16,2.71,3,2.44a3,3,0,0,0,2.6-2.82A13.12,13.12,0,0,1,216.08,432.88Zm-20.22,1.71c.84-.2,1.64-.66,2,.42a1.16,1.16,0,0,1-.84,1.49c-1.45.52-1.55,1-.63,2.35S198,442,200,441.22c2.79-1,5-3,4.48-6.19a3.57,3.57,0,0,1,1.66-4c1.63-1.17,1.62-2.73-.46-3.16-3.44-.71-4-3.08-4.28-5.92a47.81,47.81,0,0,0-1.17-5.93c-.68-2.82-4.42-3.17-5-2.54-2.18,2.56-5.92,3.45-7.44,5.9-3.3,5.31-5.66,11.23-8.1,17a3.31,3.31,0,0,0,2.3,4.54c2.16.58,3.49-.74,4.1-2.85a35.54,35.54,0,0,1,1.44-3.89c.23-.54,1-1.46,1.29-.89C190.81,436.63,193.54,434.67,195.86,434.59ZM256,427.34a14.71,14.71,0,0,0-1.14-3.22c-3.8-6.51-10.55-8.58-17-11.09-1.26-.49-1.25.53-1.32,1.16-.23,2-.89,4.24-.38,6.11,1.26,4.68.08,9-1.27,13.29a7.63,7.63,0,0,0,.26,5.87c.59,1.24,1.39,2.38,3.22,1.58,4.84-2.11,10-3.62,14.14-7C254.41,432.47,256.08,430.76,256,427.34Zm20.09-287.45a135.68,135.68,0,0,0,26.08,1.88c4.43-.06,8.87-.24,13.29-.56.94-.07,2.61-.35,2.31-1.88-.23-1.2-1.62-.94-2.61-.9Z" fill="#fff"></path><path d="M269.43,39.41c4.5,1.63,9.28,1.44,13.92,2.16,33.08,5.19,61.68,19.44,86,42.32s37.93,51.33,43.26,84c7.57,46.35-5.4,87.49-32.17,125a54.69,54.69,0,0,1-7.14,8.85c-.52.48-.92,1.27-2.1,1a30.09,30.09,0,0,1,3.24-8.72c8-15.9,16.37-31.74,19.45-49.44,2.74-15.74,2.84-31.77,2.81-47.76,0-26.61-7.26-51.59-19.26-74.9A190.46,190.46,0,0,0,342,73.78c-14-13.85-31.64-21.43-50.6-25.93a155.55,155.55,0,0,0-47.91-3.48c-.16,0-.35-.24-.72-.51,4.17-2.23,9-2.2,13-4.45Z" fill="#fff"></path><path d="M50.1,433.92c2.74-3.66,5.25-7.47,8.95-10.36,6-4.68,13-7.61,19.47-11.45,2.13-1.27,8.36,2.38,9.54,5.18s-.84,6.61-4.58,7.56c-5.47,1.39-10.26,4-15,6.94-3.42,2.11-6.73,4.45-8.34,8.44-1.12,2.76-.4,4.53,2.55,5.37,5.79,1.65,11.77,1.58,17.68,1.82,3.67.15,5.11,2.38,6.1,5.17.53,1.49-3.36,5.19-5.6,5.34-5.16.35-10.27.46-15.42-.79-7.45-1.81-12.87-5.48-14.69-13.33-.07-.29-.47-.5-.71-.75Z" fill="#fff"></path><path d="M409.56,460.58c-2.21-1.73-5-2-7.5-3.11a26.68,26.68,0,0,1-8.5-5.27c-1,.34-.78,1.1-1,1.62-1,2.41-1.69,5.28-5.11,5-2.14-.19-4.27-4.62-3.68-7.56,1.28-6.42,2.7-12.81,4.13-19.2.34-1.5.37-3.44,3.09-2.29,1.57.65,2.29-1.28,3.08-2.29,1.7-2.2,3.14-4.61,5.27-6.44s4.38-2.31,7.08-.31a21.35,21.35,0,0,1,8.32,13.5c.75,3.75-1.53,6.34-4.66,7.89s-6.72,2.74-10.31,4.16c3.84,3.62,8.58,4.28,13.21,5.21,1.95.4,4.16.3,4.8,2.87a5.66,5.66,0,0,1-2.12,6.23Zm-12.74-22.94c3,.07,5.39-1.54,7.94-2.47,1.83-.66.63-1.92.14-2.76-.65-1.09-1.66-2.87-3-1.7C399.76,432.51,397.36,434.35,396.82,437.64Z" fill="#fff"></path><path d="M422.51,460.58c-4.29-4.78-4.42-4.85-1-11.11,2.35-4.28,4.3-8,1-13.09-2.57-4-2.07-9.23-2.58-13.95-.29-2.68,1.35-3.44,3.89-2.4,3,1.24,5,3.19,5.33,6.61.2,1.93.77,3.81,1.28,6.23,3.53-3.63,5.47-7.79,8.78-10.89,3.8-3.56,5.62-3.73,9.13,0a3,3,0,0,1-.26,4.68c-9.29,8.37-14.12,19.7-20.2,30.2-.73,1.27-1.57,2.47-2.36,3.7Z" fill="#fff"></path><path d="M198.93,188.42c-3.7,8.3-6.79,16-4.94,24.7,1.59,7.53,5.87,12.53,13.39,14.35s13.31,5.91,16.45,12.85c6.45,14.23,15.69,26.79,23.46,40.23A93.8,93.8,0,0,0,256,293.41c3.73,4.54,4,9.12,1.59,14.42-6.29,13.67-14.25,26.45-21,39.85-1.47,2.91-3,5.76-4.84,9.17,4.79,0,9.12,0,13.45,0,1.54,0,1.81-1.42,1.9-2.46,1.2-13.88,8.35-25.33,15.24-36.79,6.36-10.57,5.24-20.69-.65-30.79a68.58,68.58,0,0,0-5.63-8.11c-4.47-5.63-7.23-12.11-9.53-18.91-2.85,1-3.33,4.17-5.79,5.79-5-7.68-7.82-16.24-10.09-25-2.16-8.28-2.56-16.74-2.46-25.26a8.33,8.33,0,0,1,1.84-5.23,32.58,32.58,0,0,1,17-11.47,10.24,10.24,0,0,1,7,.3,13.4,13.4,0,0,0,9.26.58c7.89-2.45,10.38-11.33,4.54-17.12-1.84-1.82-2.54-3.27-1-5.51,1.69-2.48.44-4.19-1.64-5.69-3.2-2.31-3.17-2.35-3.55-6-2.16,2.73-3.87,5-.59,7.81,1.52,1.31,1,3.07.21,4.56-1.53,3-.63,5.28,1.4,7.59,3.13,3.57,3.16,5.29.44,8.17-4.53,4.79-8.07,5.87-11.38,3-1.65-1.44-2.25-1.27-3.74.11-3.59,3.31-7.16,2-9-2.55-1.17-2.84-3-5.54-6.93-5.21a27.91,27.91,0,0,1-4.19,0c-5-.33-7.46-2.58-8.73-7.45-1.35-5.13-.63-10.1,1.08-14.93C221,164,220,162,220,160c-.09-3.08-1.75-3.56-3.66-4.69-8.08-4.77-9.09-20.34-1.68-27.57a16.55,16.55,0,0,0,3.79-5.36c.63-1.42.85-2.1-.48-3-4.09-2.94-4.09-7-2.69-11.23,3.36-10.27,11.85-15.43,22.77-13.55,2.6.45,3.51,0,4.54-2.55,3.73-9.4,14.39-11.49,21.37-4.47,1.11,1.12,6.06.88,7.27-.38,1-1,1.78-2.16,2.82-3.08,3.74-3.34,7.2-2.71,9.61,1.68,2.11,3.85,4.92,4,7.51.48,5.34-7.32,12.54-7.33,18.11-.26,1.87,2.37,4.54,3.8,7.74,2a5.62,5.62,0,0,1,7,.82c5.48,4.69,6.24,8.5,3.9,14.88a5.83,5.83,0,0,0,2.31,6.52c5.17,3.32,6.94,8.22,5.82,14.23-.53,2.86-1.18,6.36,2,9a8.22,8.22,0,0,1,2.61,9c-1,3.53-2.35,6.94-3.43,10.43-.92,3-1.87,5.82,1.47,8.39,2.89,2.23,2.75,6.55,0,9-3.3,3-6.82,5.68-10.37,8.33-1.46,1.09-2.21,1.77-1.47,3.9,2.05,5.87-4.57,12.84-10.59,11.29-2-.51-3.74-1.28-5.68.13a2.66,2.66,0,0,1-2.17-.15c-4-1.9-5.9-9-3.47-12.69a34.34,34.34,0,0,1,3.89-5.61c5.66-5.71,7.12-12.64,6.36-20.3a4.22,4.22,0,0,1,2.47-4.76,8.65,8.65,0,0,0,4.52-8.22c-.09-4.4-2.17-6.62-6.57-6.45-12.92.5-25.86.54-38.72,2-3.48.39-7.34.85-8.18,5.36-.9,4.89,2,8.07,7.39,8.19,6.6.13,13.2.09,19.8.12h6.09c9.1,0,9.13,0,8.61,9.28a20.72,20.72,0,0,1-2.85,9.74,114.13,114.13,0,0,0-6,10.54c-1.64,3.53-4,4.74-7.6,3.58s-4.42.11-4.15,3.54c.45,5.74,2.33,8.5,7.83,10.36,4.18,1.41,8.4,2.7,12.61,4,7.18,2.27,10.11,6.17,10.16,13.66,0,1.9,0,3.81-.1,5.7A15.72,15.72,0,0,0,324.69,234c2.65,2.91,5.15,5.95,7.74,8.9,7.22,8.21,8.77,17.76,3.23,27.25-4.62,7.9-5,16.5-5.92,25.07-1.19,11.27,3,21.34,7.54,31.3,2.72,5.94,2.18,7.36-3.16,10.95a184.21,184.21,0,0,1-82.18,30.78c-37.46,4.44-73.05-1.67-106.1-20.48-5.67-3.22-6.3-5-3.86-11a6.33,6.33,0,0,1,.54-1.42c7.43-9.88,3.85-20.2,1.26-30.48,0-.13-.08-.25-.1-.37a35.62,35.62,0,0,0-9.09-19.56c-5.35-5.89-3.56-16.4,1.9-22.36,2.24-2.44,4.75-4.95,5.56-8.06,1.74-6.63,5.88-8.33,12.15-7.84,5.65.45,9.61-2.88,10.88-8.47a30,30,0,0,0,.32-12.83c-.35-1.75-.36-3.43.82-4.66,3.61-3.75,3.71-8.08,2.49-12.79-1.48-.12-2.52.95-3.73,1.48-2.37,1-4.76,1.23-6.93-.11-7.89-4.9-15.16-10.38-15.69-20.82-.08-1.63-.62-2-2.21-2.17-3.11-.29-6.33-.23-9.13-2.09-3.51-2.33-5.94-5.35-5.36-9.72s3.85-6.17,7.82-7.17c1.45-.36,3.66.2,4.2-1.76a24.3,24.3,0,0,0,.64-9c-.09-.79-1-.48-1.61-.57-1.31-.2-1.3-.44-.11-.93.29-.11.71-.63.64-.8-3.13-8.07,1.85-9.92,8.2-11.46,2.51-.6,4.68-3,6.79-4.76,7.92-6.77,17.21-7.43,26.88-6.07,17.19,2.4,25,13.84,28.64,29.6,1.87,8.16,1.92,16.37,1.44,24.57a35.13,35.13,0,0,0,7.6,24.36c4.54,5.94,8.35,12.39,9.66,19.94.48,2.81,1,5.67.46,8.73-1.73-.77-2.34-2.21-3.12-3.4a27.67,27.67,0,0,0-13.21-10.38c-8.5-3.42-12.79-9.9-12.86-19.08,0-4.44-.1-8.86,1.5-13.13A6.4,6.4,0,0,0,198.93,188.42Zm-12-25.34-1-.92c-.47.69-.15,1.14.46,1.5.37,1.06.7,2.14,1.14,3.18,3.24,7.8,3.36,15.42-1,22.91-1.77,3-3.33,6.22-5,9.32-5.43,10-4.31,21.05,3,30,1.93,2.34,3.86,4.7,5.72,7.11,5.25,6.79,5.21,14.11-.1,20.87a64.8,64.8,0,0,0-7.78,12.08c-3.54,7.39-3.05,14.51,1.9,22.26-.15-3.26-.44-5.58-.33-7.88.42-8.44,5.5-14.74,10.07-21.24,1.3-1.86,2.63-3.61,3.17-5.94,2.09-8.87-.27-16.3-6.21-23.12-9.71-11.14-11-24.77-4.18-37.71,1.06-2,1.86-4.14,3-6.12C194.82,179.92,192.47,171.34,186.89,163.08Zm30.64,119c-4,10.21-8.34,19.3-11.21,28.93-2.38,8-1.15,15.73,3,23,3.54,6.25,3.51,6.29,10.23,3.65,1.83-.72,3.87-1.13,4.21-3.75a88.68,88.68,0,0,1,6.5-24.37c.76-1.76,1.85-3.83.68-5.83C226.81,296.65,222.81,289.52,217.53,282.08Zm-76.59-98c4.62-.5,9.53-.95,14.42-1.59,6.62-.87,13.3-1.54,19.67-3.71,3.42-1.16,4.48-3.89,4.23-7.18-.27-3.5-2.66-4.69-5.8-4.58-11.25.38-22.51.71-33.75,1.33-5.12.28-8.4,4.12-8.09,8.67S135.11,184.15,140.94,184.1Zm118.8-25.65c2.84-6.23,1.53-12.07-2.88-14.54-3.53-2-7.55-.78-10.13,3.05-2.9,4.29-2,11.07,1.85,14.12,3,2.34,5.91,2.21,8.42-.4-2.25-.7-5.46-1.06-4.14-4.41a42.15,42.15,0,0,0,2.62-10.67A27.21,27.21,0,0,1,259.74,158.45ZM182,177.88c2.59-1.55,4.39-3.38,4.06-5.89s-1.95-4.53-5.5-5.35C182.61,170.36,181.6,173.92,182,177.88Zm84.27-28.94c-1.08-3.66.13-7,1-11.16-2.91,1.71-4.48,3.5-4.75,6.16S263.83,148,266.25,148.94Z" fill="#fff"></path><path d="M107,315.86c-16.8-19.69-28.43-41.92-33.22-67.4C63,191.24,79.93,142.1,118.16,99.48c15.05-16.77,33.11-29.69,53.23-39.77,1.06-.53,2-1.63,3.88-.9-10.07,6.42-19,13.92-28,21.24-16.3,13.25-31,27.93-42.91,45.39C93.57,141.28,87.8,158.75,85.11,177.5c-1.74,12.18-3.2,24.36-3,36.69.36,19.39,4.76,38.08,10.1,56.57,4.2,14.53,8.75,28.95,14.74,42.87C107.25,314.28,107.7,315,107,315.86Z" fill="#fff"></path><path d="M291,458.37c-6.13-.79-12.29-1.63-17.51-5.81-4.67-3.74-7.31-14.95-4.22-20.24A33.32,33.32,0,0,1,282.2,420c4.29-2.38,8.66-4.63,12.85-7.17a5.22,5.22,0,0,1,6.79.66c1.82,1.61,4.83,2.64,4.22,6.05a6.73,6.73,0,0,1-5.49,5.62c-7.05,1.65-12.9,5.48-18.49,9.8a11.31,11.31,0,0,0-4.13,5.27c-.95,2.8-.31,4.54,2.64,5.36,5.8,1.62,11.77,1.57,17.69,1.81,3.69.15,5.09,2.42,6.06,5.22.52,1.5-3.43,5-5.65,5.31-.25,0-.51-.05-.76,0Z" fill="#fff"></path><path d="M329.65,450.6c1.35-3-.67-2.72-2.52-2-3.83,1.46-7.76,2.69-9.52,7.2a5.14,5.14,0,0,1-6.82,3.17c-2.62-.88-4.12-4.95-3.18-7.89,2.43-7.68,4.52-15.42,5.13-23.5a16.18,16.18,0,0,1,1-4c.42-1.18,1-2.5,2.41-2.71,1.6-.25,1.22,1.62,2,2.32,4.73,4.2,4,9.36,2.55,14.65-.67,2.44-.45,4.12,2.78,3a6.15,6.15,0,0,1,.75-.1c10.61-2.84,8.48-.54,10.06-11.24.45-3,0-6.36,1.94-9.08,1.13-1.58,1.86-2.19,3.46.11,6.3,9.07,4.49,18.13.66,27.31a7,7,0,0,0-.82,3.23c.25,4.49-2,7.56-5.32,7.53C331.69,458.5,329.29,454.43,329.65,450.6Z" fill="#fff"></path><path d="M110.55,453.37l2.5-1a1.84,1.84,0,0,0,1.17-2.44c-.39-1.13-1.46-.73-2.29-.55-1.48.33-2.93.83-4.41,1.09-3.68.65-4.36.22-6-3.47-2.45,1.94-3.19,4.81-3.89,7.57-.77,3.07-2.62,4.62-5.59,4.18-2.49-.38-4.25-4.42-3.06-7.09,3.49-7.81,7.21-15.52,10.85-23.27.21-.45.52-1.14.87-1.19,4.39-.67,6.7-3.89,9.33-7,1.37-1.6,7.14,2,7.62,4.57.71,3.85,1.28,7.72,2.07,11.55.29,1.46.31,3.11,3,2.87a4.83,4.83,0,0,1,4.35,3c.41,1.35-1.23,2.74-2.58,3.41-1.86.93-1.58,2.34-1.3,3.85.69,3.88-1.14,6.61-4.17,8.63-2.87,1.91-4.9,1.2-6.55-1.92A26.39,26.39,0,0,0,110.55,453.37Zm-6.77-11.28c8.91-.64,8.91-.64,5.69-8.27A32,32,0,0,0,103.78,442.09Z" fill="#fff"></path><path d="M366.32,453.32c1-.35,1.68-.63,2.4-.85a1.93,1.93,0,0,0,1.47-2.32c-.3-1.44-1.55-.95-2.5-.75-1.48.32-2.92.83-4.41,1.08-2.76.47-5.15.13-5.65-3.53-2.64,1.91-3.18,4.74-4,7.37-1,3.23-3.54,5.25-5.77,4.44-2.43-.87-4.11-4.53-2.89-7.24,3.44-7.69,7.09-15.3,10.7-22.92.48-1,1.12-2.21,2.39-2.21,3.14,0,4.58-2.3,6.35-4.24.8-.88.9-2.89,2.93-2,2.37,1,5.74.48,6.25,4.37s1.21,7.74,2,11.57c.33,1.57.39,3.35,3.18,3.13,1.36-.11,3.56,1.45,4.15,2.79.66,1.51-1.2,2.95-2.62,3.68-1.93,1-1.41,2.46-1.16,3.9.62,3.74-1.15,6.37-4,8.38s-5,1.37-6.8-1.93A26,26,0,0,0,366.32,453.32Zm-.67-19.84a28.07,28.07,0,0,0-5.81,8.59C367.81,441.52,367.81,441.52,365.65,433.48Z" fill="#fff"></path><path d="M141.41,431.13a16.3,16.3,0,0,1,10,8.12c2.13,3.89,2.72,7.38-.06,10.88a23.08,23.08,0,0,1-18,9.08c-3.83.13-3.66-2.58-4-5.11s.63-3.37,3.36-3.55c4.89-.31,9.1-2.64,12.78-5.89,1.82-1.6,1.46-2.52-.6-3.55-3.74-1.86-7.85-1.75-11.79-2.5-2.72-.52-5.39-1.26-6-4.34-.62-3.44.09-6.82,3.69-8.3,7.47-3.08,14.9-6.42,23.19-6.63,4.89-.12,8.08,2.06,9.13,6.71.63,2.83-1.46,3.06-3.79,3C153.7,428.94,147.93,428.25,141.41,431.13Z" fill="#fff"></path><path d="M162.85,230c.15,8-4.63,13-12.55,12.77a12.47,12.47,0,0,0-7.44,2.24c-4.55,2.88-8.33,1.34-9.84-3.89a12,12,0,0,1,6.33-14.56c.67-.34,1.67-.71,1.84-1.26,1.77-5.86,7.72-6,11.79-8.63,2.85-1.84,5.74-.72,7.32,2.33A23.8,23.8,0,0,1,162.85,230Z" fill="#fff"></path><path d="M216.08,432.88a13.12,13.12,0,0,0-2.63,5.14,3,3,0,0,1-2.6,2.82c-1.81.27-2.31-1.28-3-2.44a7.46,7.46,0,0,1-.24-7.81c2.4-4.44,4.33-9.12,6.73-13.56.72-1.34.26-4.34,3.24-3.49,3.33.95,5.22,4,4.25,6.9a23.64,23.64,0,0,0-1,8.58c0,.71-.28,1.7.7,1.92.82.19,1.37-.57,1.79-1.19a16.61,16.61,0,0,0,2.71-6.61,49.29,49.29,0,0,1,2.07-8.42c.65-1.84.94-2.28,2.71-1.1,3,2,4.67,3.88,2.37,7.71-1.16,1.93-1.16,4.62-1.44,7a16.27,16.27,0,0,1-4.11,9.16c-3.06,3.49-5,3.66-8,.28A58.38,58.38,0,0,1,216.08,432.88Z" fill="#fff"></path><path d="M195.86,434.59c-2.32.08-5.05,2-7-1.3-.33-.57-1.06.35-1.29.89a35.54,35.54,0,0,0-1.44,3.89c-.61,2.11-1.94,3.43-4.1,2.85a3.31,3.31,0,0,1-2.3-4.54c2.44-5.79,4.8-11.71,8.1-17,1.52-2.45,5.26-3.34,7.44-5.9.54-.63,4.28-.28,5,2.54a47.81,47.81,0,0,1,1.17,5.93c.3,2.84.84,5.21,4.28,5.92,2.08.43,2.09,2,.46,3.16a3.57,3.57,0,0,0-1.66,4c.48,3.24-1.69,5.16-4.48,6.19-2,.76-2.66-1-3.61-2.37s-.82-1.83.63-2.35a1.16,1.16,0,0,0,.84-1.49C197.5,433.93,196.7,434.39,195.86,434.59Zm-1.14-11.82c-1.73,2.35-3.32,3.91-3.9,6.26a14.71,14.71,0,0,0,5.33-.82C195.72,426.58,195.31,425,194.72,422.77Z" fill="#fff"></path><path d="M256,427.34c.08,3.42-1.59,5.13-3.48,6.67-4.17,3.41-9.3,4.92-14.14,7-1.83.8-2.63-.34-3.22-1.58a7.63,7.63,0,0,1-.26-5.87c1.35-4.3,2.53-8.61,1.27-13.29-.51-1.87.15-4.07.38-6.11.07-.63.06-1.65,1.32-1.16,6.44,2.51,13.19,4.58,17,11.09A14.71,14.71,0,0,1,256,427.34Zm-14.9,5.31c3.36-.67,5.87-2.35,8.4-3.9,1.88-1.15,2.08-2.42.3-4.18-2.44-2.4-5.38-3.46-8.8-4.37A41.25,41.25,0,0,1,241.1,432.65Z" fill="#fff"></path><path d="M276.09,139.89l39.07-1.46c1,0,2.38-.3,2.61.9.3,1.53-1.37,1.81-2.31,1.88-4.42.32-8.86.5-13.29.56A135.68,135.68,0,0,1,276.09,139.89Z" fill="#fff"></path><path d="M396.82,437.64c.54-3.29,2.94-5.13,5.05-6.93,1.37-1.17,2.38.61,3,1.7.49.84,1.69,2.1-.14,2.76C402.21,436.1,399.84,437.71,396.82,437.64Z" fill="#fff"></path><path d="M217.53,282.08c5.28,7.44,9.28,14.57,13.39,21.64,1.17,2,.08,4.07-.68,5.83a88.68,88.68,0,0,0-6.5,24.37c-.34,2.62-2.38,3-4.21,3.75-6.72,2.64-6.69,2.6-10.23-3.65-4.13-7.28-5.36-15-3-23C209.19,301.38,213.55,292.29,217.53,282.08Z" fill="#fff"></path><path d="M140.94,184.1c-5.83.05-9-2.43-9.32-7.06s3-8.39,8.09-8.67c11.24-.62,22.5-1,33.75-1.33,3.14-.11,5.53,1.08,5.8,4.58.25,3.29-.81,6-4.23,7.18-6.37,2.17-13.05,2.84-19.67,3.71C150.47,183.15,145.56,183.6,140.94,184.1Zm31.42-13.65c-10.61,0-22.09,0-33.56,0-.68,0-1.68-.25-1.82.81-.11.85.68,1.29,1.3,1.71,1.12.77,2.43.55,3.68.57C152.48,173.77,162.77,171.86,172.36,170.45Z" fill="#fff"></path><path d="M186.89,163.08c5.58,8.26,7.93,16.84,2.79,26.26-1.09,2-1.89,4.12-3,6.12-6.84,12.94-5.53,26.57,4.18,37.71,5.94,6.82,8.3,14.25,6.21,23.12-.54,2.33-1.87,4.08-3.17,5.94-4.57,6.5-9.65,12.8-10.07,21.24-.11,2.3.18,4.62.33,7.88-5-7.75-5.44-14.87-1.9-22.26A64.8,64.8,0,0,1,190.09,257c5.31-6.76,5.35-14.08.1-20.87-1.86-2.41-3.79-4.77-5.72-7.11-7.35-8.91-8.47-19.92-3-30,1.68-3.1,3.24-6.28,5-9.32,4.37-7.49,4.25-15.11,1-22.91-.44-1-.77-2.12-1.14-3.18Z" fill="#fff"></path><path d="M259.74,158.45a27.21,27.21,0,0,0-4.26-12.85,42.15,42.15,0,0,1-2.62,10.67c-1.32,3.35,1.89,3.71,4.14,4.41-2.51,2.61-5.46,2.74-8.42.4-3.86-3.05-4.75-9.83-1.85-14.12,2.58-3.83,6.6-5,10.13-3.05C261.27,146.38,262.58,152.22,259.74,158.45Z" fill="#fff"></path><path d="M182,177.88c-.38-4,.63-7.52-1.44-11.24,3.55.82,5.17,2.87,5.5,5.35S184.57,176.33,182,177.88Z" fill="#fff"></path><path d="M266.25,148.94c-2.42-.92-4-2.4-3.73-5s1.84-4.45,4.75-6.16C266.38,141.91,265.17,145.28,266.25,148.94Z" fill="#fff"></path><path d="M186.31,163.66c-.61-.36-.93-.81-.46-1.5l1,.92Z" fill="#fff"></path><path d="M103.78,442.09a32,32,0,0,1,5.69-8.27C112.69,441.45,112.69,441.45,103.78,442.09Z" fill="#fff"></path><path d="M365.65,433.48c2.16,8,2.16,8-5.81,8.59A28.07,28.07,0,0,1,365.65,433.48Z" fill="#fff"></path><path d="M194.72,422.77c.59,2.26,1,3.81,1.43,5.44a14.71,14.71,0,0,1-5.33.82C191.4,426.68,193,425.12,194.72,422.77Z" fill="#fff"></path><path d="M241.1,432.65a41.25,41.25,0,0,0-.1-12.45c3.42.91,6.36,2,8.8,4.37,1.78,1.76,1.58,3-.3,4.18C247,430.3,244.46,432,241.1,432.65Z" fill="#fff"></path><path d="M172.36,170.45c-9.59,1.41-19.88,3.32-30.4,3.11-1.25,0-2.56.2-3.68-.57-.62-.42-1.41-.86-1.3-1.71.14-1.06,1.14-.81,1.82-.81C150.27,170.45,161.75,170.45,172.36,170.45Z" fill="#fff"></path></svg> 