<?xml version="1.0" encoding="UTF-8"?> <!-- Generator: Adobe Illustrator 19.0.0, SVG Export Plug-In . SVG Version: 6.00 Build 0) --> <svg xmlns="http://www.w3.org/2000/svg" xmlns:xlink="http://www.w3.org/1999/xlink" version="1.1" id="Layer_1" x="0px" y="0px" viewBox="0 0 297 297" style="enable-background:new 0 0 297 297;" xml:space="preserve"> <g> <g> <g> <path d="M225.426,103.515c-1.396,0-2.798,0.042-4.2,0.125c-9.851-31.388-39.067-53.304-72.726-53.304 S85.624,72.253,75.774,103.64c-1.401-0.083-2.803-0.125-4.2-0.125C32.108,103.515,0,135.623,0,175.089 c0,39.467,32.108,71.575,71.574,71.575h153.852c39.466,0,71.574-32.108,71.574-71.575 C297,135.623,264.892,103.515,225.426,103.515z M225.426,226.596H71.574c-28.4,0-51.506-23.106-51.506-51.507 c0-28.4,23.106-51.506,51.506-51.506c3.279,0,6.6,0.323,9.873,0.959c2.633,0.514,5.362-0.051,7.578-1.565 c2.214-1.514,3.731-3.852,4.21-6.492c4.848-26.701,28.091-46.082,55.264-46.082c27.173,0,50.416,19.381,55.264,46.082 c0.479,2.64,1.996,4.978,4.21,6.492c2.215,1.514,4.946,2.079,7.578,1.565c3.273-0.636,6.594-0.959,9.873-0.959 c28.4,0,51.506,23.106,51.506,51.506C276.932,203.49,253.826,226.596,225.426,226.596z"></path> <path d="M140.352,127.899c-3.434-4.349-9.743-5.089-14.093-1.655l-41.923,33.111c-2.409,1.903-3.815,4.804-3.815,7.874 s1.405,5.971,3.815,7.874l41.923,33.111c1.842,1.454,4.035,2.161,6.212,2.16c2.965,0,5.901-1.308,7.881-3.815 c3.434-4.349,2.694-10.659-1.655-14.093l-31.954-25.237l31.954-25.237C143.046,138.558,143.787,132.248,140.352,127.899z"></path> <path d="M212.664,159.355l-41.923-33.111c-4.352-3.434-10.659-2.692-14.093,1.655c-3.434,4.349-2.694,10.659,1.655,14.093 l31.954,25.237l-31.954,25.237c-4.349,3.434-5.089,9.745-1.655,14.093c1.98,2.507,4.916,3.815,7.881,3.815 c2.177,0,4.37-0.705,6.212-2.16l41.923-33.111c2.409-1.903,3.815-4.804,3.815-7.874 C216.479,164.16,215.074,161.258,212.664,159.355z"></path> </g> </g> </g> <g> </g> <g> </g> <g> </g> <g> </g> <g> </g> <g> </g> <g> </g> <g> </g> <g> </g> <g> </g> <g> </g> <g> </g> <g> </g> <g> </g> <g> </g> </svg> 