<?xml version="1.0" encoding="UTF-8"?> <svg xmlns="http://www.w3.org/2000/svg" xmlns:xlink="http://www.w3.org/1999/xlink" id="Layer_1" data-name="Layer 1" viewBox="0 0 500 500"><defs><clipPath id="clip-path"><rect x="50.01" y="116.33" width="400" height="267.33" fill="none"></rect></clipPath></defs><title>Hubs</title><g clip-path="url(#clip-path)"><path d="M85.74,171.54c13.73-13.57,30.71-16.43,44-8.26,8.23,5.07,11.95,12.64,12.06,22.05.15,11.79.21,23.6,0,35.39-.08,4.05.82,6.1,5.2,5.29,5.06-.94,6.45,1.15,6.3,6.2-.35,11.95-.08,12-12.14,12-9.87,0-19.76-.23-29.63.11-4.15.14-5.35-1.24-4.8-5.06a15.71,15.71,0,0,0,0-4.49c-1-6.37.41-10.39,8.11-8.76,2.51.53,3.3-.79,3.23-3.25-.32-10.51.58-21-.62-31.51-1-9-5.49-13.61-13.06-14.05-9-.52-16.14,4-17.7,12.47-2.07,11.23-.69,22.68-.79,34,0,4,3.55,2.39,5.37,2.21,4.53-.45,5.74,1.06,5.65,5.61-.25,12.67,0,12.68-12.6,12.68-9.88,0-19.76-.12-29.64.06-3.29.07-4.77-.79-4.35-4.28a23,23,0,0,0,0-6.42c-1-6.16,1.21-8.73,7.49-7.54,3,.56,4-.55,4-3.77-.13-27.89-.19-55.78,0-83.67,0-4.81-2.8-4.07-5.33-3.73-5.13.69-6.45-1.27-6.3-6.29.35-12,.08-12,12.06-12,6,0,12,.32,18-.1,4.73-.34,5.63,1.49,5.56,5.81-.24,16.05-.1,32.12-.1,49.35" fill="#030403"></path><path d="M297.23,233.24c-2.27,10.93-2.27,10.93-13.4,10.93-12.18,0-12.33,0-10.68-11.89,2.14-15.38.88-30.82,1.11-46.23s-.05-30.86.12-46.29c0-3.61-.39-5.86-4.72-5-5.25,1-6.94-.95-6.73-6.45.44-11.79.11-11.8,11.72-11.8,5.79,0,11.6.31,17.37-.1,4.9-.34,6.6,1,6.46,6.22-.38,14.78-.16,29.57-.1,44.36,0,2-.57,4.19,1,6.86,6.62-10.37,15.73-15.4,27.87-15,15.71.44,27.88,9.18,32.57,24.29,4.07,13.13,3.24,26.09-1.42,39-10.55,29.21-47.56,30.48-61.13,11.16m40.38-30.76c-.37-2.84-.56-5.63-1.12-8.34-2.12-10.24-8.08-15.84-17.06-16.22-9.8-.42-16.95,4.84-19.85,14.83a36.29,36.29,0,0,0-.16,19.07c2.49,10,9.44,15.54,18.68,15.38,9.45-.17,16.27-6.24,18.37-16.51.55-2.71.77-5.49,1.14-8.21" fill="#040505"></path><path d="M225.34,231.87c-7.45,10.51-16.52,14.09-27.55,13.87-17.73-.36-28.52-10.83-28.75-28.47-.15-11.16-.2-22.32.06-33.47.09-4-.79-6.15-5.18-5.28-5.39,1.07-6.22-1.63-6.11-6.34.26-11.83.06-11.83,12.2-11.83,6.23,0,12.47.21,18.68-.08,3.74-.18,4.63,1.14,4.57,4.7-.19,13.08-.08,26.17-.07,39.26,0,2.57,0,5.15.13,7.72.59,9.43,4.45,14.51,11.55,15.37,9,1.1,16.3-3.29,19.17-11.62a26.25,26.25,0,0,0,1.32-8.85c-.05-6,0-12,0-18,0-9.74,0-9.9-9.67-10.21-3.14-.1-3.87-1.07-4-4.08-.62-14.19-.72-14.18,13.13-14.18,6.44,0,12.9.27,19.32-.1,4.27-.25,5.42,1.1,5.37,5.32-.23,18,0,36.05-.19,54.06-.06,4.6.58,7.46,6,6.38,5.1-1,6.4,1.21,6.25,6.19-.35,12-.09,12-12.07,12-6,0-12.05-.35-18,.11-5,.38-7.06-1.13-6.19-6.21.24-1.45,0-3,0-6.2" fill="#050606"></path><path d="M403.36,245.9A73.37,73.37,0,0,1,375.71,240c-3-1.27-5.25-2.66-3.83-6.57.58-1.56.36-3.39.61-5.09,2-14.19,2-14.05,16.21-12.64,3.64.36,5.17,1.68,4.5,5.15-1.06,5.54,2,7.14,6.72,7.43,5.81.36,11.57.43,17.09-1.85,3.17-1.31,5.71-3.17,5.52-7s-2.76-5.59-6.18-6.31c-6.07-1.28-12.19-2.38-18.25-3.73a68.35,68.35,0,0,1-11.08-3.1c-11.35-4.68-15.06-10.6-14.78-22.81.24-10.92,4.5-16.73,15.71-20.85,16.29-6,32.35-4.84,48.26,1.68,3.15,1.28,5.06,2.94,4.63,6.56a11.18,11.18,0,0,0,.22,2.56c1.63,14.09,1.58,13.77-11.92,16-5,.82-6-1.13-6.14-5.08-.13-4.16-.86-7.18-6.26-7.56-6.46-.46-13.06-2.31-17.7,3.91-2.65,3.55-.38,8.38,4.71,9.92,4.9,1.48,10,2.27,15.06,3.27a72,72,0,0,1,13.65,3.57c8.17,3.34,13.69,8.69,14.42,17.89.78,9.89-2.1,18.16-10.81,23.8-7.13,4.62-17.9,7.09-32.71,6.77" fill="#040505"></path><rect x="233.51" y="326.13" width="216.5" height="57.53" fill="#fff"></rect><path d="M435.26,328.72c-24.37,0-48.73-.15-73.09.14-5.49.07-5.8-1.89-4.89-6.35,1.67-8.22,7.81-12.86,13.43-18l1.54-1.5c3.59,0,7,2.26,10.69,1,5.31-1.86,10.51-1.07,15.68.56-.48,1.42-3.25,2.67.53,4.06,8.89,3.29,20.32.76,26-7,2.59-3.54,4-2,5.76.15,5.84,7.19,6.27,15.65,5.56,24.36-.4.86-.79,1.73-1.18,2.59" fill="#facb0d"></path><path d="M258.73,379c-1.71,0-3.43.07-5.14,0-1.35-.08-3.25.55-3.38-1.78-.09-1.44-.23-2.82,1-4.13,3.67-3.81,3.89-12.64.26-16-1.43-1.33-1.07-2.64-1-4,0-1.57,1.16-2.11,2.64-2.09,6.58.12,13.56-.69,19.63.4,5.11.92,8.7,1.87,13.87-.38,5.85-2.54,11,2.22,11.88,8.9.65,5.05-2.21,10.81,3.41,15,1,.76.91,3.88-2.6,4.25-8.41.87-9.2.4-9.21-7.79,0-3.21,0-6.42-.07-9.63-.09-3-1.45-4.9-4.69-4.88-2.78,0-4.82,1.48-4.64,4.2.27,4.19-3.15,8.94,2.32,12.61,1.54,1,2.59,5.17-2.47,5.46-8.5.49-8.47.68-8.5-7.83,0-3.21-.06-6.42-.15-9.62s-1.57-4.85-4.76-4.8c-2.75.05-4.94,1.56-4.54,4.25.62,4.23-4.33,10.41,4,12.32,1.61.37,1,2.63.87,4.06-.16,1.84-1.76,1.48-3,1.53-1.92.07-3.85,0-5.78,0" fill="#161616"></path><path d="M398.62,304.55c-5.17-1.63-10.37-2.42-15.68-.56-3.69,1.29-7.1-1-10.69-1a26.51,26.51,0,0,0-4-16.76c2.56-7.64,8.26-12.28,15.72-12.81a18.28,18.28,0,0,1,18.08,10.68c3.47,7.45,2.35,14-3.46,20.42m-20.73-19.37c-3,.59-4.83,2.08-4.76,5.17.08,3.43,2.08,5.12,5.34,4.89,3-.21,4.46-2.26,4.27-5.25s-2.17-4.38-4.85-4.81" fill="#fac312"></path><path d="M267.86,301.84c-.7,4.34.81,8.8-1.15,13.11-2.12,4.67-5.33,8.24-10.55,7.89s-10.27-2-15.62-.52c-2.66.73-2.4-1.58-2.15-3.28,1.25-8.5.46-17.06.53-25.59,0-2.59,1.68-6.08-2.88-7.32-1.33-.37-.78-2.7-.56-4.12.28-1.81,1.86-1.3,3.06-1.42,8.35-.82,8.61-.58,8.61,7.67V298c3.91-2.37,7.37-4.47,11.94-3.25,4.25,1.14,6,4.81,8.87,7.28Zm-20.78,7.09c-.14,3.92,1.32,7.58,6,7.78s6.44-3.64,6.49-7.79-1.1-8.11-6.06-8.14c-4.64,0-6.54,3.29-6.46,8.15" fill="#0c0c0c"></path><path d="M268,302c1.63-2-1.74-5.77,1.41-6.58,3.62-.92,7.64-.44,11.48-.29,1.83.07,1.77,2.1,1.32,3-3,5.69.89,9.83,3.06,15.24,1.77-5.28,4.53-9.42,2-14.7-1.07-2.25.23-4,3.27-3.7,1.9.21,3.85,0,5.78.05,1.4.06,3.28-.48,3.44,1.78.1,1.39.28,2.69-1,4.09-6.55,7.33-7.84,17.19-12,25.69a3.54,3.54,0,0,0-.35,1.68c3.61,1.57,4.43,5.52,1.65,6.54-3.92,1.44-8.85.57-13.23-.12-.76-.12-2.46-4.74,1.43-5.7,4.45-1.1,4.4-4.64,3.45-7.41-2.14-6.24-5-12.23-7.76-18.25-.75-1.65-1.81-3.65-4.1-1.43l.1.14" fill="#0b0b0b"></path><path d="M431.72,350.54c8.93,0,12.18,3.42,12.59,11.63.22,4.57-1.91,9.67,2.65,13.55.59.49.44,2.55-1.16,3.14-2.5.93-5.84,1.63-7.25-.34-2.62-3.64-4-2.2-6.68-.25-3.11,2.24-6.91,1.81-10.26-.31s-3.46-5.2-2.88-8.51c.73-4.16,4.21-5,7.57-5.79,1.44-.34,3-.12,4.46-.44,1.78-.39,4.73,1.48,5-2.07.1-1.55.16-3.56-2-4.32-2.33-.84-4.57-1-6.49,1-.94,1-.42,3.32-2.65,3-1.56-.21-4.07.69-4.37-1.47-.36-2.6-.48-5.81,2.74-7.12a19.58,19.58,0,0,1,8.71-1.71m3.8,19.14c.48-2.86-1.38-2.57-2.76-2.61-2.6-.08-5.5-.17-6,3.23-.3,2.11.9,3.7,3.41,3.53a5.45,5.45,0,0,0,5.34-4.15" fill="#101010"></path><path d="M318.75,350.53c9.26,0,15,5.51,15,14.54,0,8.66-6.14,14.56-15.2,14.58-8.9,0-14.66-5.61-14.61-14.27.06-9.17,5.68-14.81,14.81-14.85m6.91,14.31c0-5.14-2.6-8.21-7-8.12-5.15.12-6.45,3.88-6.51,7.86-.07,4.14.87,8.37,6.18,8.94,4.12.45,7.29-3.51,7.28-8.68" fill="#0c0c0c"></path><path d="M350.46,358.23c-3.12-.2-6.88-3.28-8.28,1.87-.5,1.85-3.07,1.18-4.62.8-2.6-.63-1.25-2.89-1-4.25.31-2-.74-5.43,2.71-5.57,6.84-.28,13.78-.7,20.52.17,4.29.56,2.49,4,.63,6.21-4.06,4.87-8.26,9.63-13.16,15.31,4.33-.41,8.06,2.1,9.83-3.29.55-1.67,3.16-.81,4.73-.5,2.18.44,1.19,2.28,1.14,3.67-.15,4.76-1.9,7.22-7.34,6.48-4.41-.6-9,0-13.47-.19-1.68-.07-3.89,1.21-5-1.42-1-2.47.4-4.1,1.77-5.73,3.82-4.55,7.71-9,11.57-13.56" fill="#111"></path><path d="M381.89,380.38c4-14,7.74-25.82,10.62-37.82,1.38-5.74,3.92-7.37,9.6-5.46-3.72,13-7.49,26.1-11.13,39.18-1.43,5.17-5.33,1.38-9.09,4.1" fill="#0b0b0b"></path><path d="M417.86,337.15c-3.69,13.12-7.25,26.31-11.15,39.4-1.4,4.7-5.35,1.64-8.52,2.39,3.5-12.44,7.15-24.28,10.06-36.31,1.36-5.64,3.81-7.57,9.61-5.48" fill="#0b0b0b"></path><path d="M368.28,286.26a26.51,26.51,0,0,1,4,16.76l-1.54,1.5a29.13,29.13,0,0,1-13.28-8.18,6.45,6.45,0,0,1-1.69-7c1.12-2.87,3.81-2,6-2s4.64,1.16,6.5-1.06" fill="#f78d1e"></path><path d="M368.33,356.11c-.33-3-.32-5.27,4-5.27s4,2.47,4.07,5.32c.1,3,.12,5.07-4.15,5.08s-4.25-2.24-3.93-5.13" fill="#0c0c0c"></path><path d="M376.32,374.74c.84,3.29-.62,4.26-4.26,4.39-4.62.18-3.74-2.6-3.81-5.24-.07-2.83-.38-5.15,4-5.2,4.92-.06,4.15,2.82,4.07,6.05" fill="#0b0b0b"></path><path d="M435.26,328.72c.39-.86.78-1.73,1.18-2.59,4.08.37,8.26-.57,13.57,1.05-5.54,2.67-10.27,1.1-14.75,1.54" fill="#ececec"></path><path d="M377.89,285.18c2.68.43,4.66,1.77,4.85,4.81s-1.23,5-4.27,5.25c-3.26.23-5.26-1.46-5.34-4.89-.07-3.09,1.78-4.58,4.76-5.17" fill="#18150d"></path></g></svg> 