<?xml version="1.0" encoding="UTF-8"?> <svg xmlns="http://www.w3.org/2000/svg" id="Layer_1" data-name="Layer 1" viewBox="0 0 500 500"><title>Hubs-Cloud</title><path d="M100,238.73a6.8,6.8,0,0,0,.38-1.62c0-3-.09-6-.14-8.93,0-.65.39-.92,1-.91,1.06,0,2.12.07,3.19.06s1.9-.07,2.86-.11a1.16,1.16,0,0,0,1.26-1.29c0-3.05.14-6.1.14-9.15q0-28.59,0-57.2c0-2.79-.21-3-3-3-1.37,0-2.75-.05-4.12,0-.9.05-1.21-.27-1.2-1.15,0-2.85,0-5.69,0-8.54,0-.65,0-1.3,0-1.95s.21-.95.92-.89c1.32.12,2.64.23,4,.24,5.9,0,11.8,0,17.7-.06,2.19,0,2.19,0,2.19,2.25v34.88c0,1.27-.07,2.54,0,3.8a1.63,1.63,0,0,0,.78,1.24c.35.09,1-.34,1.28-.7a38.75,38.75,0,0,1,3-3.87c.83-.78,1.47-2,2.85-2.08.18,0,.35-.2.51-.32s.28-.35.46-.4c1.49-.49,2.69-1.64,4.37-1.77a15.05,15.05,0,0,0,2.78-.85,10.93,10.93,0,0,1,2.38-.48c1.81-.07,3.63,0,5.45,0a2.59,2.59,0,0,1,1.27.3,8.85,8.85,0,0,0,4.52,1.15,4,4,0,0,1,1.35.53,5.39,5.39,0,0,0,.88.48,7.93,7.93,0,0,1,3.72,2.36c.13.15.29.37.46.39,1.5.2,2.05,1.47,2.75,2.52s1.71,2,1.81,3.36c1.82,1.59,1.24,4,1.93,6s.45,4.25.46,6.4c.06,8.67.06,17.35.1,26,0,1.55.12,1.71,1.66,1.84,1,.09,2,0,3.08,0h3.08a5.69,5.69,0,0,1,.21,1.12c0,3.35,0,6.71,0,10.07,0,.7-.21.86-.89.86q-16,0-32,0c-.61,0-.83-.16-.82-.82.08-3.36.12-6.72.14-10.07,0-1.23,0-1.2,1.24-1.15,1.77.07,3.55,0,5.32,0,1.15,0,1.52-.72,1.52-1.76,0-2.78,0-5.56,0-8.33q0-8,0-16.05c0-1.4-.1-2.8-.24-4.2a3.62,3.62,0,0,0-.61-1.25c-.7-1.3-1.37-2.63-2.15-3.89a3.39,3.39,0,0,0-1.31-1.18,41.08,41.08,0,0,0-4.7-2.1,7.49,7.49,0,0,0-5.49.07,3.44,3.44,0,0,1-1.23.46,6.08,6.08,0,0,0-4.09,1.78,12.51,12.51,0,0,0-3.16,3.26c-.76,1.51-2.2,2.84-1.89,4.83.07.43-.3.93-.46,1.41a5.18,5.18,0,0,0-.4,1.44q0,11.63,0,23.26c0,1.82.2,2.09,2,2.21s3.62.08,5.44.1c1.2,0,1.35.25.89,1.38a2.57,2.57,0,0,0-.18,1c0,2.47,0,4.94,0,7.4a10,10,0,0,0,.46,2,13.61,13.61,0,0,1-1.51.16q-14.52,0-29-.05c-1.08,0-2.17-.07-3.25-.11Z"></path><path d="M100.4,268H400v4.83l0,32.4q0,19,0,38.07c0,3.46-.05,6.93-.09,10.39,0,2.33,0,2.34-2.46,2.34H238q-19.65,0-39.3,0c-2.66,0-5.32-.14-8-.13-9.52,0-19.05.16-28.58.18-11.83,0-23.66,0-35.49,0H102.82c-2.27,0-2.27,0-2.27-2.32q0-23.31,0-46.61,0-18.26,0-36.53C100.57,269.72,100.47,268.91,100.4,268Zm225.94,38.31c-1-.76-1.95-1.48-2.92-2.11a21.46,21.46,0,0,0-2.18-1.14c-.34-.15-.72-.21-1.07-.34a9.15,9.15,0,0,0-2.06-.71,23.9,23.9,0,0,0-3.59,0,7.08,7.08,0,0,0-1.71.32,16.25,16.25,0,0,0-2.29.78c-1.22.55-2.4,1.18-3.59,1.78-.06,0-.09.11-.13.16-.8.87-1.65,1.7-2.39,2.61a8.9,8.9,0,0,0-2.13,3.77,2.63,2.63,0,0,1-.47,1.36,2.94,2.94,0,0,0-.77,2.15,10.7,10.7,0,0,1-.39,2.72,8.69,8.69,0,0,0,.07,7.18,4,4,0,0,1,.27,1.3c.17,1.5-.27,3.17,1.22,4.32.2.16.21.56.3.85a3.16,3.16,0,0,0,.25.77,23.11,23.11,0,0,0,6.26,6.09,1.67,1.67,0,0,0,.87.29,17.38,17.38,0,0,1,4.06.75,4.74,4.74,0,0,0,4.52-.46,1,1,0,0,1,.68-.16c2.22.43,3.49-1.2,5-2.33a18.86,18.86,0,0,0,2.21-2.35c.1.49.18.86.23,1.23.1.78.15,1.56.29,2.33a1.24,1.24,0,0,0,1.4,1.06c4,0,8,0,11.94,0,1.36,0,1.87-.52,1.91-1.87,0-1.55,0-3.09,0-4.63,0-1.34-.44-1.77-1.8-1.88-.83-.07-1.68,0-2.57,0,0-.57-.06-1-.06-1.38q0-20.37,0-40.74a13.17,13.17,0,0,0-.24-2.34c-.18-1-1-1.21-1.86-1.21-1.26,0-2.52.12-3.78.14-3.36.06-6.72,0-10.07.15-1.38,0-1.64.37-1.71,1.76s0,3-.05,4.52c0,2.78,0,2.77,2.76,2.72,1.28,0,2.55,0,4,0,0,2.5,0,4.74,0,7,0,1.6,0,3.21-.07,4.8A2,2,0,0,1,326.34,306.29Zm-43.56,28.29.32.05v1.69c0,1.89.34,2.22,2.22,2.22,3.67,0,7.34,0,11,0a5.34,5.34,0,0,0,1.92-.24,1.64,1.64,0,0,0,1-1.08,26.7,26.7,0,0,0,.08-4.47c-.06-.79.41-2-.85-2.26a10.55,10.55,0,0,0-2.62-.31c-1.45,0-1.53,0-1.53-1.42q0-11.67,0-23.35c0-1.89-.45-2.37-2.36-2.41-1.65,0-3.29,0-4.94,0-2.5,0-5,0-7.51,0-1.59,0-2.36.64-2.47,2.12a32.52,32.52,0,0,0,0,4.63,1.68,1.68,0,0,0,1,1.22,25.72,25.72,0,0,0,4.12.46c.82,0,1.07.37,1.06,1.13,0,3.19,0,6.38-.05,9.57a7.39,7.39,0,0,1-.25,1.61c-.22,1-.49,1.9-.75,2.85a1.84,1.84,0,0,1-.21.65c-1.5,1.77-3.06,3.42-5.7,3.11-.44-.06-.9.05-1.33,0a3.62,3.62,0,0,1-1.19-.43c-2.11-1.26-2.58-3.3-2.56-5.55,0-3.9.11-7.8.11-11.71q0-4-.17-8c-.05-1.32-.48-1.65-1.82-1.65l-11.11,0a12.78,12.78,0,0,0-1.64.1c-1.19.16-1.55.57-1.56,1.76s0,2.53,0,3.8c-.05,2.6-.18,2.31,2.62,2.78.14,0,.28,0,.41,0,2.17,0,2.15,0,2.16,2.12.05,5.59.16,11.18.16,16.76,0,1.93,1.74,3,2.11,4.71,0,.16.39.24.59.37a22.39,22.39,0,0,1,3,2.06,3.64,3.64,0,0,0,2.54,1.08,14.78,14.78,0,0,1,2.17.4,6.75,6.75,0,0,0,2,.36c1-.1,1.94-.75,2.86-.67,2.52.21,4.11-1.42,5.91-2.64A8.7,8.7,0,0,0,282.78,334.58ZM235,302v-.12c-1.33.07-2.67.13-4,.23a3.52,3.52,0,0,0-.88.25c-.59.2-1.17.46-1.77.64-.8.24-1.64.38-2.42.68a8.93,8.93,0,0,0-1.53.93,4.11,4.11,0,0,0-.83.58,29.74,29.74,0,0,0-3,3.09c-1.25,1.67-2.34,3.46-3.42,5.25a4,4,0,0,0-.18,1.41,8.14,8.14,0,0,1-.17,1.22,18,18,0,0,0-1.07,3.77,12.74,12.74,0,0,0,.5,4.93,16.32,16.32,0,0,1,.87,3.52,3.63,3.63,0,0,0,.4,1.23,15.36,15.36,0,0,0,1,1.62,25.12,25.12,0,0,0,2.43,3.13,18.61,18.61,0,0,0,3,2.11,27.78,27.78,0,0,0,3.95,1.94c1.31.55,2.86.44,4.32.88s3.36-.09,5-.25c.77-.08,1.52-.38,2.29-.44,1.43-.13,2.91,0,4-1.26.08-.1.25-.1.37-.16a18.47,18.47,0,0,0,3.68-2c2.15-1.89,4.29-3.88,4.83-6.94,0-.25.29-.45.41-.69a4.51,4.51,0,0,0,.67-1.52c.1-2.73.18-5.45.12-8.18,0-1.7.12-3.51-1.29-4.89-.19-.18-.16-.58-.26-.86a3.61,3.61,0,0,0-.4-.92,32.87,32.87,0,0,0-2.05-2.76c-1.39-1.57-2.59-3.4-4.8-4a.68.68,0,0,1-.36-.2,3.56,3.56,0,0,0-2.82-1.21,6,6,0,0,1-1.09-.27A19,19,0,0,0,238,302,26.9,26.9,0,0,0,235,302Zm-43.64,10h0a16.82,16.82,0,0,0,0-1.74c-.13-1.34.09-2.79-1.19-3.77a1,1,0,0,1-.28-.65c-.12-1-.74-1.25-1.62-1.38a7,7,0,0,1-1.66-.67,4.63,4.63,0,0,0-1.2-.56c-1.9-.18-3.72-.78-5.58-1.07a33.67,33.67,0,0,0-5.94,0,2.78,2.78,0,0,0-.75.31,4.56,4.56,0,0,1-1.7.57c-1.76-.09-3.1,1-4.29,1.84s-2.42,1.22-3.26,2.47-2.62,1.88-2.69,3.75c0,.11-.15.21-.21.33-.32.61-.66,1.22-.94,1.84s-.36,1-.53,1.54a7.21,7.21,0,0,0-.64,2,66.29,66.29,0,0,0,0,8.22,22.85,22.85,0,0,0,1.56,5.33,7.69,7.69,0,0,0,1.38,2.34,19.45,19.45,0,0,0,2.42,2.2c1.1.89,1.84,2.32,3.53,2.35.22,0,.4.36.64.49a4.1,4.1,0,0,0,1.62.73,21.61,21.61,0,0,1,5,.9,6.71,6.71,0,0,0,5.25-.54,1.64,1.64,0,0,1,1.08-.2c2.06.45,3.58-.88,5-1.84s2.43-2.67,3.61-4a5.51,5.51,0,0,0,.41-.43c.34-.52.68-1,1-1.58.15-.26.09-.67.28-.86a4.65,4.65,0,0,0,1-3.84c-.09-1.18-.31-2.28-2-2.39l-5.73-.35c-1.28-.08-1.6.17-1.74,1.42,0,.31.07.66-.05.92-.52,1.05-1.1,2.08-1.69,3.11,0,.09-.26.07-.37.13a3,3,0,0,0-.78.46c-1.42,1.42-3.16,1-4.84.88a.57.57,0,0,1-.36-.18c-.88-1.21-2.72-1.17-3.41-2.65-.17-.37-.61-.68-.63-1-.23-3.58-.59-7.17,0-10.75a1.79,1.79,0,0,1,.28-.75,8.61,8.61,0,0,1,1.48-1.79,6.74,6.74,0,0,1,2.7-1.51,20.29,20.29,0,0,1,4.41-.05c1.39.07,1.77.53,1.89,1.91a14.46,14.46,0,0,0,.19,1.74c.46,2.18,1.79,3.16,4,2.79,1.5-.25,3-.78,4.46-1.05,1-.19,1.21-.73,1.15-1.6C191.48,314.15,191.41,313.06,191.34,312ZM199,293.71a17.34,17.34,0,0,0-.58,2.92c0,2.88.12,5.76.11,8.63,0,4.75-.11,9.5-.12,14.25,0,2.84.1,5.68.12,8.53,0,1.79-.4,2.15-2.19,2s-2.28.31-2.26,2.18c0,1.37.11,2.73.16,4.1.05,1.8.26,2.1,2.1,2.12,5.49.06,11,.06,16.46,0,1.22,0,1.53-.3,1.59-1.53.07-1.43,0-2.88,0-4.31-.07-2.6-.13-2.65-2.8-2.52-1.19.06-1.4-.14-1.39-1.31,0-6.34.09-12.68.1-19,0-7.44,0-14.88,0-22.32,0-2.17-.75-2.91-2.9-2.91-3.77,0-7.54,0-11.31,0-1.11,0-1.78.41-1.83,1.45-.11,2.18-.13,4.37-.11,6.55,0,.76.51,1.15,1.31,1.13C196.55,293.69,197.7,293.71,199,293.71Z"></path><path d="M267.51,239.15c1.25-1.05,1-2.33,1-3.47a12.45,12.45,0,0,1,1.07-5.48,7,7,0,0,0,.36-2.63q.06-7,.05-14.09V159c0-.31,0-.62,0-.93,0-1-.43-1.44-1.43-1.42-1.88,0-3.77,0-5.66,0h-1c0-.47-.12-.87-.12-1.27,0-3.37,0-6.73,0-10.09,0-1.45.09-1.5,1.41-1a2.43,2.43,0,0,0,.81.07l20,0c.41,0,.81-.09,1.22-.12,1-.07,1.46.36,1.45,1.36-.05,4.35-.12,8.7-.13,13.05,0,7.78,0,15.56,0,23.35,0,1.33-.09,2.67-.14,4a2.26,2.26,0,0,0,0,.82c.2.54.48,1.06.72,1.59.49-.26,1-.53,1.45-.77,1.57-.76,1.75-2.56,2.8-3.72a18.4,18.4,0,0,1,4.48-4.1c1.2-.67,2.33-1.47,3.55-2.09a7.64,7.64,0,0,1,1.7-.31c.79-.18,1.57-.43,2.35-.65A14.69,14.69,0,0,1,306,176c1.33-.13,2.68,0,4-.05a8.61,8.61,0,0,1,4.55.88,12.39,12.39,0,0,0,3,.59,10.28,10.28,0,0,1,1.56.61c.3.13.6.29.91.4s.53,0,.69.14a13.17,13.17,0,0,0,2.85,1.57A11.89,11.89,0,0,1,326.9,183c1.26,1.31,2.4,2.74,3.58,4.13a2,2,0,0,1,.32.63c.07.19,0,.42.14.59.68,1.29,1.4,2.55,2.07,3.84a3.32,3.32,0,0,1,.34,1.24,4.57,4.57,0,0,0,1.12,3.31,1.55,1.55,0,0,1,.33,1q0,9,0,18a1.43,1.43,0,0,1-.24.87,6.45,6.45,0,0,0-1.21,4.25c0,.42-.4.83-.61,1.25a3,3,0,0,0-.4.9,6,6,0,0,1-1.06,2.34,24.27,24.27,0,0,0-1.63,3,9.46,9.46,0,0,1-1.72,2.78,49.19,49.19,0,0,1-5.19,5.22c-1,.88-2.53,1.17-3.56,2-1.23,1.05-2.66.83-4,1.13a1.28,1.28,0,0,0-.56.23c-1.33,1.23-3,1-4.57,1-2.64,0-5.28,0-7.92,0a5.59,5.59,0,0,1-1.86-.62c-.44-.18-.85-.63-1.27-.62-1.54.05-2.78-.76-4.13-1.25a1.59,1.59,0,0,1-.37-.18,21.66,21.66,0,0,1-3.77-3c-.72-.87-2-1.44-2.07-2.88,0-.26-.54-.7-.85-.72-2.1-.1-2.55-.6-2.71,1.78-.12,1.7-.33,3.4-.45,5.11,0,.58-.07,1-.83,1-5-.06-10.08-.08-15.12-.12C268.37,239.25,268.05,239.2,267.51,239.15Zm32.8-50.06,0,.17c-.54.05-1.09.06-1.62.15a11.77,11.77,0,0,0-6.09,3.53,33.29,33.29,0,0,0-3.58,4.64c-.32.45-.22,1.22-.57,1.62-1,1.09-.89,2.37-1,3.66-.09,1-.5,2-.57,3a37.35,37.35,0,0,0-.07,5c.06,1.11.55,2.2.62,3.31.14,2.54.64,4.9,2.61,6.71a.39.39,0,0,1,.11.27c-.16,1.79,1.61,2.24,2.39,3.37.66,1,1.5,1.94,2.93,1.79.07,0,.13.16.22.21a5.72,5.72,0,0,0,1.35.77c1.44.4,2.9.7,4.35,1a2.06,2.06,0,0,0,.82,0c1.32-.25,2.64-.5,3.95-.81a24.84,24.84,0,0,0,2.5-.77,8.71,8.71,0,0,0,1.34-.65,9.33,9.33,0,0,0,1.5-1,15.53,15.53,0,0,1,2.17-2,2.21,2.21,0,0,0,1.15-1.55,3.15,3.15,0,0,1,.25-.75c.3-.62.64-1.21.94-1.83.19-.4.21-.95.51-1.2a3.27,3.27,0,0,0,.85-2.43c.23-2.06.57-4.1.85-6.16a3.81,3.81,0,0,0,0-1c-.27-1.91-.61-3.82-.82-5.75-.14-1.23.2-2.55-1-3.5-.17-.13-.21-.5-.23-.77-.1-1.62-1.42-2.61-2.05-4a3.57,3.57,0,0,0-.88-.95,11.63,11.63,0,0,0-1.4-1.23c-1-.67-1.8-1.67-3.14-1.68,0,0-.09-.1-.14-.13-.42-.25-.82-.65-1.26-.69C304.94,189.34,302.63,189.23,300.31,189.09Z"></path><path d="M206.58,177.53c0,6.07,0,11.92,0,17.78,0,5.38,0,10.77,0,16.15a20.19,20.19,0,0,0,.31,2.32c.26,2.07.46,4.14.77,6.2a11.82,11.82,0,0,0,.76,2.16c.06.15.25.27.28.42.33,2.07,2,3.17,3.45,4.21a13.79,13.79,0,0,0,5,1.81,10,10,0,0,0,3.28,0,10.9,10.9,0,0,0,2.12-.62,4.46,4.46,0,0,1,.74-.34c2.62-.47,4.25-2.37,6-4.11.4-.4,1.1-.72,1.19-1.17.37-1.82,2-3.15,1.8-5.19-.06-.51.37-1.07.52-1.63a6.53,6.53,0,0,0,.39-1.78q0-11.16,0-22.32c0-1.52-.26-1.85-1.78-1.9-2.59-.08-5.19-.08-7.79-.06-.74,0-1-.4-1-1,0-3.42,0-6.84-.07-10.26,0-.69.31-.85.86-.85l24.48.07a4.43,4.43,0,0,0,.81-.07c.63-.13.78.18.78.73q0,11.47-.05,22.95,0,11.73,0,23.46c0,2.6.13,2.73,2.71,2.75,2,0,4,0,6-.05.78,0,.86.42.86.95,0,3.5,0,7,0,10.49,0,.6-.26.73-.82.73q-11.83,0-23.66,0c-1.53,0-1.43,0-1.35-1.47.11-2,.1-4.05,0-6.06a1.62,1.62,0,0,0-.89-1.25c-.39-.08-1,.36-1.36.75-1,1.19-1.76,2.56-2.81,3.67a16.1,16.1,0,0,1-2.77,1.93c-.28.19-.53.41-.82.59a11.76,11.76,0,0,0-1.54.91c-1.64,1.37-4,.56-5.66,2.07-.35.33-1.11.28-1.69.29-2.6,0-5.21,0-7.82,0a4,4,0,0,1-1.43-.44c-.49-.21-1-.71-1.44-.71-1.63,0-2.89-1.05-4.39-1.41a1.85,1.85,0,0,1-.73-.36c-1.8-1.41-3.65-2.76-5.33-4.3a15.87,15.87,0,0,1-1.84-2.77,7.31,7.31,0,0,1-1.27-4.49,1.56,1.56,0,0,0-.26-.87c-1.06-1.46-1.08-3.14-1.08-4.83V191.15c0-1.43-.38-1.84-1.81-1.83-1.84,0-3.67.12-5.51.1-.25,0-.72-.54-.72-.83,0-2.88,0-5.76,0-8.64a10.09,10.09,0,0,0-.07-1.74c-.11-.65.13-.89.74-.89l22.73.1A11.4,11.4,0,0,1,206.58,177.53Z"></path><path d="M343.75,235.16c1.2-2.84.61-5.72,1-8.52.09-.68.6-1.31.7-2,.24-1.62.34-3.26.51-4.88.06-.48.18-1,.22-1.15,1.58.21,2.94.47,4.3.54,2,.1,4,0,6.07.11s2.9.67,2.72,2.77a37.14,37.14,0,0,0,0,4.22c.06,1.68.62,2.28,2.33,2.35,2.43.11,4.86.14,7.29.16,1.31,0,2.63-.2,3.91-.06a9.65,9.65,0,0,0,5.92-1.52,19.85,19.85,0,0,0,3.38-2.93,1.33,1.33,0,0,0,.22-.87c0-1.23,0-2.47,0-3.7a2.43,2.43,0,0,0-1-1.75,5.24,5.24,0,0,0-3.49-1.7c-1.16-1.71-3-1.08-4.58-1.35-.69-.11-1.35-.42-2-.55-1.44-.28-2.88-.57-4.33-.71a10.86,10.86,0,0,1-3.65-.82,10.1,10.1,0,0,0-3.64-.4c-.74,0-1.42,0-1.9-.74a1.11,1.11,0,0,0-.66-.46,11.87,11.87,0,0,1-3.81-1.47,14.59,14.59,0,0,1-4.48-2.72,16.78,16.78,0,0,1-3.25-4.92c-1.47-3-.67-6.17-.92-9.25a6.74,6.74,0,0,1,.07-1.85,15.92,15.92,0,0,1,.65-1.95,3.73,3.73,0,0,0,.33-.85c.25-2.32,1.83-3.91,3.18-5.58a7.57,7.57,0,0,1,2.2-1.32c.08-.05.24,0,.28-.09,1.06-1.57,3-1.55,4.45-2.16a16.74,16.74,0,0,1,5.64-1.67,8.09,8.09,0,0,0,4.51-1.13,2.56,2.56,0,0,1,1.39-.27c3,0,6,0,8.95,0a3.09,3.09,0,0,1,1.5.48c1.29.81,2.77.59,4.16.87a14.28,14.28,0,0,0,1.74.09c.34,0,.78,0,1,.19,1,1,2.39.83,3.62,1.14a4.21,4.21,0,0,1,1,.49c.14.08.25.31.39.32,1.61.1,2.86,1,4.23,1.73.46.23.74.38.75.9a15.82,15.82,0,0,0,.09,1.95c.33,2.22.77,4.42,1,6.65.18,1.65.14,3.33.18,5a1,1,0,0,1-1,1.11c-1.63.2-3.25.42-4.88.54-1.37.11-2.75.06-4.11.15a12.15,12.15,0,0,0-2,.43c-.1-.49-.2-1.07-.33-1.64a6.22,6.22,0,0,0-.49-1.86,6,6,0,0,1-.79-3.64,1.28,1.28,0,0,0-1-1.45c-.72-.26-1.34-.77-2-1.08a3.81,3.81,0,0,0-1.39-.26c-2.54-.07-5.08,0-7.61-.19-2.85-.22-4.94,1.26-6.69,3.07a6.18,6.18,0,0,0-1.22,3.81,9.1,9.1,0,0,0,1,3.25c.09.25.43.41.68.58,1.35.95,2.66,2,4.47,1.79a.46.46,0,0,1,.38.14c1.06,1.3,2.58,1,4,1.23,1.85.28,3.67.71,5.51,1,.74.13,1.51.07,2.24.22,1,.22,2,.55,3,.84a8.2,8.2,0,0,0,1.08.29,7.28,7.28,0,0,1,2.13.26,34.25,34.25,0,0,0,3.7,1.67,14.14,14.14,0,0,1,3.14,2,15.61,15.61,0,0,1,3.62,3.59c1,1.36.8,2.91,1.43,4.19a10.91,10.91,0,0,1,1,4.22,21.49,21.49,0,0,1,0,2.78,2.93,2.93,0,0,1-.37,1.46,5.8,5.8,0,0,0-.9,3.1,4.46,4.46,0,0,1-.77,1.54c-.17.29-.55.53-.58.81-.28,2.22-2,3.39-3.45,4.67-1,.83-2.08,1.53-3.14,2.26a2.7,2.7,0,0,1-.78.19,9.35,9.35,0,0,0-1.06.34c-.86.35-1.7.74-2.56,1.1-.18.07-.48,0-.58.16-.83,1.05-2,.81-3.11.87a6.49,6.49,0,0,0-3.69,1.07,2.81,2.81,0,0,1-1.57.36c-4.73,0-9.47,0-14.2,0a16.35,16.35,0,0,1-2.73-.7c-1.43-.28-2.86-.54-4.31-.71a3.73,3.73,0,0,1-2.46-.7c-.49-.44-1.41-.39-2.15-.54-.16,0-.4.06-.5,0-1.33-1.19-3.35-.84-4.67-2.09a2.9,2.9,0,0,0-1-.56A10.46,10.46,0,0,0,343.75,235.16Z"></path><path d="M312,321.83c0-1.4,0-2.8,0-4.2a3.17,3.17,0,0,1,.37-1.35,12,12,0,0,1,1.87-2.94c1.24-1.17,2.64-2.23,4.6-1.88.8.14,1.71-.17,2.44.08a7,7,0,0,1,4,2.79,11.14,11.14,0,0,1,1.24,3.9,17.88,17.88,0,0,1,0,3.87,3.75,3.75,0,0,1-.53,1.29c-.13.27-.41.53-.42.79,0,1.85-1.21,3.09-2.45,4.14-1.5,1.28-3.19,2.44-5.4,1.91a1.54,1.54,0,0,1-.49-.13c-1-.64-1.95-1.28-2.9-2a2.25,2.25,0,0,1-1.18-2,.76.76,0,0,0-.22-.56A4,4,0,0,1,312,321.83Z"></path><path d="M227.85,319.7c0-.61,0-1.23,0-1.84a3.14,3.14,0,0,1,1.07-3c.2-.15.22-.55.32-.84s.05-.54.2-.66c1.22-.92,2.2-2.26,4-2.11a35.9,35.9,0,0,1,4.17.28,5.42,5.42,0,0,1,2.3,1.37c.84.73,1.88,1.44,1.69,2.83a.45.45,0,0,0,.1.29c1.85,2.24,1.23,4.83.75,7.24a12.69,12.69,0,0,1-1.26,3.56c-.44.78-1.1,1.95-2.39,2.11a1.36,1.36,0,0,0-.91.6c-.43.86-1.14.83-1.91.8a7.92,7.92,0,0,0-1.54,0c-2.39.4-3.73-1.32-5-2.75a6.8,6.8,0,0,1-1.6-4.89c0-1,0-2,0-3Z"></path></svg> 