<svg id="Layer_1" data-name="Layer 1" xmlns="http://www.w3.org/2000/svg" viewBox="0 0 500 500"><title>khronos-logo</title><g id="Khronos"><path d="M56.91,290.07H48.39V246.53h8.52ZM57,268.44l13.18-21.91h9.51l-14,21.6,14,21.92H70.22Z"/><path d="M108.85,272.4v17.67h-8.52V246.53h8.52v17.66h14V246.53h8.52v43.54h-8.52V272.4Z"/><path d="M165,290.07h-8.52V246.53h10.35a53.12,53.12,0,0,1,7.35.34,15.4,15.4,0,0,1,4.18,1.07,13,13,0,0,1,5.59,4.95,13.64,13.64,0,0,1,2,7.32,13.37,13.37,0,0,1-2.79,8.58,12.38,12.38,0,0,1-7.54,4.47l10.89,16.87H176.3L165,269.88v20.19Zm0-22.32h1.83a13.72,13.72,0,0,0,7.89-1.88,6.24,6.24,0,0,0,2.69-5.45,6,6,0,0,0-2.26-5.13,12.13,12.13,0,0,0-7-1.64H165Z"/><path d="M306.73,290.07h-8.37V246.53h8.09l18,27.78V246.53h8.35v43.54H325l-18.13-28.65v28.65Z"/><path d="M356.07,268.2a23.25,23.25,0,0,1,1-6.78,22.32,22.32,0,0,1,11-13.18,22.69,22.69,0,0,1,10.65-2.57,21.6,21.6,0,0,1,8.36,1.65,22.78,22.78,0,0,1,12.17,12.16,21.81,21.81,0,0,1,1.65,8.55,23.17,23.17,0,0,1-1.65,8.75,22.78,22.78,0,0,1-11.93,12.36,22.2,22.2,0,0,1-8.73,1.78,22.62,22.62,0,0,1-9-1.78,20.9,20.9,0,0,1-7.27-5.14,22.08,22.08,0,0,1-4.61-7.23A23.93,23.93,0,0,1,356.07,268.2Zm8.9-.3a14.29,14.29,0,0,0,.92,5.22,14.12,14.12,0,0,0,2.75,4.49,13.8,13.8,0,0,0,4.57,3.29,12,12,0,0,0,5.27,1.19,12.77,12.77,0,0,0,9.59-4A14.2,14.2,0,0,0,392,267.9a13,13,0,0,0-3.93-9.49,12.69,12.69,0,0,0-9.39-3.92,13.32,13.32,0,0,0-9.71,3.9A13,13,0,0,0,365,267.9Z"/><path d="M421.43,276.59h7.81v.62a6.46,6.46,0,0,0,1.41,4.39,4.73,4.73,0,0,0,3.78,1.64,5.36,5.36,0,0,0,4-1.51,5.77,5.77,0,0,0,1.48-4.17c0-2.8-2-4.83-6-6l-1.22-.38a15.86,15.86,0,0,1-7.53-4.5,11.12,11.12,0,0,1-2.45-7.38,14,14,0,0,1,3.41-9.89,11.55,11.55,0,0,1,9.05-3.73,11.12,11.12,0,0,1,8.43,3.3,14.33,14.33,0,0,1,3.5,9.26h-7.71v-.38a4.53,4.53,0,0,0-1.27-3.29,4.46,4.46,0,0,0-3.3-1.27,4.27,4.27,0,0,0-3.3,1.32,5.06,5.06,0,0,0-1.2,3.56,4.59,4.59,0,0,0,.27,1.64,3.5,3.5,0,0,0,.79,1.32,12,12,0,0,0,5.27,2.49c1.2.33,2.11.58,2.75.82a13.32,13.32,0,0,1,6.59,4.37,11.78,11.78,0,0,1,2.13,7.27,15.38,15.38,0,0,1-3.74,10.81,12.79,12.79,0,0,1-9.89,4.09A12.15,12.15,0,0,1,425.1,287a15.54,15.54,0,0,1-3.66-10.45Z"/><path d="M337.61,298.87l-1.15,1.3a5.51,5.51,0,0,0-1.65-1.09,5.05,5.05,0,0,0-1.84-.35,4.42,4.42,0,0,0-3.3,1.4,5,5,0,0,0,0,6.84,4.42,4.42,0,0,0,3.3,1.4,4.83,4.83,0,0,0,1.64-.28,5,5,0,0,0,1.45-.84v-2.88h-2.57v-1.65h4.44v5.59a10.57,10.57,0,0,1-2.46,1.42,7.1,7.1,0,0,1-2.54.47,6.36,6.36,0,0,1-6.57-6.57,6.64,6.64,0,0,1,1.71-4.48,6.44,6.44,0,0,1,4.86-2.11,7.4,7.4,0,0,1,2.64.49,5.83,5.83,0,0,1,2.09,1.4Z"/><path d="M355.79,297.38h2.39a15.22,15.22,0,0,1,1.65.1,4.07,4.07,0,0,1,1.13.38,2.89,2.89,0,0,1,1.27,1.27,3.6,3.6,0,0,1,.48,1.89,3.14,3.14,0,0,1-.79,2.13,3.69,3.69,0,0,1-2.14,1.12l3.8,5.16-1.76.74-4.18-6.2v5.76l-1.88.14V297.38Zm1.86,1.65v4h.68a2.88,2.88,0,0,0,1.86-.54,1.91,1.91,0,0,0,.68-1.5,1.65,1.65,0,0,0-.63-1.45,3.1,3.1,0,0,0-1.85-.5h-.74Z"/><path d="M386.61,297a6.34,6.34,0,0,1,2.32.41,5.59,5.59,0,0,1,2,1.17,7,7,0,0,1,1.65,2.28,6.73,6.73,0,0,1,.13,5.14,7.19,7.19,0,0,1-1.3,2.09,6.43,6.43,0,0,1-2.18,1.65,7,7,0,0,1-5,.13,5.78,5.78,0,0,1-1.93-1.17,6.24,6.24,0,0,1-1.65-2.31,6.55,6.55,0,0,1-.61-2.72,6.29,6.29,0,0,1,.61-2.73,6.39,6.39,0,0,1,3.58-3.45,7.15,7.15,0,0,1,2.39-.41Zm0,1.75a4.42,4.42,0,0,0-3.3,1.4,4.66,4.66,0,0,0-1.33,3.41,4.68,4.68,0,0,0,8,3.43,5,5,0,0,0,0-6.84A4.61,4.61,0,0,0,386.61,298.72Z"/><path d="M412.64,297.14v7.08a6.12,6.12,0,0,0,.6,3.18,2.08,2.08,0,0,0,1.94.91,2.29,2.29,0,0,0,2-.86,5.22,5.22,0,0,0,.63-2.87v-7.2l1.79-.16v7.86a9.27,9.27,0,0,1-.21,2.35,3.76,3.76,0,0,1-.76,1.42,3.65,3.65,0,0,1-1.43,1,5.22,5.22,0,0,1-1.91.36,4.24,4.24,0,0,1-3.3-1.27,5.6,5.6,0,0,1-1.12-3.85v-7.7l1.85-.21Z"/><path d="M437.87,297.38h3.3a5,5,0,0,1,3.29,1,3.55,3.55,0,0,1,1.13,2.82,3.39,3.39,0,0,1-1.31,2.77,5.52,5.52,0,0,1-3.54,1h-1v4.94l-1.87.15Zm1.88,1.65v4.19h1.14a3.28,3.28,0,0,0,2.06-.55,1.87,1.87,0,0,0,.71-1.65,1.93,1.93,0,0,0-.65-1.64,3.27,3.27,0,0,0-2-.53Z"/><path d="M239.32,287.23c-14.95-.53-35.35-7.35-39.55-17.2-3.66-9,0-19.4,17.22-26.81,10.23-4.27,25.72-5.48,37.65-4.37,16.93,1.55,33.06,10.3,33.09,10.31v13.11a79.59,79.59,0,0,0-11.8-8.59c-6.18-3.61-11.83-6.15-23.07-7.19a54.29,54.29,0,0,0-14.35.19,50.57,50.57,0,0,0-16.35,4.79,39,39,0,0,0-7.93,4.71,48.69,48.69,0,0,0-3.72,3.3c-2.65,3.3-4,5.8-3.3,10.32.78,3.41,2.28,5.53,6.6,8.78a12.45,12.45,0,0,0,2.95,1.83,61.67,61.67,0,0,0,23,6.59" fill="#c33"/><path d="M240.19,249c15,0,36.25,5.93,41.76,15.62,4.84,8.79,2.6,19.35-13.61,27.42-9.63,4.67-24.92,6.46-37,5.85-17.1-.89-34.34-9-34.37-9l-1.65-12.24-.1-.81a92.43,92.43,0,0,0,12.92,8.11,53,53,0,0,0,24,6.24,53.74,53.74,0,0,0,14.27-.72A46.68,46.68,0,0,0,262.07,284a33,33,0,0,0,7.27-5.05,45.22,45.22,0,0,0,3.3-3.48c2.19-3.41,3.29-5.95,2-10.43-1.22-3.3-3-5.42-7.78-8.49a15.3,15.3,0,0,0-3.18-1.73,66.18,66.18,0,0,0-23.79-5.72" fill="#c33"/><path id="OpenGL" d="M452.93,248.38a2.72,2.72,0,0,1-1.34,2.32,2.69,2.69,0,0,1-1.35.37,2.51,2.51,0,0,1-1.34-.37,2.41,2.41,0,0,1-1-1,2.66,2.66,0,0,1-.37-1.35A2.75,2.75,0,0,1,448.9,246a2.6,2.6,0,0,1,1.34-.37,2.69,2.69,0,0,1,1.35.37,2.53,2.53,0,0,1,1,1A2.73,2.73,0,0,1,452.93,248.38Zm-.52,0a2.05,2.05,0,0,0-.64-1.53,2.16,2.16,0,0,0-1.53-.63,2,2,0,0,0-1.53.63,2.12,2.12,0,0,0-.63,1.53,2,2,0,0,0,.63,1.53,2.09,2.09,0,0,0,1.53.64A2.19,2.19,0,0,0,452.41,248.38ZM449,247h1.28a1.18,1.18,0,0,1,.79.22.78.78,0,0,1,.25.59.72.72,0,0,1-.18.49,1,1,0,0,1-.59.3,1.19,1.19,0,0,1,.25.13,3.25,3.25,0,0,1,.23.29l.47.83h-.84a7.46,7.46,0,0,0-.55-1,.43.43,0,0,0-.29-.16h-.09v1.14H449V247Zm.7,1.22h.32a.72.72,0,0,0,.43-.1.41.41,0,0,0,.13-.26.32.32,0,0,0-.12-.26.72.72,0,0,0-.42-.11h-.34Z"/></g></svg>