<?xml version="1.0" encoding="UTF-8"?> <svg xmlns="http://www.w3.org/2000/svg" id="Layer_1" data-name="Layer 1" viewBox="0 0 500 500"><path d="M50,318.2a162,162,0,0,1,6.19-19.52,202.9,202.9,0,0,1,57.21-82.12,8.67,8.67,0,0,0,2.64-4.18c16.77-52.09,51.81-85.22,105.17-96.54,50-10.61,93.85,3.51,130,39.89,15.75,15.85,26.41,34.93,32.65,56.42a9.59,9.59,0,0,0,3.07,4.75c30.46,26.85,51.39,59.73,62.4,98.87.21.74.39,1.5.67,2.55-8.13-2.73-16-5.16-23.91-7.44-14.65-4.22-29.51-7.46-44.45-10.41-1.71-.34-2.19.35-2.76,1.72a135.86,135.86,0,0,1-45.1,57.71c-65.24,48.37-157.85,31.61-201.6-36.41a130.61,130.61,0,0,1-11.11-21.3c-.64-1.56-1.28-2-3-1.66a482.26,482.26,0,0,0-66.47,17.29C51.2,318,50.81,318,50,318.2ZM209.27,199.88a39.43,39.43,0,0,0-1.55-10.83c-5.51-19.32-25-27.38-42.08-17.4-16.53,9.68-24,32.48-16.49,50.09,7.08,16.52,24.92,22.58,40.36,13.37C202.75,227.22,208.43,214.83,209.27,199.88Zm144.3,7.73c0-.94,0-1.26,0-1.58-.08-1.14-.11-2.28-.26-3.4-2-14.91-9-26.45-23-32.85-12.27-5.61-25.81-1.7-33.53,9.4-5.4,7.76-7.07,16.49-5.78,25.72,1.89,13.56,8.31,24.35,20.59,30.93,15,8,31.85,2,38.81-13.47A37.67,37.67,0,0,0,353.57,207.61Z" fill="#ee2a44"></path></svg> 