<?xml version="1.0" encoding="UTF-8"?> <svg xmlns="http://www.w3.org/2000/svg" id="Layer_1" data-name="Layer 1" viewBox="0 0 500 500"><defs><style>.cls-1{fill:none;}</style></defs><title>modelviewer</title><g id="Artboard-Copy-7"><g id="Group"><rect id="Rectangle" class="cls-1" x="50" y="50" width="400" height="400"></rect><path id="Oval-Copy" d="M250,400A150,150,0,1,0,100,250,150,150,0,0,0,250,400Zm0,33.33A183.33,183.33,0,1,1,433.33,250,183.33,183.33,0,0,1,250,433.33Z"></path><path id="Shape" d="M304.46,198.11,251,167.27a2.09,2.09,0,0,0-2.08,0L195.7,198l54.46,31.45Zm17.71,28.27-55.5,32v65.29l54.46-31.44a2.09,2.09,0,0,0,1-1.81Zm-88.84,97.33V258.23l-55.5-32v64.27a2.09,2.09,0,0,0,1,1.81l54.46,31.44ZM337.79,178.86a35.42,35.42,0,0,1,17.71,30.68v80.92a35.42,35.42,0,0,1-17.71,30.68L267.71,361.6a35.41,35.41,0,0,1-35.42,0l-70.08-40.46a35.42,35.42,0,0,1-17.71-30.68V209.54a35.42,35.42,0,0,1,17.71-30.68l70.08-40.46a35.41,35.41,0,0,1,35.42,0Z"></path></g></g></svg> 