<svg id="Layer_1" data-name="Layer 1" xmlns="http://www.w3.org/2000/svg" viewBox="0 0 500 500"><title>openxr</title><g id="Vulkan"><path d="M124,249.3a33,33,0,0,1,6.08-11,30.1,30.1,0,0,1,10.08-7.63,36.17,36.17,0,0,1,28.1,0,29.14,29.14,0,0,1,10.08,7.63,32,32,0,0,1,6.08,11,41.94,41.94,0,0,1,0,25.78,32.78,32.78,0,0,1-6.08,11,29,29,0,0,1-10.08,7.56,36.53,36.53,0,0,1-28.1,0,28.85,28.85,0,0,1-10.08-7.56,32.27,32.27,0,0,1-6.08-11,41.94,41.94,0,0,1,0-25.78ZM132.24,272a25.72,25.72,0,0,0,4.17,8.69,20.6,20.6,0,0,0,7.27,6.2,25.12,25.12,0,0,0,21.13,0,20.69,20.69,0,0,0,7.27-6.2,27.09,27.09,0,0,0,4.16-8.69,36.7,36.7,0,0,0,0-19.58,25.8,25.8,0,0,0-4.16-8.69,20.88,20.88,0,0,0-7.27-6.21,22.61,22.61,0,0,0-10.57-2.35,22,22,0,0,0-10.56,2.35,20.52,20.52,0,0,0-7.27,6.21,27.22,27.22,0,0,0-4.17,8.69,37.32,37.32,0,0,0-1.32,9.79A36.21,36.21,0,0,0,132.24,272Z" fill="#782d8e"/><path d="M192.75,253.57h6.79v5.59h.16a10.15,10.15,0,0,1,5.27-5,19.79,19.79,0,0,1,7.91-1.55,18.93,18.93,0,0,1,8.37,1.74,17.09,17.09,0,0,1,5.91,4.75,20.91,20.91,0,0,1,3.55,6.92,27.91,27.91,0,0,1,1.2,8.3,29,29,0,0,1-1.16,8.3,19.63,19.63,0,0,1-3.53,6.85,17.41,17.41,0,0,1-5.91,4.65,19,19,0,0,1-8.27,1.72,18.2,18.2,0,0,1-3.42-.33,19.7,19.7,0,0,1-3.69-1.06,15.8,15.8,0,0,1-3.48-2,10.82,10.82,0,0,1-2.75-3.07h-.16v21.36h-6.79V253.57Zm32,20.32a20.39,20.39,0,0,0-.78-5.62,15.25,15.25,0,0,0-2.32-4.91,10.86,10.86,0,0,0-4-3.43,12.22,12.22,0,0,0-5.72-1.29A11.68,11.68,0,0,0,206.1,260a11.44,11.44,0,0,0-3.91,3.55,14.87,14.87,0,0,0-2.2,5,24.12,24.12,0,0,0-.68,5.68,23.79,23.79,0,0,0,.71,5.88,14.22,14.22,0,0,0,2.3,5,11.67,11.67,0,0,0,4,3.49,12.74,12.74,0,0,0,6,1.33,11.8,11.8,0,0,0,5.85-1.36,10.81,10.81,0,0,0,3.85-3.59,15.44,15.44,0,0,0,2.06-5.1A29,29,0,0,0,224.77,273.89Z" fill="#782d8e"/><path d="M274.43,281.8q-1.37,6.88-6,10.47a18.64,18.64,0,0,1-11.7,3.59,20.78,20.78,0,0,1-8.62-1.65,17.14,17.14,0,0,1-6.14-4.52,18.65,18.65,0,0,1-3.72-6.88,32.43,32.43,0,0,1-1.39-8.73,24.71,24.71,0,0,1,1.46-8.59,20.75,20.75,0,0,1,4-6.85,18.56,18.56,0,0,1,14-6.11,16.88,16.88,0,0,1,9.14,2.3,18.46,18.46,0,0,1,5.85,5.78,23,23,0,0,1,3,7.69,34.45,34.45,0,0,1,.68,7.92H244.06a16,16,0,0,0,.64,5.16,12,12,0,0,0,2.33,4.33,11.33,11.33,0,0,0,4.07,3,14.16,14.16,0,0,0,5.85,1.13,12,12,0,0,0,7-2,9.55,9.55,0,0,0,3.68-6.08h6.76Zm-6.63-11.5a13.34,13.34,0,0,0-1.06-4.55,11.73,11.73,0,0,0-2.49-3.72,12,12,0,0,0-3.72-2.48,11.59,11.59,0,0,0-4.65-.91,12.19,12.19,0,0,0-4.75.91,11.14,11.14,0,0,0-3.65,2.52,12,12,0,0,0-2.39,3.71,13.87,13.87,0,0,0-1,4.52Z" fill="#782d8e"/><path d="M281.53,253.57h6.4v6.56h.16a14.31,14.31,0,0,1,5.56-5.69,16.21,16.21,0,0,1,7.88-1.84,18,18,0,0,1,6.79,1.13,11.1,11.1,0,0,1,4.39,3.13,11.37,11.37,0,0,1,2.36,4.75,25.74,25.74,0,0,1,.68,6.11v27.2H309v-28a8.21,8.21,0,0,0-2.23-6.07,8.33,8.33,0,0,0-6.17-2.23,13.66,13.66,0,0,0-5.39,1,10.67,10.67,0,0,0-3.82,2.71,12.32,12.32,0,0,0-2.29,4.11,16.39,16.39,0,0,0-.77,5.17V295H281.5V253.57Z" fill="#782d8e"/><path d="M385.4,229.34h35.38a21.23,21.23,0,0,1,7.94,1.42,18.22,18.22,0,0,1,6.08,3.91,16.58,16.58,0,0,1,3.84,5.78,18.6,18.6,0,0,1,1.33,7,19.83,19.83,0,0,1-2.43,10,15.13,15.13,0,0,1-7.94,6.42v.2a11,11,0,0,1,4.42,2.26,12.49,12.49,0,0,1,2.85,3.62,18.09,18.09,0,0,1,1.61,4.55,37.16,37.16,0,0,1,.68,4.91c.06,1,.13,2.27.19,3.69s.17,2.84.33,4.26a27.26,27.26,0,0,0,.74,4.17,9,9,0,0,0,1.52,3.39H427.53a17.59,17.59,0,0,1-1-3.46c-.23-1.26-.39-2.58-.55-3.94s-.29-2.78-.35-4.23-.23-2.81-.42-4.1c-.49-3.43-1.52-5.95-3.14-7.53s-4.2-2.39-7.82-2.39H399.87v25.62h-14.4V229.34ZM399.84,259h15.8c3.23,0,5.72-.74,7.4-2.2s2.52-3.84,2.52-7.17-.84-5.49-2.52-6.95-4.14-2.16-7.4-2.16h-15.8Z" fill="#782d8e"/><path d="M106.14,251.31c8.49-30.08,68.62-44.43,134.3-32.05,39.41,7.43,69.78,24,92.69,39.61-17.16-25-60.51-54.63-120.61-62.81-71.78-9.79-141.21,6.56-148.12,38.29-5,22.93,24,47.78,67.58,63.38C112,283.52,101.74,266.85,106.14,251.31Z" fill="#782d8e"/><polygon points="360.72 263.87 341.75 263.87 320.08 294.92 336.36 294.92 350.96 273.31 365.27 294.92 382.46 294.92 360.72 263.87" fill="#782d8e"/><path d="M347.57,259h13.15l19.93-29.66h-15.8L351.74,250c-21-29.79-51.79-41.74-79.41-45.71,32,13.31,56.89,33.6,69.46,54.73Z" fill="#782d8e"/><polygon points="453.96 288.72 451.57 288.72 451.57 294.95 449.5 294.95 449.5 288.72 447.07 288.72 447.07 286.91 453.96 286.91 453.96 288.72" fill="#782d8e"/><polygon points="454.89 286.91 458 286.91 459.35 292.27 459.38 292.27 460.77 286.91 463.84 286.91 463.84 294.95 461.87 294.95 461.87 288.85 461.87 288.85 460.16 294.95 458.58 294.95 456.9 288.85 456.86 288.85 456.86 294.95 454.89 294.95 454.89 286.91" fill="#782d8e"/></g></svg>