<svg id="Layer_1" data-name="Layer 1" xmlns="http://www.w3.org/2000/svg" xmlns:xlink="http://www.w3.org/1999/xlink" viewBox="0 0 500 500"><defs><linearGradient id="linear-gradient" x1="-371.16" y1="-466.19" x2="-368.88" y2="-466.19" gradientTransform="translate(-100705.57 54284.49) rotate(100.27) scale(192.25)" gradientUnits="userSpaceOnUse"><stop offset="0" stop-color="#ed2224"/><stop offset="1" stop-color="#991b1e"/></linearGradient><linearGradient id="linear-gradient-2" x1="-377.98" y1="-464.91" x2="-375.7" y2="-464.91" gradientTransform="matrix(-79.9, -153.09, -153.09, 79.9, -100983.84, -20320.73)" xlink:href="#linear-gradient"/><linearGradient id="linear-gradient-3" x1="-369.64" y1="165.96" x2="-367.21" y2="165.96" gradientTransform="matrix(95.96, 164.95, 164.95, -95.96, 8221.04, 76945.2)" gradientUnits="userSpaceOnUse"><stop offset="0" stop-color="#991b1e" stop-opacity="0.65"/><stop offset="1" stop-color="#ed2024" stop-opacity="0.65"/></linearGradient><linearGradient id="linear-gradient-4" x1="-371.16" y1="-418.19" x2="-368.89" y2="-418.19" gradientTransform="translate(-91504.21 55951.75) rotate(100.27) scale(192.25)" gradientUnits="userSpaceOnUse"><stop offset="0" stop-color="#ed2224" stop-opacity="0.65"/><stop offset="1" stop-color="#991b1e" stop-opacity="0.65"/></linearGradient></defs><title>WebXRLogo</title><g id="g17"><path id="path15" d="M153.27,407c-6.07-12.8-76.18-162.2-76.18-162.2s-16.36-34.47,42.46-58.93S250,130.57,250,130.57V364.68S207.61,402,190.83,416.87c-15.24,13.59-31.48,3-37.52-9.83Z" fill-rule="evenodd" fill="url(#linear-gradient)"/></g><g id="g21"><path id="path19" d="M346.73,407c6.07-12.8,76.18-162.2,76.18-162.2s16.36-34.39-42.46-59S250,130.57,250,130.57V364.68s42.39,37.27,59.17,52.19c15.24,13.59,31.48,3,37.52-9.83Z" fill-rule="evenodd" fill="url(#linear-gradient-2)"/></g><g id="g25"><path id="path23" d="M250,130.57,128.41,78.28S102.51,68.15,109,100.53l16.61,82.85Z" fill-rule="evenodd" fill="url(#linear-gradient-3)"/></g><g id="g29"><path id="path27" d="M250,130.57,371.59,78.28s25.9-10.13,19.41,22.25l-16.61,82.85Z" fill-rule="evenodd" fill="url(#linear-gradient-4)"/></g></svg>